<svg id="logo-30days" xmlns="http://www.w3.org/2000/svg" width="205" height="205" viewBox="0 0 205 205">
  <g id="Group_162" data-name="Group 162">
    <path id="Path_555" data-name="Path 555" d="M102.4,204.6A102.5,102.5,0,1,1,204.9,102.1,102.621,102.621,0,0,1,102.4,204.6Zm0-196.445A93.945,93.945,0,1,0,196.345,102.1,94.019,94.019,0,0,0,102.4,8.155Z" transform="translate(0.1 0.4)" fill="#ffce0e"/>
  </g>
  <g id="Group_163" data-name="Group 163" transform="translate(16.782 16.782)">
    <path id="Path_556" data-name="Path 556" d="M62.5,108.236l3.291-.165-1.81-4.771Z" transform="translate(23.712 50.532)" fill="#ffce0e"/>
    <path id="Path_557" data-name="Path 557" d="M56.126,101.994l-2.468-.494L53,104.955l2.468.494a1.679,1.679,0,0,0,2.139-1.316A1.6,1.6,0,0,0,56.126,101.994Z" transform="translate(17.582 49.371)" fill="#ffce0e"/>
    <path id="Path_558" data-name="Path 558" d="M54,85.243h6.581L57.291,75.7Z" transform="translate(18.227 32.723)" fill="#ffce0e"/>
    <path id="Path_559" data-name="Path 559" d="M76.007,23.132a1.618,1.618,0,0,0-1.316-1.974L72.058,20.5,71.4,23.626l2.632.658A1.5,1.5,0,0,0,76.007,23.132Z" transform="translate(29.455 -2.896)" fill="#ffce0e"/>
    <path id="Path_560" data-name="Path 560" d="M78.129,75.273c2.961,0,5.429-1.974,5.429-6.087v-23.2c0-4.113-2.468-6.087-5.429-6.087S72.7,41.874,72.7,45.987V69.35C72.865,73.463,75.332,75.273,78.129,75.273Z" transform="translate(30.294 9.622)" fill="#ffce0e"/>
    <path id="Path_561" data-name="Path 561" d="M36.336,34.933a2.357,2.357,0,0,0,1.645-.658,2.285,2.285,0,0,0,.823-1.645c0-.823-.329-1.316-1.974-3.126s-2.3-2.3-2.961-2.3a2.357,2.357,0,0,0-1.645.658A2.618,2.618,0,0,0,31.4,29.5c0,.823.329,1.316,1.974,3.126S35.513,34.768,36.336,34.933Z" transform="translate(3.644 1.428)" fill="#ffce0e"/>
    <path id="Path_562" data-name="Path 562" d="M46.926,105.2l.329-5.1L43.8,103.884Z" transform="translate(11.645 48.467)" fill="#ffce0e"/>
    <path id="Path_563" data-name="Path 563" d="M43.049,73.7H39.1V90.975h3.949A4.668,4.668,0,0,0,47,89.33c.987-1.152,1.152-3.126,1.152-7.075S47.984,76.5,47,75.345A4.668,4.668,0,0,0,43.049,73.7Z" transform="translate(8.613 31.432)" fill="#ffce0e"/>
    <path id="Path_564" data-name="Path 564" d="M84.32,21.9,80.7,25.52,83.661,27Z" transform="translate(35.456 -1.992)" fill="#ffce0e"/>
    <path id="Path_565" data-name="Path 565" d="M95.818,9.8a85.718,85.718,0,1,0,85.718,85.718A85.875,85.875,0,0,0,95.818,9.8Zm60.217,36.854-4.607,3.291,7.4.329,1.81,2.468-6.746-.494-3.784,8.391-1.81-2.468,2.961-6.252-2.632-.165-3.291,2.3-1.481-2.139,10.694-7.733ZM137.773,37.6c1.481-1.81,2.468-2.961,4.442-3.126a5.037,5.037,0,0,1,3.62,1.152,4.789,4.789,0,0,1,.987,6.417L144.847,40.4a2.086,2.086,0,0,0-.494-2.8,1.669,1.669,0,0,0-1.645-.494c-.823.165-1.316.494-2.961,2.468s-1.974,2.468-1.974,3.291a2.618,2.618,0,0,0,.823,1.645,2.252,2.252,0,0,0,2.961,0l1.974,1.645a4.616,4.616,0,0,1-6.417,0,5.125,5.125,0,0,1-1.81-3.455C135.14,40.566,136.292,39.25,137.773,37.6Zm-5.923,89.338a3.761,3.761,0,0,0-2.3-.987l-3.126-.494a8.612,8.612,0,0,1-5.1-2.139,6.947,6.947,0,0,1-1.974-5.265c0-4.771,3.455-8.062,9.213-8.062,3.62,0,6.252.823,8.555,3.126l-3.291,3.291a7.058,7.058,0,0,0-5.429-1.81c-2.8,0-4.113,1.481-4.113,3.291a2.606,2.606,0,0,0,.823,1.974,4.308,4.308,0,0,0,2.468.987l3.126.494a9.2,9.2,0,0,1,5.1,1.974c1.481,1.316,1.974,3.291,1.974,5.594,0,5.1-4.278,8.062-9.872,8.062-3.949,0-7.075-.823-9.707-3.455l3.291-3.291a8.82,8.82,0,0,0,6.417,2.3c3.126,0,4.771-1.152,4.771-3.291A3.255,3.255,0,0,0,131.85,126.943ZM130.7,25.759l1.81.823-1.645,13.985-2.468-1.152.329-2.468-4.278-2.139-1.81,1.81-2.468-1.152ZM110.79,19.343l5.1,1.152c2.468.658,3.62,2.3,3.126,4.607a3.033,3.033,0,0,1-2.139,2.3,3.263,3.263,0,0,1,1.152,3.291c-.494,2.468-2.468,3.291-4.771,2.8l-5.429-1.316ZM99.6,65.41c0-12.175,9.213-18.427,19.085-18.427s19.085,6.252,19.085,18.427v23.2c0,12.175-9.213,18.427-19.085,18.427S99.6,100.783,99.6,88.608ZM88.579,18.52l2.8,5.265,2.139-5.429,2.8-.165-3.62,8.062.329,5.429-2.632.165-.329-5.429-4.442-7.568Zm-8.72.987.494,2.3L74.43,23.291l.823,2.961,5.1-1.316.494,2.3-5.1,1.316.823,3.126L82.492,30.2l.494,2.3-8.391,2.139L71.3,21.81ZM56.5,28.227l8.391,4.607L61.1,25.759l2.3-1.152,6.252,11.681L67.684,37.44l-8.391-4.771,3.784,7.239-2.3,1.152L54.522,29.379ZM44.322,37.276a5.2,5.2,0,0,1,3.62-1.316c1.81.165,2.961,1.316,4.442,2.961s2.632,2.961,2.632,4.771a4.348,4.348,0,0,1-1.645,3.455,4.548,4.548,0,0,1-3.62,1.316c-1.81-.165-2.961-1.316-4.442-2.961s-2.632-2.961-2.632-4.771A4.348,4.348,0,0,1,44.322,37.276ZM30.172,54.551l7.9,1.152-3.949-6.91L35.6,46.654l11.023,7.4L44.98,56.2l-6.417-4.278,2.8,4.936-.987,1.481-5.594-.658L41.2,61.955l-1.481,2.139-11.023-7.4Zm4.936,79.3a.989.989,0,0,1-.658.165.9.9,0,0,1-.987-.658,73.024,73.024,0,0,1-4.936-66.469,1.253,1.253,0,0,1,2.3.987,68.407,68.407,0,0,0-5.594,27.476A70.256,70.256,0,0,0,35.6,132.043,1.323,1.323,0,0,1,35.108,133.853Zm11.023,6.087a2.285,2.285,0,0,0-1.645-.823c-.823,0-1.316.329-3.126,1.974s-2.3,2.3-2.3,2.961a2.357,2.357,0,0,0,.658,1.645,2.1,2.1,0,0,0,1.81.823,2.285,2.285,0,0,0,1.645-.823l.329-.329-1.645-1.81,1.645-1.481,3.291,3.784-1.481,1.316c-1.481,1.316-2.468,1.81-3.784,1.81a4.6,4.6,0,0,1-3.62-1.81,5.2,5.2,0,0,1-1.316-3.62c.165-1.81,1.316-2.961,2.961-4.442s2.961-2.632,4.771-2.632a4.348,4.348,0,0,1,3.455,1.645,4.829,4.829,0,0,1,.165,6.581l-1.81-1.974A1.891,1.891,0,0,0,46.131,139.94Zm4.442,18.921c-2.139-1.645-2.961-4.278-1.316-6.581l5.1-7.075,2.139,1.481-4.936,6.91a2.2,2.2,0,0,0,.494,3.291,2.141,2.141,0,0,0,3.291-.658l4.936-6.91,2.139,1.481-5.1,7.075A4.8,4.8,0,0,1,50.574,158.861Zm20.072,10.365-2.468-.987.165-2.468-4.278-1.81-1.645,1.81-2.468-.987,9.543-10.365,1.81.823Zm-1.481-34.88a9.878,9.878,0,0,1-6.91,2.468H52.712V110.326h9.543a10.3,10.3,0,0,1,7.075,2.468c2.961,2.961,2.632,6.581,2.632,10.53C71.8,127.436,72.126,131.385,69.165,134.347ZM52.712,88.608H66.368c0,4.113,2.632,6.252,6.087,6.252,3.62,0,6.087-2.139,6.087-6.252a6.05,6.05,0,0,0-6.252-6.252H70.317V70.51h1.974c4.113,0,5.594-2.961,5.594-5.594a5.218,5.218,0,0,0-5.429-5.594,5.311,5.311,0,0,0-5.429,5.594H53.37c0-11.188,8.555-17.933,19.085-17.933,11.023,0,19.085,7.239,19.085,17.6,0,6.417-3.126,9.707-6.087,11.517A14.384,14.384,0,0,1,92.2,88.937c0,12.339-9.378,18.262-19.743,18.262C62.584,107.035,52.712,101.77,52.712,88.608Zm35.209,75.024a3.473,3.473,0,0,1-2.961,2.961l1.81,6.087-2.961-.494-1.645-5.594-1.81-.329-.987,5.265-2.468-.494,2.3-13,5.1.987A3.861,3.861,0,0,1,87.921,163.632Zm2.468-31.425H81.011l-1.645,4.771H73.936l9.707-26.489h4.113L97.3,136.814H91.87Zm10.859,40.638-.823-2.3-4.771.165L95,173.01l-2.632.165,4.278-13.327h1.974l5.265,13Zm-4.936-62.52h5.594l4.936,10.694,4.936-10.694h5.594l-7.9,15.63v10.859h-5.1V125.956Zm21.553,59.559L110.79,163.3l1.974,7.9-2.468.658-3.291-12.833,2.3-.658,7.075,6.581-1.974-7.9,2.468-.494,3.291,12.833Zm11.681-4.607-4.936-9.707-3.126,1.481-.987-1.974,8.391-4.278.987,1.974-3.126,1.481,4.936,9.707Zm11.188-6.417L132.672,148.5l6.91-5.429,1.481,1.81-4.771,3.784,1.974,2.468,4.113-3.291,1.481,1.81-4.113,3.291,1.974,2.468,4.771-3.784,1.481,1.81Zm12.01-10.365-10.036-8.555,5.594-6.581,1.81,1.481-3.949,4.607,2.3,1.974,3.455-3.949,1.81,1.481-3.455,3.949,2.468,2.139,3.949-4.607,1.81,1.481Zm5.594-16.617a.989.989,0,0,1-.658-.165,1.175,1.175,0,0,1-.494-1.645,70.8,70.8,0,0,0,9.049-34.551,70,70,0,0,0-6.91-30.6,1.215,1.215,0,0,1,2.139-1.152A72.432,72.432,0,0,1,168.7,95.518a74.31,74.31,0,0,1-9.378,35.867A1.173,1.173,0,0,1,158.338,131.879Z" transform="translate(-10.1 -9.8)" fill="#ffce0e"/>
    <path id="Path_566" data-name="Path 566" d="M76.542,19.7a1.511,1.511,0,0,0-1.316-1.81L72.758,17.4,72.1,20.361l2.468.494A1.413,1.413,0,0,0,76.542,19.7Z" transform="translate(29.906 -4.896)" fill="#ffce0e"/>
  </g>
</svg>
