<svg xmlns="http://www.w3.org/2000/svg" viewBox="0 0 45.998 44.9535"><path d="M47.8672,24.5039l-2.3633-4.1406.293-4.836a.993.993,0,0,0-.4258-.8789l-3.9453-2.7617L39.6523,7.4453a.9967.9967,0,0,0-.7656-.6133l-4.7344-.789L30.6016,2.7852a1.0055,1.0055,0,0,0-.961-.2188L25,3.9453,20.3594,2.5664a1.0055,1.0055,0,0,0-.961.2188L15.8477,6.043l-4.7344.789a1.0013,1.0013,0,0,0-.7656.6172L8.5742,11.8867,4.6289,14.6484a.9973.9973,0,0,0-.4258.8789l.293,4.836L2.1328,24.5039a.9992.9992,0,0,0,0,.9922l2.3633,4.1406-.293,4.836a.993.993,0,0,0,.4258.8789l3.9453,2.7656,1.7735,4.4375a.9891.9891,0,0,0,.7656.6133l4.7344.789,3.5507,3.2578a1.0072,1.0072,0,0,0,.961.2227L25,46.0547l4.6406,1.3789a.9931.9931,0,0,0,.961-.2188l3.5507-3.2578,4.7344-.789a1.0013,1.0013,0,0,0,.7656-.6172l1.7735-4.4375,3.9453-2.7617a.9973.9973,0,0,0,.4258-.8789l-.293-4.836,2.3633-4.1406A.9992.9992,0,0,0,47.8672,24.5039ZM23.5039,34.5312,14.43,26.3438l1.34-1.4844,7.3282,6.6094L34.0586,14.457l1.6836,1.0821Z" transform="translate(-2.001 -2.5243)" style="fill:#fecd08"/></svg>