<svg fill="#222D39" xmlns="http://www.w3.org/2000/svg"  viewBox="0 0 30 30" width="14px" height="14px"><path d="M 13 3 A 1.0001 1.0001 0 0 0 11.986328 4 L 6 4 A 1.0001 1.0001 0 1 0 6 6 L 24 6 A 1.0001 1.0001 0 1 0 24 4 L 18.013672 4 A 1.0001 1.0001 0 0 0 17 3 L 13 3 z M 6 8 L 6 24 C 6 25.105 6.895 26 8 26 L 22 26 C 23.105 26 24 25.105 24 24 L 24 8 L 6 8 z M 12 13 C 12.25575 13 12.511531 13.097469 12.707031 13.292969 L 15 15.585938 L 17.292969 13.292969 C 17.683969 12.901969 18.316031 12.901969 18.707031 13.292969 C 19.098031 13.683969 19.098031 14.316031 18.707031 14.707031 L 16.414062 17 L 18.707031 19.292969 C 19.098031 19.683969 19.098031 20.316031 18.707031 20.707031 C 18.512031 20.902031 18.256 21 18 21 C 17.744 21 17.487969 20.902031 17.292969 20.707031 L 15 18.414062 L 12.707031 20.707031 C 12.512031 20.902031 12.256 21 12 21 C 11.744 21 11.487969 20.902031 11.292969 20.707031 C 10.901969 20.316031 10.901969 19.683969 11.292969 19.292969 L 13.585938 17 L 11.292969 14.707031 C 10.901969 14.316031 10.901969 13.683969 11.292969 13.292969 C 11.488469 13.097469 11.74425 13 12 13 z"/></svg>
