<svg xmlns="http://www.w3.org/2000/svg" width="582.526" height="522.549" viewBox="0 0 582.526 522.549"><rect width="474.93" height="24.671" transform="translate(0.148 300.854)" fill="#ffe6bd"/><rect width="155.643" height="219.566" transform="translate(319.435 301.062)" fill="#ffe6bd"/><rect width="20.504" height="219.565" transform="translate(0 301.063)" fill="#ffe6bd"/><rect width="104.054" height="39.639" transform="translate(345.452 328.119)" fill="#e5bd7f"/><rect width="104.057" height="39.636" transform="translate(345.229 387.725)" fill="#e5bd7f"/><rect width="104.057" height="39.636" transform="translate(345.229 447.18)" fill="#e5bd7f"/><rect width="27.657" height="2.891" transform="translate(383.429 347.707)" fill="#ffe6bd"/><rect width="27.657" height="2.89" transform="translate(383.429 406.173)" fill="#ffe6bd"/><rect width="27.657" height="2.889" transform="translate(383.429 464.488)" fill="#ffe6bd"/><rect width="63.138" height="220.088" transform="translate(475.078 300.539)" fill="#e5bd7f"/><rect width="20.261" height="195.103" transform="translate(19.955 325.525)" fill="#e5bd7f"/><path d="M1431.635,2111.542l-.342-.058c-.217-.037-.535-.086-.935-.141s-.891-.113-1.46-.165-1.208-.1-1.928-.107a11.248,11.248,0,0,0-2.433.19l-.177.042-.183.049a3.97,3.97,0,0,0-.383.128,3.644,3.644,0,0,0-.409.185,2.852,2.852,0,0,0-.442.3,1.491,1.491,0,0,0-.218.208l-.105.125-.051.064-.024.032c-.01.013-.006.01,0,.006s.01-.014-.059.087l0,.009c-.047.089-.093.18-.141.271a5.341,5.341,0,0,0-.2.515c-.041.155-.066.291-.093.44a4.992,4.992,0,0,0,.052,1.6,8.3,8.3,0,0,0,.4,1.41,15.374,15.374,0,0,0,1.247,2.519,23.065,23.065,0,0,0,1.555,2.256,23.613,23.613,0,0,0,1.734,1.993,11.652,11.652,0,0,0,1.9,1.617c.089.052.175.105.264.159l.139.071.072.035.034.018.018.007.026.01.006,0c.177.063.341.128.522.185s.379.1.559.136.356.062.527.076a8.039,8.039,0,0,0,1.864-.047,11.726,11.726,0,0,0,1.392-.278,9.41,9.41,0,0,0,1.167-.382,9.3,9.3,0,0,1-1.191.249,11.607,11.607,0,0,1-1.389.124,7.628,7.628,0,0,1-1.767-.149c-.157-.032-.312-.081-.473-.121s-.3-.111-.457-.165-.325-.157-.489-.238l-.009,0,.011,0-.012-.009-.027-.015-.052-.034-.1-.068-.208-.157a11,11,0,0,1-1.583-1.683,22.689,22.689,0,0,1-1.428-2.061,21.646,21.646,0,0,1-1.217-2.265,13.644,13.644,0,0,1-.859-2.345,6.139,6.139,0,0,1-.189-1.12,2.87,2.87,0,0,1,.066-.927l.058-.167.027-.058c.058-.085.115-.169.171-.255l.006-.007c-.066.1-.056.088-.052.08h0v.009l0,.012,0,.008.063-.02.064-.018.073-.019c.055-.012.108-.024.177-.033l.1-.016.107-.009a8.9,8.9,0,0,1,1.862.073c.612.073,1.186.18,1.69.282s.948.208,1.311.3.644.163.835.219l.28.079Z" transform="translate(-1005.334 -1837.713)" fill="#0e3650"/><path d="M1321.584,2125.931h-18.508c-5.929-4.989-9.968-14.635-9.994-25.725h38.368C1331.477,2111.3,1327.491,2120.913,1321.584,2125.931Z" transform="translate(-867.812 -1829.671)" fill="#fafaff"/><path d="M1366.279,2199.361h9.191c.588.489-.237.652-1.6.652-2.722,0-7.594-.652-7.594-.652Z" transform="translate(-931.015 -1903.101)" fill="#de929e"/><path d="M1367.02,2100.206h12.265a22.013,22.013,0,0,0,6.92,25.725h-9.192C1371.084,2120.942,1367.046,2111.3,1367.02,2100.206Z" transform="translate(-941.749 -1829.671)" fill="#e1dce8"/><path d="M1324.381,2182.975a32,32,0,0,1-9.63,8.5h-31.639a31.975,31.975,0,0,1-9.631-8.5Z" transform="translate(-855.658 -1890.965)" fill="#2e415f"/><path d="M1380.307,2181.933c1.555,4.109,6.967,7.238,13.314,8.5h-17a32.018,32.018,0,0,1-9.632-8.5Z" transform="translate(-949.159 -1890.194)" fill="#0e3650"/><path d="M1358.762,1899.376c2.487,1.943,7.316,6.712,14.738,6.712a18.919,18.919,0,0,0,5.027-.7,38.52,38.52,0,0,1,10.159-1.512c24.438,0,24.9,31.3,22.467,46.758,0,0,.087-17.937-9.824-30.69-4.224-5.43-6.569-7.458-11.844-7.458a73.949,73.949,0,0,0-11.975,1.575,5.279,5.279,0,0,1-.92.081C1369.994,1914.139,1361.4,1902.376,1358.762,1899.376Z" transform="translate(-965.518 -1680.944)" fill="#e3e3e3"/><path d="M1384.482,1988.227c.984,1.026,2.922,3.61,6.557,3.61a8.013,8.013,0,0,0,1.024-.066,18.206,18.206,0,0,1,2.274-.153c11.877,0,10.184,13.744,8.211,20.167,0,0,1.063-7.186-2.177-12.87-1.783-3.121-2.638-3.79-6.537-3.79-.765,0-1.647.024-2.678.063-.024,0-.049,0-.076,0C1388.35,1995.19,1385.4,1989.632,1384.482,1988.227Z" transform="translate(-964.025 -1746.744)" fill="#e3e3e3"/><path d="M1544.675,1660.042H1554.9L1524.371,1536l-10.222,1.918Z" transform="translate(-1345.494 -1137.493)" fill="#0e3650"/><path d="M1882.165,1539.694h10.221l-30.525,122.128h-10.22Z" transform="translate(-1770.541 -1140.231)" fill="#0e3650"/><path d="M2268.165,2047.659a64.188,64.188,0,0,0,64.188,64.187h44.609a63.875,63.875,0,0,0,35.191-10.5c6.468-4.248-49.335-20.935-84.682-61.581-38.5-44.269-49.215-108.688-53.072-100.612a63.941,63.941,0,0,0-6.235,27.63Z" transform="translate(-2202.01 -1709.891)" fill="#2e415f"/><rect width="64.86" height="3.314" transform="translate(111.805 428.538)" fill="#0e3650"/><rect width="80.331" height="7.733" transform="translate(108.582 436.361)" fill="#0e3650"/><rect width="160.38" height="7.287" transform="translate(334.527 90.82)" fill="#f4d499"/><rect width="247.999" height="7.29" transform="translate(334.527 191.011)" fill="#f4d499"/><path d="M1523.356,1077.624s-5.374-13.737-10.779-18.371c-2.2-1.885-3.972-2.313-9.654,1.952-4.157,3.122-5.147,9.606-2.6,12.349,3.7,3.983,16.5,9.682,17.711,9.746S1523.356,1077.624,1523.356,1077.624Z" transform="translate(-1113.124 -1057.774)" fill="#8bc63e"/><path d="M1534.089,1088.391s-13.987-1.781-15.7-12.627c-1.242-7.868,2.382-10.886-1.339-7.95-4.915,3.877-5.049,9.689-2.5,12.431,3.7,3.984,17.714,9.748,17.714,9.748Z" transform="translate(-1127.484 -1064.309)" fill="#5a7f19"/><path d="M1520.9,1079.212c-15.348-16.648-13.142-19.477-12.8-21.591.117-.725-2.825,1.128-2.825,1.128s-2.223,8.923,14.839,21.382C1520.266,1080.242,1521.03,1079.35,1520.9,1079.212Z" transform="translate(-1112.306 -1057.453)" fill="#5a7f19"/><path d="M1429.844,1146.835s11.17-33.745,11.17-52.194c0-7.512-1.332-11.72-12.5-15.708-8.175-2.919-17.141,6.069-17.828,15.708-.993,14,5.455,48.811,6.645,51.3S1429.844,1146.835,1429.844,1146.835Z" transform="translate(-1007.86 -1072.946)" fill="#8bc63e"/><path d="M1458.782,1145.748s-12.479-30.534-1.008-52.194c8.318-15.708,15.807-13.669,8.318-16.041-9.895-3.133-17.143,6.4-17.829,16.041-1,14,6.644,51.3,6.644,51.3Z" transform="translate(-1045.772 -1071.858)" fill="#5a7f19"/><path d="M1421.244,1155.967c4.271-58.28,9.664-54.655,12.985-60.86.669-1.251-4.337-4.4-4.337-4.4s-13.244,10.672-10.6,65.263C1419.316,1156.455,1421.207,1156.455,1421.244,1155.967Z" transform="translate(-1003.307 -1082.078)" fill="#5a7f19"/><path d="M1436.755,1348.9h-18.131c-5.813-4.154-9.769-12.186-9.794-21.422h37.59C1446.449,1336.717,1442.545,1344.724,1436.755,1348.9Z" transform="translate(-1012.812 -1257.423)" fill="#fff"/><path d="M1501.5,1348.9h-9c-5.811-4.154-9.766-12.186-9.794-21.422h12.018s-1.12,6.665.574,11.6C1497.679,1345.995,1501.5,1348.9,1501.5,1348.9Z" transform="translate(-1087.063 -1257.423)" fill="#c9bed1"/><path d="M1319.324,1253.582s6.65-20.086,6.65-31.07c0-4.471-.793-6.977-7.443-9.35-4.869-1.738-10.206,3.613-10.614,9.35-.591,8.331,3.246,29.057,3.955,30.537S1319.324,1253.582,1319.324,1253.582Z" transform="translate(-866.169 -1172.517)" fill="#8bc63e"/><path d="M1336.55,1252.935s-7.427-18.175-.6-31.07c4.951-9.35,9.41-8.137,4.951-9.549-5.891-1.864-10.206,3.812-10.614,9.549-.591,8.331,3.956,30.537,3.956,30.537Z" transform="translate(-888.738 -1171.87)" fill="#5a7f19"/><path d="M1314.057,1259.019c2.54-34.692,5.976-34.576,7.728-36.3.6-.593-2.581-2.55-2.581-2.55s-7.884,6.351-6.309,38.849C1312.909,1259.309,1314.034,1259.309,1314.057,1259.019Z" transform="translate(-863.31 -1177.954)" fill="#5a7f19"/><path d="M1323.442,1373.871h-10.793c-3.46-2.473-5.814-7.255-5.831-12.752H1329.2C1329.211,1366.617,1326.886,1371.383,1323.442,1373.871Z" transform="translate(-869.121 -1282.335)" fill="#fff"/><path d="M1362.564,1373.871h-5.359c-3.46-2.473-5.814-7.255-5.831-12.752h7.153a7.828,7.828,0,0,0-.482,5.641C1359.721,1371.988,1362.564,1373.871,1362.564,1373.871Z" transform="translate(-914.05 -1282.335)" fill="#c9bed1"/><rect width="12.815" height="81.5" transform="translate(544.548 109.598)" fill="#ece7ec"/><rect width="6.407" height="52.145" transform="translate(547.753 131.501)" fill="#de3f18"/><rect width="6.407" height="8.925" transform="translate(547.753 114.81)" fill="#de3f18"/><rect width="19.016" height="67.363" transform="translate(522.26 123.735)" fill="#8648a3"/><rect width="18.756" height="5.132" transform="translate(522.52 131.501)" fill="#2d3e50"/><rect width="12.668" height="28.562" transform="translate(525.694 144.542)" fill="#2d3e50"/><rect width="18.756" height="5.131" transform="translate(522.52 176.048)" fill="#2d3e50"/><rect width="19.016" height="2.618" transform="translate(522.26 183.455)" fill="#2d3e50"/><rect width="18.756" height="2.618" transform="translate(522.52 138.571)" fill="#2d3e50"/><rect width="19.018" height="67.363" transform="translate(501.767 123.735)" fill="#8648a3"/><rect width="18.757" height="5.132" transform="translate(502.027 131.501)" fill="#2d3e50"/><rect width="12.667" height="28.562" transform="translate(505.203 144.542)" fill="#2d3e50"/><rect width="18.757" height="5.131" transform="translate(502.027 176.048)" fill="#2d3e50"/><rect width="19.018" height="2.618" transform="translate(501.767 183.455)" fill="#2d3e50"/><rect width="18.757" height="2.618" transform="translate(502.027 138.571)" fill="#2d3e50"/><rect width="12.816" height="81.499" transform="matrix(-0.963, -0.27, 0.27, -0.963, 485.182, 191.317)" fill="#2d3e50"/><rect width="6.407" height="4.462" transform="matrix(-0.963, -0.27, 0.27, -0.963, 501.471, 121.29)" fill="#2eaeb7"/><rect width="1.398" height="54.302" transform="translate(480.985 177.162) rotate(-164.353)" fill="#2eaeb7"/><rect width="1.398" height="54.306" transform="translate(485.275 178.379) rotate(-164.274)" fill="#2eaeb7"/><path d="M455.541,704.78l6.171,1.726,1.2-4.3-6.172-1.729Z" transform="translate(21.137 -518.746)" fill="#2eaeb7"/><rect width="12.815" height="59.368" transform="translate(459.805 131.73)" fill="#2d3e50"/><rect width="6.405" height="37.984" transform="translate(463.01 147.686)" fill="#de3f18"/><path d="M1715.27,2166.752a1.033,1.033,0,0,0-1.037,1.023l-.066,5.861a1.033,1.033,0,0,0,1.014,1.045l2.623.027a1.029,1.029,0,0,0,1.039-1.021l.064-5.861a1.027,1.027,0,0,0-1.014-1.043Z" transform="translate(-1364.517 -1878.952)" fill="#de3f18"/><path d="M953.448,872.759,952.7,939.85l4.632.052.751-67.093-4.635-.051Z" transform="translate(-603.015 -646.328)" fill="#f1c40f"/><path d="M954.238,856.02l1.53.017,1.525,4.34-4.676-.052,1.621-4.3Z" transform="translate(-602.203 -633.931)" fill="#f9ebf0"/><path d="M959.282,847.929l.742,2.116h0l-.742-2.116-.788,2.1h0l.788-2.1Z" transform="translate(-606.459 -627.939)" fill="#180a0a"/><path d="M959.282,847.929l.742,2.116-1.53-.017.788-2.1Z" transform="translate(-606.459 -627.939)" fill="#181718"/><path d="M964.7,872.785l-.749,67.091-2.316-.026.749-67.092,2.316.026Z" transform="translate(-611.953 -646.328)" fill="#e67e22"/><path d="M955.415,1114.047l-.011,1.237h0l.014-1.236Z" transform="translate(-601.047 -825.015)" fill="#160602"/><path d="M955.661,1114.051l-.014,1.236-.246,0,.26-1.233Z" transform="translate(-601.293 -825.018)" fill="#181301"/><path d="M1717.852,2170.912a1.028,1.028,0,0,0-1.217.8l-1.208,5.735a1.027,1.027,0,0,0,.792,1.223l2.567.541a1.028,1.028,0,0,0,1.216-.8l1.208-5.738a1.028,1.028,0,0,0-.79-1.221Z" transform="translate(-1367.164 -1882.016)" fill="#de3f18"/><path d="M920.951,881.292l-13.837,65.654,4.534.955,13.839-65.654-4.536-.954Z" transform="translate(-558.591 -652.647)" fill="#f1c40f"/><path d="M909.44,866.077l1.5.314.646,4.552-4.577-.963,2.431-3.9Z" transform="translate(-544.663 -641.379)" fill="#f9ebf0"/><path d="M910.684,858.727l.316,2.221h0l-.316-2.221-1.184,1.907h0l1.185-1.907Z" transform="translate(-544.724 -635.936)" fill="#180a0a"/><path d="M910.683,858.727l.316,2.221-1.5-.314,1.184-1.907Z" transform="translate(-544.722 -635.936)" fill="#181718"/><path d="M931.958,881.768l-13.839,65.654-2.267-.477,13.837-65.654,2.269.477Z" transform="translate(-567.329 -652.647)" fill="#e67e22"/><path d="M957.074,1118.869l2.267.478-.246,1.167-.018.09-2.267-.478.264-1.257Z" transform="translate(-605.339 -828.586)" fill="#181301"/><path d="M1733.72,2176.492c.006,0,.014,0,.02.008l-.154.729-.023-.006.077-.349Z" transform="translate(-1384.382 -1886.165)" fill="#160602"/><path d="M1726.774,2176.2l.158.032-.264,1.257-2.267-.477.154-.729a2.992,2.992,0,0,0,1.04.188,3.157,3.157,0,0,0,.626-.064l.012,0-.007-.033A3.169,3.169,0,0,0,1726.774,2176.2Z" transform="translate(-1375.197 -1885.946)" fill="#170c03"/><rect width="6.407" height="6.5" transform="translate(463.009 135.527)" fill="#de3f18"/><path d="M1718.331,2159.891a2.859,2.859,0,1,0,2.253-3.168A2.754,2.754,0,0,0,1718.331,2159.891Z" transform="translate(-1370.641 -1871.476)" fill="#c9bed1"/><path d="M1729.4,2157.036l.01,0,1.076,5.177-.012,0a2.65,2.65,0,1,1-1.074-5.176Z" transform="translate(-1379.446 -1871.754)" fill="#797085"/><path d="M965.989,1037.206l4.714,17.186-5.583,1.158-4.713-17.186,5.582-1.158Z" transform="translate(-617.634 -768.11)" fill="#1e2222"/><path d="M965.958,942.1l10.059,42.937-4.758.988L961.2,943.085l4.762-.988Z" transform="translate(-623.153 -697.676)" fill="#1e2222"/><path d="M961.2,942.59l10.063,42.938,2.378-.495L963.578,942.1l-2.382.493Z" transform="translate(-620.773 -697.676)" fill="#797085"/><path d="M966.294,1103.577l.217,1.037-5.2,1.079-.214-1.039,5.192-1.077Z" transform="translate(-613.623 -817.261)" fill="#1e2222"/><path d="M1000,920.57l.66-8.891,4.146,7.893-4.805,1Z" transform="translate(-662.009 -675.151)" fill="#c9bed1"/><path d="M1011.658,920.075l-2.4.5.66-8.889,1.745,8.39Z" transform="translate(-671.263 -675.154)" fill="#797085"/><path d="M1012.228,912.652l.84,1.475-.059.012-.781-1.488Z" transform="translate(-673.444 -675.871)" fill="#180a0a"/><path d="M1012.482,912.428l.034.058.781,1.488-.529.108-.311-1.5.026-.156Z" transform="translate(-673.732 -675.705)" fill="#141314"/><path d="M1016.471,917.043l-.043.568-.055.011.1-.579Z" transform="translate(-677.922 -679.122)" fill="#180a0a"/><path d="M1016.416,917.038l-.043.57.043-.568Z" transform="translate(-677.867 -679.119)" fill="#141314"/><path d="M1014.714,913.029l.311,1.5-.53.112.043-.57.176-1.04Z" transform="translate(-675.989 -676.15)" fill="#0c0b0d"/><path d="M996.694,1036.818l.241,1.033-.629.131-.217-1.039.6-.125Z" transform="translate(-653.124 -767.823)" fill="#180a0a"/><path d="M989.289,1034.911l.243,1.034-2.382.493-.241-1.033,2.38-.495Z" transform="translate(-643.339 -766.41)" fill="#030303"/><path d="M981.878,1033.474l.216,1.039-1.772.368-.243-1.034,1.8-.373Z" transform="translate(-634.128 -765.346)" fill="#0c0b0d"/><path d="M972.6,1044.526l-.006.429-.114-.4.12-.026Z" transform="translate(-622.661 -773.531)" fill="#180a0a"/><path d="M963.6,1065.6l.05.183-.056.272.006-.456Z" transform="translate(-611.407 -789.136)" fill="#181301"/><path d="M964.46,1043.989l1.587,5.606-.006.456-.28,1.34-1.975-6.833.006-.429.668-.139Z" transform="translate(-613.855 -773.133)" fill="#170c03"/><path d="M1712.844,2142.229l1.3,4.582a.817.817,0,0,1-.484,1.03l-1.135.237c0-.011,0-.021-.006-.032a2.511,2.511,0,0,0-.4-.931l.2-.041.347-.073a.824.824,0,0,0,.486-1.031l-.63-2.181Z" transform="translate(-1359.242 -1860.791)" fill="#181301"/><path d="M958.688,1066.305l1.36,4.792-.33,1.558-1.366-4.739.28-1.34.056-.272Z" transform="translate(-606.446 -789.659)" fill="#170c03"/><path d="M1720.627,2161.059a2.513,2.513,0,0,1,.4.93c0,.011,0,.021.006.032l-2.58.537,0-.012,1.852-.385.342-.072-.208-.992Z" transform="translate(-1367.758 -1874.735)" fill="#141314"/><path d="M960.8,1103.448h0l-.2.041-.188.039h0l.388-.079Z" transform="translate(-607.726 -817.166)" fill="#030303"/><rect width="0.001" height="1.891" transform="translate(350.692 287.81) rotate(-101.75)" fill="#0c0b0d"/><path d="M963.294,1103.754h0l.208.991-.342.072-1.852.384-.206-.992,2.192-.455Z" transform="translate(-610.613 -817.392)" fill="#030303"/><path d="M960.4,1037.784l4.716,17.187,2.791-.579-4.716-17.186Z" transform="translate(-614.837 -768.11)" fill="#797085"/><rect width="24.89" height="32.999" transform="translate(337.463 267.34)" fill="#2eaeb7"/><rect width="12.444" height="32.999" transform="translate(337.463 267.34)" fill="#2d7c7a"/><rect width="8.301" height="6.477" transform="translate(562.597 196.733)" fill="#f4d499"/><rect width="8.301" height="6.477" transform="translate(344.089 196.733)" fill="#f4d499"/><rect width="8.301" height="6.477" transform="translate(450.225 196.733)" fill="#f4d499"/><rect width="8.301" height="6.476" transform="translate(477.304 97.589)" fill="#f4d499"/><rect width="8.301" height="6.476" transform="translate(341.413 97.589)" fill="#f4d499"/><path d="M1882.3,1711.1a9.83,9.83,0,0,0,9.831,9.83H2057.28a9.833,9.833,0,0,0,9.833-9.831V1601.577a9.832,9.832,0,0,0-9.833-9.829H1892.126a9.829,9.829,0,0,0-9.83,9.83Z" transform="translate(-1756.342 -1453.129)" fill="#2e415f"/><rect width="45.172" height="24.927" transform="translate(195.757 270.566)" fill="#2e415f"/><path d="M1152.971,666.3h169.5V566.021h-169.5V666.3Z" transform="translate(-1019.358 -419.171)" fill="#dbdbdb"/><path d="M2080.692,1722.691l.13.076h-.13ZM1911.323,1622.5l.431.253h-.431Z" transform="translate(-1777.582 -1475.9)" fill="#36506b"/><path d="M1152.971,566.021h.431l168.937,99.941v.076H1152.971V566.021Z" transform="translate(-1019.23 -419.171)" fill="#44b9c2"/><path d="M1152.971,566.021h.431l168.937,99.941v.076H1152.971V566.021Z" transform="translate(-1019.23 -419.171)" fill="#dbdbdb"/><path d="M2067.123,2038.64v7.531a13.034,13.034,0,0,1-13.035,13.035H1895.341c-7.2,0-13.034-5.837-13.034-10.754v-9.812Z" transform="translate(-1756.356 -1784.078)" fill="#abb3bf"/><path d="M2151.428,2074.767c0,.707,1.206,1.28,2.694,1.28h39.785c1.488,0,2.693-.572,2.693-1.28s-1.205-1.282-2.693-1.282h-39.785C2152.634,2073.485,2151.428,2074.058,2151.428,2074.767Z" transform="translate(-1955.654 -1809.882)" fill="#2e415f"/><rect width="83.356" height="5.539" transform="translate(176.664 294.956)" fill="#2e415f"/><rect width="16.509" height="9.181" transform="translate(377.71 154.591)" fill="#51495b"/><path d="M1466.349,1674.114h3.887a2.455,2.455,0,0,0,.664-.094h22.02a4.778,4.778,0,0,0,.973.094h20.852a1.669,1.669,0,0,1,1.823,1.824v26.9a1.669,1.669,0,0,1-1.823,1.824h-48.4a1.669,1.669,0,0,1-1.824-1.824v-26.9a1.669,1.669,0,0,1,1.824-1.824Z" transform="translate(-1097.415 -1514.055)" fill="#443d4f"/><path d="M1566.652,1601.653h-20.369a2.427,2.427,0,0,0-2.427,2.427v11.609a2.427,2.427,0,0,0,2.427,2.427h20.368a2.427,2.427,0,0,0,2.427-2.427h0V1604.08a2.427,2.427,0,0,0-2.427-2.427Z" transform="translate(-1170.503 -1460.464)" fill="#443d4f"/><path d="M1568.666,1611.007h-7.8a5.8,5.8,0,0,0-5.8,5.8h0v0a5.8,5.8,0,0,0,5.8,5.8h7.8a5.8,5.8,0,0,0,5.8-5.8v0a5.8,5.8,0,0,0-5.8-5.8Z" transform="translate(-1178.8 -1467.391)" fill="#e0d5d7"/><ellipse cx="9.362" cy="9.362" rx="9.362" ry="9.362" transform="translate(376.603 165.925)" fill="#e0d5d7"/><ellipse cx="7.375" cy="7.375" rx="7.375" ry="7.375" transform="translate(378.589 167.911)" fill="#51495b"/><g transform="translate(438.62 273.595)"><path d="M8.708,42.381a6.167,6.167,0,0,0,3.475,5.549L9.242,39.872A6.143,6.143,0,0,0,8.708,42.381Z" transform="translate(-7.686 -35.194)" fill="#464342"/><path d="M26.666,14.563a3.246,3.246,0,0,0-.508-1.7,2.886,2.886,0,0,1-.606-1.446,1.068,1.068,0,0,1,1.035-1.094c.027,0,.053,0,.08,0a6.165,6.165,0,0,0-9.316,1.161c.145,0,.281.007.4.007.645,0,1.643-.078,1.643-.078a.255.255,0,0,1,.04.508s-.334.039-.706.059l2.245,6.679,1.349-4.047-.961-2.632c-.332-.019-.647-.059-.647-.059a.255.255,0,0,1,.039-.508s1.018.078,1.624.078c.645,0,1.643-.078,1.643-.078a.255.255,0,0,1,.04.508s-.335.039-.706.059l2.228,6.628.615-2.055A7.449,7.449,0,0,0,26.666,14.563Z" transform="translate(-15.316 -7.686)" fill="#464342"/><path d="M48.266,65.857l-1.85,5.376a6.169,6.169,0,0,0,3.789-.1.542.542,0,0,1-.044-.085Z" transform="translate(-40.97 -58.13)" fill="#464342"/><path d="M89.992,36.046a4.73,4.73,0,0,1,.042.634,5.817,5.817,0,0,1-.469,2.209l-1.883,5.445a6.167,6.167,0,0,0,2.311-8.288Z" transform="translate(-77.394 -31.817)" fill="#464342"/><path d="M7.188,0a7.188,7.188,0,1,0,7.188,7.187A7.2,7.2,0,0,0,7.188,0Zm0,14.046a6.858,6.858,0,1,1,6.858-6.858A6.866,6.866,0,0,1,7.188,14.046Z" transform="translate(0 0)" fill="#464342"/></g><path d="M0,0H35.84V103.192H0Z" transform="translate(133.613 146.435)" fill="#232d39"/><path d="M0,0H170.152V11.218H0Z" transform="translate(133.613 146.435)" fill="#232d39"/><g transform="translate(136.418 148.754)"><path d="M8.708,41.127A3.083,3.083,0,0,0,10.446,43.9L8.975,39.872A3.071,3.071,0,0,0,8.708,41.127Z" transform="translate(-8.197 -37.533)" fill="#fff"/><path d="M22.009,11.635a1.623,1.623,0,0,0-.254-.85,1.443,1.443,0,0,1-.3-.723.534.534,0,0,1,.518-.547l.04,0a3.082,3.082,0,0,0-4.658.58c.072,0,.14,0,.2,0,.322,0,.822-.039.822-.039a.127.127,0,0,1,.02.254s-.167.02-.353.029l1.123,3.339.675-2.023-.48-1.316c-.166-.01-.323-.029-.323-.029a.127.127,0,0,1,.019-.254s.509.039.812.039c.322,0,.822-.039.822-.039a.127.127,0,0,1,.02.254s-.167.02-.353.029l1.114,3.314.308-1.028A3.724,3.724,0,0,0,22.009,11.635Z" transform="translate(-16.334 -8.197)" fill="#fff"/><path d="M47.341,65.857l-.925,2.688a3.084,3.084,0,0,0,1.895-.049.27.27,0,0,1-.022-.042Z" transform="translate(-43.693 -61.994)" fill="#fff"/><path d="M88.836,36.046a2.365,2.365,0,0,1,.021.317,2.908,2.908,0,0,1-.234,1.1l-.942,2.723a3.083,3.083,0,0,0,1.155-4.144Z" transform="translate(-82.537 -33.931)" fill="#fff"/><path d="M3.594,0A3.594,3.594,0,1,0,7.188,3.594,3.6,3.6,0,0,0,3.594,0Zm0,7.023A3.429,3.429,0,1,1,7.023,3.594,3.433,3.433,0,0,1,3.594,7.023Z" transform="translate(0 0)" fill="#fff"/></g><rect width="41.563" height="4.3" transform="translate(147.229 150.018)" fill="#787878"/><rect width="15.049" height="4.3" transform="translate(191.658 150.018)" fill="#787878"/><rect width="15.049" height="4.3" transform="translate(284.817 150.018)" fill="#787878"/><rect width="29.381" height="2.866" transform="translate(136.479 160.767)" fill="#787878"/><rect width="29.381" height="2.866" transform="translate(136.479 167.933)" fill="#787878"/><rect width="29.381" height="2.866" transform="translate(136.479 175.099)" fill="#787878"/><rect width="29.381" height="2.866" transform="translate(136.479 182.265)" fill="#787878"/><rect width="29.381" height="2.866" transform="translate(136.479 189.431)" fill="#787878"/><rect width="29.381" height="2.866" transform="translate(136.479 196.597)" fill="#787878"/><rect width="54.462" height="33.681" transform="translate(178.043 166.5)" fill="#fff"/><rect width="54.462" height="51.596" transform="translate(239.671 166.5)" fill="#fff"/><rect width="54.462" height="33.681" transform="translate(178.043 205.913)" fill="#fff"/><rect width="54.462" height="23.648" transform="translate(239.671 223.828)" fill="#fff"/></svg>