<?xml version="1.0" encoding="UTF-8"?><svg id="a" xmlns="http://www.w3.org/2000/svg" width="1024" height="1024" viewBox="0 0 1024 1024"><path d="M1024,512C1024,229.2302,794.7698,0,512,0S0,229.2302,0,512c0,255.554,187.231,467.3701,432,505.7778v-357.7778h-130v-148h130v-112.8c0-128.3202,76.4385-199.2,193.3892-199.2,56.0184,0,114.6108,10,114.6108,10v126h-64.5629c-63.6021,0-83.4371,39.4667-83.4371,79.9573v96.0427h142l-22.7,148h-119.3v357.7778c244.769-38.4077,432-250.2238,432-505.7778Z" style="fill:#1877f2;"/><path d="M711.3,660l22.7-148h-142v-96.0427c0-40.4906,19.8351-79.9573,83.4371-79.9573h64.5629v-126s-58.5923-10-114.6108-10c-116.9507,0-193.3892,70.8798-193.3892,199.2v112.8h-130v148h130v357.7778c26.0672,4.0903,52.7842,6.2222,80,6.2222s53.9328-2.1319,80-6.2222v-357.7778h119.3Z" style="fill:#fff;"/></svg>