<?xml version="1.0" encoding="UTF-8"?><svg id="uuid-52e4b657-c989-4c15-9149-7bfc307d17ea" xmlns="http://www.w3.org/2000/svg" viewBox="0 0 370.35 200.66"><path d="M36.5,173.16c1.27-6.72,3.48-13.22,6.57-19.32,.76-1.33,.61-2.99-.38-4.15l-7.94-8.4c7.06-2.55,14.12-5.1,21.19-7.66,1.13,3.1,2.26,6.2,3.39,9.29,.59,4.38,1.17,8.76,1.76,13.13-2.96,6.25-5.93,12.49-8.89,18.74,.16,.87-11.68,17.56-11.62,18.16,.05,.95,.38,1.87,.96,2.63,.65,.45,1.33,.86,2.04,1.21l1.17,2.08-7.01,.23c-1.22-1.07-2.43-2.13-3.65-3.2,.49-2.34,.98-4.67,1.47-7.01,.31-5.25,.63-10.5,.94-15.74Z" style="fill:#efb085; fill-rule:evenodd;"/><path d="M43.34,197.81c1.13-.51-.4-1.4-1.68-2.25l-.15-.24,.42,.21,4.17,2.13c.73,.38,1.7,.66,1.92,1.56,.14,.6-.11,1.23-1.06,1.22-3.71-.16-7.43-.32-11.14-.49-.7,.02-1.34-.37-1.65-1-.16-.61-.23-1.24-.22-1.87,.02-.51,.09-1.01,.21-1.5,2.12,2.48,8.13,3,9.19,2.23Z" style="fill:#ce534e; fill-rule:evenodd;"/><path d="M42.79,176.66c1.71-7.97,5.01-15.51,9.69-22.18,1.05-1.86,.74-4.19-.76-5.71-3-3.01-7.35-5.79-9.01-9.04,5.74-2.03,9.53-4.59,15.27-6.62,1.13,3.1,4.2,6.72,5.33,9.82,1.59,3.26,2.34,6.87,2.17,10.49-.04,.68-.17,1.35-.37,2-2.22,6.99-7,15.11-10.91,21.28-5.17,8.17-9.22,15.38-9.64,16.27-.39,.81-.4,1.57,.96,2.63,.32,.25,2.4,1.28,3.04,1.71,.39,.69-.22,.88,.18,1.58l-7.01,.23c-2.35-.23-3.69-1.16-3.65-3.16,.02-.67,1.17-3.9,1.94-6.36,1.28-4.09,1.53-7.91,2.79-12.93Z" style="fill:#f9caa8; fill-rule:evenodd;"/><path d="M47.33,197.61c2.04-.09-.4-.98-1.68-1.83-.05-.08-.1-.16-.15-.24,.14,.07,.28,.14,.42,.21l4.17,2.13c.73,.38,1.7,.66,1.92,1.56,.14,.6-.11,1.23-1.06,1.22l-11.14-.49c-2.36-.1-1.94-3.87-1.68-4.54,2.12,2.48,5.36,1.92,9.21,1.98Z" style="fill:#ea6247; fill-rule:evenodd;"/><path d="M70.94,91.81c13.64,2.56,27.03,4.87,38.46,5.22,3.62,.11,7.06-.06,10.67-.25,0-1.41,0-2.82,0-4.22-.35,.87-1.12,1.09-2.14,.96-13.98-3.2-29.66-9.3-46.02-16.55-.32,4.95-.64,9.9-.96,14.84Z" style="fill:#efb085; fill-rule:evenodd;"/><path d="M83.31,81.66c6.11-.05,13.56-2.9,15.93-10.54,.46,.25,.91,.49,1.37,.74-1.85,6.21-7.29,9.37-12.56,11.91-4.77,2.31-12.15,.4-16.51-2.12-3.25-1.8-6.31-3.93-9.14-6.34l.95-4.28c5.75,5.71,12.53,10.69,19.96,10.63Z" style="fill:#463f4f; fill-rule:evenodd;"/><path d="M97.73,58.07l.76-2.64c.05-.19,.25-.29,.43-.24h0l.87,.25c.19,.05,.29,.25,.24,.43l-.76,2.64c-.05,.19-.25,.29-.43,.24h0l-.87-.25c-.19-.05-.29-.25-.24-.43h0Z" style="fill:#463f4f;"/><path d="M129.12,68.02l-28.48-7.13-3.13,10.89c9.31,3.03,18.61,6.06,27.91,9.1,.49,.13,1-.16,1.13-.65,0-.03,.01-.05,.02-.08,1.05-3.66,2.1-7.32,3.16-10.98,.2-.39,.04-.86-.35-1.06-.08-.04-.17-.07-.26-.08Z" style="fill:#544b5d; fill-rule:evenodd;"/><path d="M122.17,66.28l-12.57-3.15-3.31,11.51,12.32,4.02,3.56-12.38Zm-14.89-3.72l-3.26,11.35-6.51-2.12,3.13-10.89,6.64,1.66Z" style="fill:#463f4f; fill-rule:evenodd;"/><path d="M97.34,56.78l4.23,1.22c.9,.26,1.42,1.2,1.16,2.1l-3.69,12.82c-.26,.9-1.2,1.42-2.1,1.16l-4.23-1.22c-.9-.26-1.42-1.2-1.16-2.1l3.69-12.82c.26-.9,1.2-1.42,2.1-1.16Z" style="fill:#544b5d; fill-rule:evenodd;"/><path d="M91.77,66.36c.29-.98,.93-.49,1.06,.57,.06,.74,.12,1.48,.18,2.22,.16,1.91,1.58,3.62,3.38,1.88,2.75-2.67,2.07-2.52,3.67-5.59,.25-.49,.53-1.21,1.15-.5,.13-.23,.27-.43,.39-.61,.54-.74,1.22-.55,1.07,.59-.48,2.53-1.6,6.06-3.29,8.02-1.36,1.56-2.96,2.8-3.47,4.55-.23,.74-.37,1.49-.42,2.26-1.47-.53-2.85-1.03-4.32-1.56,.39-1.46,.53-2.98,.4-4.49-.07-.9-.2-1.79-.38-2.67-.09-.76-.06-1.53,.1-2.28,.16-.8,.31-1.6,.47-2.39Z" style="fill:#f9caa8; fill-rule:evenodd;"/><path d="M100.56,46.59l.73,.21h0l1.78,.51s.05,.01,.07,.02l2.05,.59c.14,.04,.27,.11,.39,.19,.2,.16,.22,.35,0,.6-.36,.41-2.21,.74-2.83,.9-.66,.19-.39,.88-.12,1.56,.13,.33,.16,.68,.09,1.03l-1.15,4c-.16,.54-.71,.85-1.25,.69l-2.52-.72c-.54-.16-.85-.72-.69-1.25l2.2-7.63c.16-.54,.71-.85,1.25-.69Z" style="fill:#544b5d; fill-rule:evenodd;"/><path d="M74.11,62.27c-.67,6.88,2.02,13.3,6.68,14.47,4.35,.24,9.02-5.14,9.69-12.02s-2.54-11.33-6.46-11.78c-4.83-.84-8.6,2.76-9.9,9.32Z" style="fill:#f9caa8;"/><path d="M101.74,70.4l1.91,.57c.4,.12,.63,.55,.51,.95l-.28,.91c-.12,.4-.55,.63-.95,.51h-.05c.01-.2,.03-.38,.04-.55,.16,.03,.31-.07,.35-.22l.23-.76c.05-.16-.04-.34-.21-.39l-1.53-.46c-.16-.05-.34,.04-.39,.21l-.23,.76c-.05,.16,.04,.34,.21,.39h.03c-.04,.18-.08,.35-.12,.52l-.25-.08c-.4-.12-.63-.55-.51-.95l.28-.91c.12-.4,.55-.63,.95-.51Z" style="fill:#83cad1; fill-rule:evenodd;"/><path d="M91.43,88.66c5.97-1.27,9.36-7.91,10.02-16.52l1.5,.51c-.46,6.99-1.81,13.55-6.42,17.32-4.18,3.42-11.82,2.86-16.64,1.05-3.6-1.28-7.06-2.93-10.33-4.92v-4.75c6.88,4.94,14.61,8.88,21.87,7.33Z" style="fill:#463f4f; fill-rule:evenodd;"/><path d="M119.86,93.07c.38-1.48,.84-2.94,1.38-4.37,.23-.55,.56-1.04,.98-1.47,.89-.97,2.02-1.94,2.93-2.78,.27-.26,.42-.28,.52-.07,.29,.58-.31,1.42-.52,1.85-.94,1.87-1.72,3.81-2.34,5.81-.03,.1-.11,.28-.04,.32,.18,.11,.98-1.23,1.49-2.04,.19-.32,.41-.62,.65-.89,.23-.22,.41-.18,.48,.32,.06,.43,.02,.86-.14,1.27-.23,.69-.59,1.21-.8,1.92-.5,1.73-.65,2.46-1.94,3.13-.57,.28-1.17,.49-1.8,.62l-2.32,.16c.14-.64,.27-1.28,.41-1.93,.35-.62,.71-1.24,1.06-1.86Z" style="fill:#efb085; fill-rule:evenodd;"/><path d="M27.91,97.22c7.58-11.7,17.73-23.26,32.04-25.36,8.58,1.99,15.54,13.86,11,19.95-2.83,3.79-5.86,4.67-11.52,4.48-3.71-.12-5.26,.2-6.89,1.91-4.13,4.32-3.8,8.32,1.25,12.62,4.59,3.91,11.53,4.85,17.8,7.64,5.24,2.33,8.07,7.62,4.06,14.52-3.49,6.01-10.33,7.5-17.35,6.75-7.2-.78-12.12,1.06-16.44,4.65-6.24,5.18-13.63,6.61-21.55,6.03-8.27-.6-15.26-3.01-18.49-8.69-4.96-8.73,1.06-13.51,7.96-16.47,4.68-2.01,8.51-4.3,9.85-9.04,2.14-7.55,4.03-12.42,8.28-18.97Z" style="fill:#efe5e5; fill-rule:evenodd;"/><path d="M27.91,97.22c1.4-2.17,2.89-4.33,4.48-6.42-1.45,2.19-2.68,4.51-3.68,6.94-1.05,2.56-2.95,7.38-1.86,9.92,.67,1.56,2.31,2.41,5.1,2.4,1.89-.17,3.79-.24,5.68-.18,3.02,.1,5.06,.31,7.61,2.08,2.99,2.07,2.8,8.46,1.85,11.79-2.02,7.09-4.34,8.9-9.2,11.9-4.92,2.03-10.2,3.05-15.52,3-9.8,1.78-4.99,11.85,1.72,11.87-1.25,.02-2.51-.02-3.79-.11-8.27-.6-15.26-3.01-18.49-8.69-4.96-8.73,1.06-13.51,7.96-16.47,4.68-2.01,8.51-4.3,9.85-9.04,2.14-7.55,4.03-12.42,8.28-18.97Zm44.05-13.09c.75,2.82,.55,5.59-1.01,7.67-2.83,3.79-5.86,4.67-11.52,4.48-3.71-.12-5.26,.2-6.89,1.91-2.97,3.11-3.64,6.05-1.89,9.06-1.65-2.87-2.09-6.29-1.21-9.49,1.03-4.13,3.26-7.86,6.41-10.72,1.33-1.18,2.83-2.16,4.44-2.92h11.67Z" style="fill:#e1d5d7; fill-rule:evenodd;"/><path d="M59.83,82.58c.3-3.95,4.39-7.29,9.34-5.03,2.25,1.02,3.43,2.63,5.06,4.42,3.32,3.65,7.08,7.9,10.15,10.61,.95,.84,1.79,.06,2.51-2.4,1.42-4.01,2.95-8.24,4.37-12.25,1.51-.02,2.99,.16,4.5,.13-.17,.8-.24,1.53-.34,2.28-.68,5.28-1.79,10.5-3.32,15.59-.44,1.44-1.06,3.88-1.95,5.06-.81,1.07-2.08,1.7-3.42,1.69-1.65-.06-3.28-.46-4.77-1.16-5.63-2.23-10.94-5.16-15.82-8.74-3.44-2.36-5.72-6.06-6.3-10.19Z" style="fill:#f9caa8; fill-rule:evenodd;"/><path d="M77.24,47.2c2.39-.69,4.93-.71,7.33-.05,2.43,.55,4.6,1.9,6.16,3.84,5.17,5.99-1.18,12.92-7.88,7.29,.58,11.64-.54,17.67-9.82,20.31-6.12,1.74-13.6-.5-17.32-4.82-3.23-4.02-7.39-7.19-12.12-9.24-4.36-1-8.86-1.2-13.29-.59-7.31,.77-9.58-4.79-8.71-7.7,.41-1.39,1.67-2.85,3.78-4.4,4.07-2.67,8.04-5.68,16.02-5.86,4.75-.11,9.44,1.52,14.17,5.7,2.15,1.78,4.79,2.85,7.56,3.08,5.7,1.13,7.45-2.75,11.08-5.68,.87-.84,1.91-1.48,3.04-1.88Z" style="fill:#ea6247; fill-rule:evenodd;"/><path d="M259.22,105.78c-.24-1.22-1.14-6.19,.86-6.82s4.65-.82,3.32,2.43c-.57,1.5-1.24,2.97-2,4.38,0,0-1.94,1.23-2.18,0h0Z" style="fill:#fab182; fill-rule:evenodd;"/><path d="M320.36,112.92c1.73-.83,3.14-1.82,4.29,1.84s4.04,10.31,2.19,11.27-4.27-3.68-4.27-3.68c0,0-3.95-8.6-2.21-9.44h0Z" style="fill:#f2b15d; fill-rule:evenodd;"/><path d="M317.25,113.56c1.31-.1,3.02-1.7,4.08,0,1.27,2.23,2.01,4.73,2.14,7.3,.22,2.02,.18,4.06-.12,6.07-.84,5.32-3.73,9-8.49,9.87-8.56,1.56-.16-23.04,2.38-23.24h0Z" style="fill:#ead5d8; fill-rule:evenodd;"/><path d="M301.89,2.19s-9.84-1.19-11.85,6.82c-2.01,8.01,2.81,10.68-2.41,16.89-5.22,6.21-3.06,14.88,2.41,16.63s27.35,9.3,31.66,8.95,12.68,.15,15.48-6.37,8.25-6.89,17.16-6.07,17.69-1.25,15.73-10.92-17.21-9.5-24.87-9.17-15.8-2.6-24.97-11.56-13.73-8.53-18.33-5.2Z" style="fill:#3d302f; fill-rule:evenodd;"/><path d="M264.28,96.35c-.94,1.83-2.37,4.84-4.45,4.6s-2.84-.86-3.33-1.99,1.88-3.12,2.96-3.27c2.88-.4,2.72-1.33,2.72-1.33,0,0,3.04,.17,2.1,2Z" style="fill:#fcc39f; fill-rule:evenodd;"/><path d="M298.71,189.91c.08-1.59,.22-3.91,.4-6.65,.46-7.16,1.15-17.16,1.42-24.36,.43-11.45-1.42-48.05-1.26-53.69,.04-1.51,1.51-3.4,2.48,0s4.91,32.41,12.89,31.72,4.12-22.83,4-25.97-2.55-30.91-12.42-34.92l-22.16,8.99c-.2,5.68,3.88,37.51,4.28,46.6s4.82,50.85,4.89,54.99c.05,.99-.03,1.99-.23,2.96,.98,5.08,3.41,3.34,5.71,.34h0Z" style="fill:#f6e6e7; fill-rule:evenodd;"/><path d="M354.49,72.64c1.28,.72,4.84,2.52,8.42,1.35s4.19-2.03,3.65-3.18-3.36-.5-4.96-.77-5.56,1.04-7.7,0-.7,1.87,.59,2.59h0Z" style="fill:#fcc39f; fill-rule:evenodd;"/><path d="M283.26,59.09l.03-.07s.81,9.31,.88,14.42-1.76,11.26-.88,12.6c1.67,2.57,7.77-2.48,12.18-2.99,5.67-.65,11.12-2.4,13.63-6.48,1.5-2.45-.6-1.58-4.26-4.9-3.59-3.26-2.85-4.69-1.41-6.88,4.18-6.36,4.48-8.69,5.68-12.09,.4-1.15,.68-.57,6.07,2.45s18.93,10.52,29.88,14.58c10.55,3.91,9.17,4.17,10.53,1.94s1.46-2.13-1.32-3.37-27.23-14.83-32.78-19.39c-4.95-4.08-9-7.88-13.56-9.71-1.2,1.48-3.97,3.06-10.26,2.07-6.75-1.06-8.76-3.8-9.33-5.7-2.49,.33-5.17,1.96-7.45,7.53-3.89,9.47-8.84,28.58-11.56,35.1s-5.99,13.49-7.22,15.3-.86,1.85,.7,2.81,1.68,1.33,3.1-.54,7.58-13.89,9.53-17.56c1.22-2.31,4.01-9.27,5.89-14.14,1.23-4.18,1.94-4.98,1.94-4.98h0Z" style="fill:#f2b15d; fill-rule:evenodd;"/><path d="M302.09,34.44c.1-1.57,.28-3.13,.55-4.68,0,0-4.87-2.1-5.5,0l-.79,2.74c1.36,1.73,3.61,2.49,5.74,1.95Z" style="fill:#fab182; fill-rule:evenodd;"/><path d="M296.34,32.49c-.91,3.2-1.09,3.53-3.23,3.35-1.58-.28-3.19-.37-4.79-.26,.56,1.9,2.58,4.64,9.33,5.7,6.3,.99,9.06-.59,10.26-2.07-.54-.22-1.09-.41-1.65-.57-3.39-.97-4.43-.71-4.21-3.85l.03-.34c-2.13,.55-4.39-.21-5.74-1.95h0Z" style="fill:#fcc39f; fill-rule:evenodd;"/><path d="M305.54,7.16c-4.25-.93-8.97,4.07-10.53,11.17s.63,13.62,4.88,14.55,8.97-4.07,10.53-11.17-.63-13.62-4.88-14.55Z" style="fill:#fcc39f; fill-rule:evenodd;"/><path d="M312.16,23.83s-6.58-3.79-3.07-7.99c0,0-7.1,.72-6.79-8.12,0,0-1.82,6.43-6.75,6.61s1.14-9.29,1.14-9.29l5.61-2.28,10.78,2.28,4.46,16.05-5.37,2.73h0Z" style="fill:#3d302f; fill-rule:evenodd;"/><path d="M293,189.57c-.4,1.94-1.5,2.92-3.85,4.32-3.32,1.97-7.86,4.27-1.51,4.44s8.71,0,10.06,0,1.02-.59,.95-6.54c0-.38,.02-1.02,.06-1.88-1.91,.18-3.84,.07-5.71-.34h0Z" style="fill:#f2b15d; fill-rule:evenodd;"/><path d="M200.93,102.81c-.53-.37-1.44,.49-4.58-1.56s-2.72-2.77-2.13-3.55,6.04,.41,7.58,3.85-.35,1.64-.87,1.27h0Z" style="fill:#fab182; fill-rule:evenodd;"/><path d="M235.91,195.17c-.07-.05-.11-.13-.11-.22,.11-.76,1.21-4.66,2.13-10.22s5.55-29.26,5.77-35.25-18.56-6.23-20.02-1.74-2.41,20.08-2.41,20.08c-2.1-1.45-5.92-2.5-9.03-4.59l-.04-.02c-2.6,1.37-3.93,2.94-1,4.79,.41-.09,.83,.1,1.04,.46,.64,.85,8.68,7.88,11.44,8.74s4.01-1.57,5.26-5.99c1.99-7.01,3.88-9.86,3.88-9.86,.07,3.13-1.5,25.81-1.97,33.49,.62,4.08,2.78,2.95,5.05,.33h0Z" style="fill:#81c7cd; fill-rule:evenodd;"/><path d="M230.86,194.83l-.16,2.44c-.05,1.89-.24,2.27,4.49,2.31s6.12,.55,6.12-.89c0-1.31-4.66-2.72-5.4-3.53-1.69,.24-3.41,.13-5.05-.33Z" style="fill:#554b5e; fill-rule:evenodd;"/><path d="M212.2,163.21c-3.09-2.03-5.21,2.16-5.98,6.39-.77,4.26,1.9,1.85,3.21,0,.71-1.01,1.29-1.51,1.77-1.61,.25-1.61,.59-3.21,1-4.79h0Z" style="fill:#554b5e; fill-rule:evenodd;"/><path d="M232.97,119.77c-5.67,.64-6.77,.7-7.46,0-1.18-1.19-10.41-9.18-13.71-11.72s-8.11-6.02-9.51-6.96c-1-.67-.86-.16-1.29,.74-.63,1.33-.68,1.24,.81,2.56s11.33,11.26,13.25,13.05,9.65,9.65,9.65,9.65c0,0-2.56,16-3.4,18.5s-.55,3.32,2.57,4.37,13.29,1.56,19.58,.7c1.76-.24,1.66,.02,1.57-3.06s-.7-16.09-3.56-22.69c0,0,6.5-.23,9.68-.8,2.97-.53,6.02-1.08,7.35-4.67,1.44-3.69,2.54-7.5,3.28-11.39,.52-2.74,.55-2.83-.87-3.03s-2.03-.67-2.41,1.41-2.49,10.01-4.49,11-8.95,.72-11.52,.85c-6.44,.34-5.45,1.03-9.5,1.49h0Z" style="fill:#554b5e; fill-rule:evenodd;"/><path d="M233.51,115.54c.44,.97,1.35,2.94,1.74,3.63,.26,.46,.37,.54,.15,1.04-.24,.53-1.07,.99-2.56,1.31-2.5,.54-2.52-.18-3.06-1.75-.74-2.17-1.21-3.71-1.21-3.71,0,0,4.5-1.49,4.93-.52h0Z" style="fill:#fab182; fill-rule:evenodd;"/><path d="M225.62,95.79s-4.52-2.04-6.62,1.02,.9,5.55-1.55,7.39-.06,5.72,1.55,7.58,5.41,7.15,11.5,5.12,8.72-3.04,7.93-9.42c-.44-3.55-2.38-6.08-2.92-9s-6.07-5.47-9.9-2.7Z" style="fill:#564827; fill-rule:evenodd;"/><path d="M225.99,97.69c-3.63,1.06-5.27,6.38-3.67,11.88s5.85,9.1,9.48,8.04,5.27-6.38,3.67-11.88-5.85-9.1-9.48-8.04h0Z" style="fill:#fcc39f; fill-rule:evenodd;"/><path d="M235.47,101.8s-5.62,2.72-8.54-2.86c0,0,.55,5.71-3.36,6.02,0,0,1.36,5.68-3.08,5.57s-.7-8.16-.7-8.16l2.52-5.57h6.58l6.59,4.99h0Z" style="fill:#564827; fill-rule:evenodd;"/><path d="M283.26,59.09c.01-.23-.02-.47-.09-.69-1.23-3.91-.47-8.18,2.03-11.43-4.09,2.67-4.41,8.28-3.78,10.98,.37,2.03,.34,4.1-.1,6.12l1.94-4.98h0Z" style="fill:#e79f4d; fill-rule:evenodd;"/></svg>