<?xml version="1.0" encoding="UTF-8"?><svg id="a" xmlns="http://www.w3.org/2000/svg" width="431.3731" height="94.6018" viewBox="0 0 431.3731 94.6018"><path d="M81.4534,27.173c-2.9463-11.8149-12.7832-17.6156-23.6171-20.2376,.7403-.3566,1.0826-1.5805,.1662-2.1867-17.9174-11.8516-38.758,.4215-50.327,15.5235-12.1449,15.8532-8.8675,35.6194,2.7726,50.6828,4.6658,6.0382,11.5159,10.9929,19.2208,12.0096,6.8815,.9074,13.3945-.9937,19.2619-4.3481,1.588-.3854,3.134-.8602,4.6122-1.4243,8.0725-.3174,15.891-2.6871,20.7476-8.8034,8.4799-10.6796,10.3812-28.3088,7.1628-41.2157ZM30.607,4.8545c8.6746-4.1167,17.8297-3.3731,25.8192,1.7584-.8999-.194-1.8044-.3669-2.7111-.5208-7.8259-2.6879-16.8218-2.7677-24.9435-.3151,.6098-.3146,1.2196-.6303,1.8355-.9225Zm22.173,3.4416c1.9506,.6965,3.8427,1.5447,5.6282,2.5833,2.7971,1.6272,5.0703,3.6075,6.9025,5.8455-10.0058-6.6519-23.194-8.0849-34.353-3.3567-3.8754,1.6421-7.3211,3.875-10.3005,6.5483-1.7512,.9138-3.4128,1.9831-4.9478,3.2206,.0227-.0957,.0417-.1934,.065-.2888C19.7482,6.5965,38.8801,6.1201,52.78,8.2961Zm20.8149,20.6031c4.3301,8.3776,2.9597,18.7653-1.7584,27.6549,2.8931-9.0422,3.2426-19.361,1.7584-27.6549Zm-3.3225,23.0787c-1.3531,6.2572-4.0055,12.2518-8.2726,16.8092-1.1821,.9903-2.4152,1.8985-3.6911,2.7127,1.7948-1.8414,3.3432-3.8687,4.5724-6.1386,.14-.1755,.2877-.3457,.4212-.5255,4.1927-5.6471,5.9769-12.5766,6.1019-19.5388,.118-6.5781-1.6639-13.7463-5.7819-18.9797-4.5662-5.8035-11.6056-8.4024-18.6802-9.7128-5.1381-.9518-10.5428-.8932-15.6539,.2199,.6757-.3588,1.3633-.7031,2.0696-1.0232,12.5-5.6655,26.9285-2.4777,36.9911,6.4122,.2282,.2016,.445,.4085,.6624,.6152,3.826,8.7698,3.3205,19.6246,1.261,29.1495Zm-3.6442-13.1997l-.0066,.0106c-.5642-2.0091-1.2965-3.9496-2.1775-5.7623-1.1573-2.3814-2.657-4.4851-4.4079-6.2944-.3942-.4557-.8232-.8789-1.3045-1.2488-3.128-2.7881-6.9068-4.73-10.9424-5.7039-.7847-.3681-1.593-.6896-2.4213-.968,5.1797,.9821,10.0041,3.042,13.7323,6.1732,4.0236,3.3796,6.4926,8.354,7.528,13.7935ZM32.4444,18.559c-2.5174,.8014-4.7728,2.1028-6.7665,3.7669-1.9617,.4501-3.9042,.9625-5.7352,1.7878-.0675,.0304-.1294,.0652-.1957,.0965,.8243-.9079,1.7122-1.7626,2.6367-2.5836,3.0959-1.5128,6.5173-2.5441,10.0608-3.0676Zm-8.3254,54.6274c.0152,.0314,.0345,.0605,.0491,.0921-.1585-.0904-.3215-.1775-.4756-.271,.1402,.0639,.2854,.1169,.4265,.1788ZM16.5525,15.373c-1.3218,1.9375-2.3798,4.1989-3.1072,6.833-.3466,1.2549-.6144,2.5414-.831,3.8465-1.6444,1.8071-3.0732,3.8574-4.2172,6.1687-.941,1.9014-1.6168,3.9018-2.0566,5.9505,.5885-8.5351,4.1153-16.8616,10.212-22.7988Zm21.2342,65.0257c-14.6541,3.0683-25.417-8.8824-31.5116-20.5952-5.3338-10.2509-5.1053-21.3118-.6784-31.0592-2.579,8.7123-2.1006,18.4733,1.2551,26.6915,1.9335,4.7353,4.8212,8.7703,8.3608,11.9863,.4871,.9252,1.0363,1.8237,1.6622,2.6866,5.0863,7.0132,14.2705,9.8933,23.4535,9.6496-.8494,.2471-1.6983,.4638-2.5418,.6403Zm42.0964-34.2995c-.9043,7.8775-3.3844,16.4568-8.8573,22.4039-2.8582,3.1064-6.8642,4.6445-11.0694,5.3874,.4256-.2904,.8411-.5881,1.2393-.8974,.9086-.7057,1.759-1.4809,2.5653-2.3046,13.9408-11.8178,20.3423-34.4769,7.8776-48.536-2.0049-4.7245-5.1325-8.514-8.9679-11.382,6.4916,2.477,12.0469,6.7023,15.1513,13.3453,3.1131,6.6614,2.8796,14.8535,2.061,21.9835Z" style="fill:#ffde20;"/><path d="M68.9087,39.1052c-.4181-4.9557-.8356-9.9443-4.1019-13.9565-2.0347-2.4994-4.8544-4.9259-7.9219-6.4927-8.8047-5.8494-22.3496-2.8158-31.8268,4.1221-6.3555,2.2529-10.4609,8.7086-11.3511,15.3088-.231,1.4929-.2871,2.9436-.1875,4.3457-1.1177,22.6949,32.6011,40.3713,49.2661,21.2769,2.2222-3.6353,3.584-7.1621,4.2188-10.5267,2.5312-4.7056,2.9806-9.5665,1.9042-14.0775Z" style="fill:#ff7e00;"/><g><path d="M195.8086,85.3147c-1.3389,1.1055-3.1729,1.5137-5.2402,1.5137h-2.4746v7.4238h-4.7168v-20.0889h7.1914c2.0674,0,3.9014,.4082,5.2402,1.5146,1.3398,1.1055,2.0967,2.6494,2.0967,4.8037s-.7568,3.6973-2.0967,4.833Zm-3.6387-6.959c-.583-.4072-1.252-.5527-2.2715-.5527h-1.834v5.3857h1.834c1.0195,0,1.6885-.1455,2.2715-.5527,.5527-.4082,.96-1.1357,.96-2.1543,0-1.0195-.4072-1.7178-.96-2.126Z" style="fill:#ff5100;"/><path d="M226.1485,94.2522h-4.7168v-8.4141h-8.0645v8.4141h-4.7168v-20.0889h4.7168v7.7734h8.0645v-7.7734h4.7168v20.0889Z" style="fill:#ff5100;"/><path d="M247.8994,94.6018c-5.9678,0-10.6553-3.8721-10.6553-10.3652s4.6875-10.3936,10.6553-10.3936,10.6553,3.9014,10.6553,10.3936-4.6865,10.3652-10.6553,10.3652Zm0-16.7402c-3.3477,0-5.8809,2.416-5.8809,6.2588s2.5332,6.2891,5.8809,6.2891,5.8809-2.4463,5.8809-6.2891c0-3.8135-2.5322-6.2588-5.8809-6.2588Z" style="fill:#ff5100;"/><path d="M281.7051,77.8899h-5.1816v16.3623h-4.7168v-16.3623h-5.1826v-3.7266h15.0811v3.7266Z" style="fill:#ff5100;"/><path d="M300.4278,94.6018c-5.9678,0-10.6553-3.8721-10.6553-10.3652s4.6875-10.3936,10.6553-10.3936,10.6562,3.9014,10.6562,10.3936-4.6875,10.3652-10.6562,10.3652Zm0-16.7402c-3.3477,0-5.8809,2.416-5.8809,6.2588s2.5332,6.2891,5.8809,6.2891,5.8809-2.4463,5.8809-6.2891c0-3.8135-2.5322-6.2588-5.8809-6.2588Z" style="fill:#ff5100;"/><path d="M353.1289,91.8645c-1.0186,1.0488-3.1445,2.7373-7.249,2.7373-5.9102,0-10.5391-3.9014-10.5391-10.3652,0-6.4922,4.6875-10.3643,10.5391-10.3643,4.1338,0,6.376,1.7178,6.8994,2.2715l-1.4551,3.9014c-.3789-.4951-2.5332-2.0967-5.1826-2.0967-3.4062,0-6.0264,2.2705-6.0264,6.2012s2.7363,6.1719,6.0264,6.1719c2.5039,0,4.3086-.9893,5.415-2.125l1.5723,3.668Z" style="fill:#ff5100;"/><path d="M381.8106,94.2522h-5.124l-1.4268-4.0469h-7.1621l-1.4268,4.0469h-4.8906l7.5693-20.1172h4.8906l7.5703,20.1172Zm-7.6279-7.7148l-2.5039-7.2207-2.5039,7.2207h5.0078Z" style="fill:#ff5100;"/><path d="M407.8701,94.2522h-5.4736l-4.2217-7.6855h-1.4844v7.6855h-4.7168v-20.0889h7.2207c2.2412,0,3.9883,.4658,5.2988,1.4268,1.3389,.9902,2.2119,2.5918,2.2119,4.6006,0,3.8135-2.4453,5.2979-3.9297,5.7637l5.0947,8.2979Zm-6.9297-15.9248c-.582-.4375-1.3389-.5244-2.416-.5244h-1.8633v5.1533h1.8633c1.0771,0,1.834-.1162,2.416-.5537,.6123-.4365,1.0195-.9893,1.0195-2.0381,0-1.0186-.4072-1.6006-1.0195-2.0371Z" style="fill:#ff5100;"/><path d="M431.252,77.8899h-5.1816v16.3623h-4.7168v-16.3623h-5.1826v-3.7266h15.0811v3.7266Z" style="fill:#ff5100;"/></g><g><path d="M195.5225,55.2756c3.833,0,7.5166-1.6543,7.5166-5.8633s-5.9385-5.6377-8.6445-6.5391c-2.5557-.8271-10.0723-2.5557-10.0723-9.9971,0-6.4639,5.6377-9.8467,11.3506-9.8467s9.0947,1.8789,11.5752,4.1338l-2.7061,3.3828c-2.4805-2.1045-5.7129-3.2324-8.8691-3.2324-3.6836,0-6.2393,1.7285-6.2393,5.0361,0,3.2324,3.6084,4.7354,7.5166,6.0137,3.5332,1.2021,11.3496,3.0059,11.3496,10.5977,0,6.7646-5.6367,10.749-12.9277,10.749-5.7881,0-10.4482-2.4805-13.0791-6.2393l2.9316-3.5322c3.3828,3.833,6.915,5.3369,10.2979,5.3369Z" style="fill:#ff7e00;"/><path d="M241.5205,23.6311V58.9583h-5.4121l-.0752-5.6377c-1.5781,3.7588-6.0879,6.2393-11.124,6.2393-10.0723,0-12.5527-6.1641-12.5527-14.582V23.6311h5.6377v20.9707c0,6.5391,2.1045,10.1475,8.6436,10.1475,6.3135,0,9.3955-5.4121,9.3955-11.5752V23.6311h5.4873Z" style="fill:#ff7e00;"/><path d="M278.124,37.6116v21.3467h-5.5625v-20.9707c0-6.54-2.1045-10.1475-8.6436-10.1475-6.3145,0-9.4717,5.1865-9.4717,11.2744v19.8438h-5.5615V23.7063h5.5615v5.7119h.2256c1.5791-3.7578,5.9385-6.3887,10.9746-6.3887,10.0723,0,12.4775,6.1631,12.4775,14.582Z" style="fill:#ff7e00;"/><path d="M295.2578,55.2756c3.833,0,7.5166-1.6543,7.5166-5.8633s-5.9385-5.6377-8.6445-6.5391c-2.5557-.8271-10.0723-2.5557-10.0723-9.9971,0-6.4639,5.6377-9.8467,11.3506-9.8467s9.0947,1.8789,11.5752,4.1338l-2.7061,3.3828c-2.4805-2.1045-5.7129-3.2324-8.8691-3.2324-3.6836,0-6.2393,1.7285-6.2393,5.0361,0,3.2324,3.6084,4.7354,7.5166,6.0137,3.5332,1.2021,11.3496,3.0059,11.3496,10.5977,0,6.7646-5.6367,10.749-12.9277,10.749-5.7881,0-10.4482-2.4805-13.0791-6.2393l2.9316-3.5322c3.3828,3.833,6.915,5.3369,10.2979,5.3369Z" style="fill:#ff7e00;"/><path d="M342.2334,37.6116v21.3467h-5.5615v-20.9707c0-6.54-2.1045-10.1475-8.6445-10.1475-6.3135,0-9.4707,5.1865-9.4707,11.2744v19.8438h-5.5615V7.095h5.5615V29.4182h.2256c1.5791-3.7578,5.9385-6.3887,10.9746-6.3887,10.0723,0,12.4766,6.1631,12.4766,14.582Z" style="fill:#ff7e00;"/><path d="M352.9053,15.4377c-2.3311,0-3.9844-1.6533-3.9844-3.833s1.6533-3.834,3.9844-3.834c2.2549,0,3.9082,1.6543,3.9082,3.834-.0752,2.1797-1.6533,3.833-3.9082,3.833Zm-2.7812,8.2686h5.5615V58.9583h-5.5615V23.7063Z" style="fill:#ff7e00;"/><path d="M392.8164,37.6116v21.3467h-5.5625v-20.9707c0-6.54-2.1045-10.1475-8.6436-10.1475-6.3145,0-9.4707,5.1865-9.4707,11.2744v19.8438h-5.5625V23.7063h5.5625v5.7119h.2246c1.5791-3.7578,5.9385-6.3887,10.9746-6.3887,10.0723,0,12.4775,6.1631,12.4775,14.582Z" style="fill:#ff7e00;"/><path d="M414.9873,59.7102c-10.373,0-17.3633-7.1406-17.3633-18.4912,0-9.9961,6.8398-18.1895,17.3633-18.1895,9.6963,0,16.3857,6.9902,16.3857,16.6865,0,1.2773-.2256,2.9316-.2256,2.9316h-27.8115c.0752,7.291,5.1113,12.4023,12.6279,12.4023,6.915,0,11.876-4.4355,11.876-4.4355l2.4053,3.3076c-3.2314,3.834-8.3428,5.7881-15.2578,5.7881Zm-.2256-32.0205c-7.0654-.0752-10.8994,5.2617-11.3506,10.749h22.3242c0-4.9609-3.2324-10.6738-10.9736-10.749Z" style="fill:#ff7e00;"/></g><g><path d="M139.5137,58.9583h-12.3359l-4.9883-20.918-4.9336,20.918h-12.3359l-10.459-37.0078h12.6035l4.5596,20.6494,4.5586-20.6494h12.0684l4.5586,20.6494,4.5586-20.6494h12.6045l-10.459,37.0078Z" style="fill:#241f20;"/><path d="M164.9942,47.427h-3.9697v11.5312h-12.1211V21.9504h16.0908c8.3662,0,14.4814,3.7539,14.4814,12.7646,0,8.957-6.168,12.7119-14.4814,12.7119Zm-2.0381-16.3584h-1.9844v7.2402h1.9844c2.5205,0,4.29-.751,4.29-3.5938,0-2.7891-1.8232-3.6465-4.29-3.6465Z" style="fill:#241f20;"/></g></svg>