<svg xmlns="http://www.w3.org/2000/svg" viewBox="0 0 710.9137 831.2413"><path d="M396.6554,629.8683H570.5328a0,0,0,0,1,0,0v34.5725a0,0,0,0,1,0,0H396.6553a8.2794,8.2794,0,0,1-8.2794-8.2794V638.1478A8.2795,8.2795,0,0,1,396.6554,629.8683Z" style="fill:#cd534d"/><path d="M658.2428,321.3371a37.8943,37.8943,0,0,1,36.4146,48.4288c-8.8387,30.5107-19.29,71.6971-24.9935,112.3358C658.5287,561.44,653.657,632.4271,653.657,632.4271H506.62s10.9908-110.3745,27.5135-191.9416c10.4877-51.7741,30.5814-85.8264,43.861-103.7948a37.8723,37.8723,0,0,1,30.4714-15.3536Z" style="fill:#cd534d"/><path d="M639.32,321.3371a37.8942,37.8942,0,0,1,36.4146,48.4288c-8.8386,30.5107-19.29,71.6971-24.9934,112.3358-11.1353,79.3384-16.0069,150.3254-16.0069,150.3254H487.6974s10.9908-110.3745,27.5135-191.9416c10.4876-51.7741,30.5814-85.8264,43.8609-103.7948a37.8725,37.8725,0,0,1,30.4715-15.3536Z" style="fill:#f16047"/><path d="M295.4763,475.8381H95.1433a9.2843,9.2843,0,0,1-9.2307-8.2871L68.8193,309.3484A9.2845,9.2845,0,0,1,78.05,299.0666H278.383a9.2844,9.2844,0,0,1,9.2307,8.2871L304.707,465.5563A9.2844,9.2844,0,0,1,295.4763,475.8381Z" style="fill:#453e4f"/><path d="M431.8459,418.77l-47.26,64.2014c-13.8624,2.0258-100.8994,24.5323-100.8994,24.5323l2.724,10.5837H404.7883s18.5769-1.5364,31.096-14.7594S475.9556,448.54,475.9556,448.54,462.8808,418.77,431.8459,418.77Z" style="fill:#f1b185"/><rect x="99.7778" width="151.2407" height="205.6874" rx="1.8002" style="fill:#c9e9f4"/><polygon points="155.537 202.046 175.398 266.096 194.468 205.687 155.537 202.046" style="fill:#c9e9f4"/><rect x="139.9757" y="35.3501" width="69.9727" height="68.3258" style="fill:#fff"/><rect x="159.2583" y="53.9914" width="31.4633" height="26.8521" style="fill:#c9e9f4"/><rect x="139.9757" y="47.6656" width="69.9727" height="1.6352" style="fill:#c9e9f4"/><rect x="139.9757" y="84.8025" width="69.9727" height="1.6352" style="fill:#c9e9f4"/><path d="M212.4051,173.0642H137.5189a20.203,20.203,0,0,1-20.203-20.203v0a20.203,20.203,0,0,1,20.203-20.203h74.8862a20.2031,20.2031,0,0,1,20.2031,20.203v0A20.2031,20.2031,0,0,1,212.4051,173.0642Z" style="fill:#a8dae7"/><polygon points="329.275 782.924 335.093 805.749 355.457 794.784 355.457 783.778 329.275 782.924" style="fill:#efe6e8"/><path d="M355.4569,794.7843s13.3652,13.6226,8.8536,16.1458-40.728,20.1966-40.728,20.1966-10.5416,1.2431-9.4462-4.4591,20.0437-16.9188,17.71-20.1753C332.133,802.3161,355.4569,794.7843,355.4569,794.7843Z" style="fill:#524a5c"/><polygon points="285.527 782.924 291.345 805.749 311.709 794.784 311.709 783.778 285.527 782.924" style="fill:#efe6e8"/><path d="M311.7089,794.7843s13.3652,13.6226,8.8536,16.1458-40.728,20.1966-40.728,20.1966-10.5416,1.2431-9.4462-4.4591,20.0436-16.9188,17.71-20.1753C288.385,802.3161,311.7089,794.7843,311.7089,794.7843Z" style="fill:#524a5c"/><path d="M457.6848,373.0357s-11.4775,7.4086-21.2247,28.6854-14.9461,26.9382-14.9461,26.9382l26.9868,11.8262Z" style="fill:#e0d5d9"/><path d="M538.2149,583.2958s12.81,41.6384-20.5436,49.6336S356.587,620.97,340.0123,629.1921c-3.0271,1.5016,1.437,11.181-7.3232,68.3825a762.2585,762.2585,0,0,1-20.2475,91.9136H284.0064S273.7535,620.68,296.7578,583.2958C320.6323,544.497,485.9427,569.0773,538.2149,583.2958Z" style="fill:#453e4f"/><path d="M586.5935,583.2958s12.81,41.6384-20.5436,49.6336S430.2993,620.97,413.7245,629.1921c-3.0271,1.5016-2.7311,31.6883-21.2524,78.32S360.82,789.4882,360.82,789.4882H325.9335S351.21,620.68,374.214,583.2958C398.0885,544.497,534.3213,569.0773,586.5935,583.2958Z" style="fill:#524a5c"/><path d="M538.3372,572.5043s-.339,21.7834-28.2339,36.4491-76.64,18.2531-76.64,18.2531l75.22,7.0705s49.145,5.3783,69.3245,0,15.4573-42.0279,8.5863-50.9812C576.6449,580.7212,538.3372,572.5043,538.3372,572.5043Z" style="fill:#453e4f"/><path d="M555.7469,278.2759c-8.8279,33.9116-34.45,62.0876-55.5325,56.4149s-29.6408-43.0459-20.8129-76.9575,31.6993-51.52,52.7815-45.8472S564.5748,244.3643,555.7469,278.2759Z" style="fill:#fccaa7"/><path d="M540.4257,238.3031s-3.1088,12.2152-1.5975,21.5317,5.9354,16.4158,3.99,23.2794-12.1057,21.8134-3.7365,27.2286,21.1672-3.81,24.8314-16.35,15.4691-36.1847,14.9139-50.76c-1.016-26.6748-21.2965-41.7114-42.88-45.5137s-31.5721-15.0007-46.302-9.4877-16.6025,11.8973-17.8707,20.8143c-2.3566,16.57,6.5174,23.5805.4391,34.1972s-18.6263,37.1671,3.9259,47.3742c1.2868-30.9185,5.6029-52.8939,19.3055-56S512.9512,248.6321,540.4257,238.3031Z" style="fill:#524a5c"/><path d="M586.5935,583.2958s22.928-135.1323,11.0968-185.0723c-9.5571-40.3414-119.3062-57.418-142.8483-21.5682s-4.0807,185.8656-4.0807,185.8656Z" style="fill:#efe6e8"/><path d="M501.25,331.77s.8339,16.5116,0,20.9852-8.1055,5.2225-8.1055,5.2225-17.2666,40.9743,9.6819,34.8536,41.8182-32.072,41.8182-32.072-7.2936-9.0279-7.7744-15.3635c-.7663-10.0977.1284-30.6035.1284-30.6035Z" style="fill:#fccaa7"/><path d="M501.3891,334.9684a20.9647,20.9647,0,0,0,15.9732-3.49c8.1126-5.5378,20.0849-22.5713,20.0849-22.5713l3.329,2.3091s-4.9808,7.2922-4.1639,31.7917c-9.274,11.0763-35.0833-3.7937-35.0833-3.7937Z" style="fill:#f1b185"/><rect x="8.3514" y="518.0876" width="702.5623" height="14.9885" style="fill:#d5e2f4"/><polygon points="20.878 533.076 0 831.241 8.351 831.241 36.537 533.076 20.878 533.076" style="fill:#d5e2f4"/><polygon points="685.707 533.076 706.586 831.241 698.234 831.241 670.048 533.076 685.707 533.076" style="fill:#d5e2f4"/><path d="M587.0874,448.54s10.8389-12.366,13.671-25.2434a120.7362,120.7362,0,0,1,0,25.2434l-38.403,69.5481H509.8111Z" style="fill:#e0d5d9"/><path d="M542.9777,418.77l17.6378-29.404s-65.8019,77.9465-72.9181,84.0361-43.4083,16.0031-43.4083,16.0031l.4506,6.4413,61.4177-7.4815Z" style="fill:#e0d5d9"/><path d="M542.9777,418.77l-47.26,64.2014c-13.8623,2.0258-136.0855,24.5323-136.0855,24.5323v10.5837H515.92s18.5769-1.5364,31.096-14.7594S587.0874,448.54,587.0874,448.54,574.0126,418.77,542.9777,418.77Z" style="fill:#fccaa7"/><path d="M501.3891,347.109a25.4763,25.4763,0,0,0,13.2937,3.11c7.6554-.348,23.6623-3.11,23.6623-3.11l9.7433,16.5071s-22.0964,37.7553-51.3264,34.1016-4.9959-37.7486-5.0456-38.6253S501.3891,347.109,501.3891,347.109Z" style="fill:#efe6e8"/><path d="M492.25,358.1351s11.2975,8.7867,11.9934,8.4388,7.6555-13.2231,7.6555-13.2231l3.3119,14.9629L547.1938,362.1l2.96.8072-36.5153,11.1478L510.855,360.31l-8.4027,12.2276L489.88,358.4822Z" style="fill:#e0d5d9"/><path d="M288.1688,475.8381H87.8358a9.2844,9.2844,0,0,1-9.2307-8.2871L61.5118,309.3484a9.2845,9.2845,0,0,1,9.2307-10.2818h200.333a9.2844,9.2844,0,0,1,9.2307,8.2871L297.4,465.5563A9.2844,9.2844,0,0,1,288.1688,475.8381Z" style="fill:#524a5c"/><polygon points="160.444 470.191 166.359 491.149 139.493 518.015 230.039 518.015 230.039 515.507 186.89 515.507 207.161 495.236 196.633 465.747 160.444 470.191" style="fill:#524a5c"/><path d="M359.6326,507.5039s-18.4156-11.8312-25.897-11.6572-37.4074,12.8751-33.0577,13.3971,36.0155.87,40.7131,2.0878,7.9491,6.756,18.2416,6.756S359.6326,507.5039,359.6326,507.5039Z" style="fill:#fccaa7"/><path d="M283.6869,507.5039s-18.4155-11.8312-25.897-11.6572-19.03,13.5972-14.68,14.1192,17.6379.1478,22.3356,1.3657,7.9491,6.756,18.2415,6.756S283.6869,507.5039,283.6869,507.5039Z" style="fill:#f1b185"/><rect x="236.8244" y="508.8088" width="100.4779" height="9.2788" style="fill:#524a5c"/><path d="M460.6828,629.8683H634.56a0,0,0,0,1,0,0v34.5725a0,0,0,0,1,0,0H460.6828a8.2795,8.2795,0,0,1-8.2795-8.2795V638.1478A8.2795,8.2795,0,0,1,460.6828,629.8683Z" style="fill:#f16047"/><path d="M653.657,632.4271v32.0137H634.56l.174-32.0137S647.1776,624.4236,653.657,632.4271Z" style="fill:#cd534d"/><rect x="509.355" y="664.4408" width="25.5762" height="135.8844" style="fill:#524a5c"/><path d="M459.0067,813.0128s23.272-16.6893,63.1364-16.6893v8.3446s-37.7342.3548-63.1364,13.6648C454.744,818.3329,455.1711,815.3811,459.0067,813.0128Z" style="fill:#524a5c"/><circle cx="457.4723" cy="822.8899" r="8.3514" style="fill:#524a5c"/><path d="M585.28,813.0128s-23.2721-16.6893-63.1364-16.6893v8.3446s37.7341.3548,63.1364,13.6648C589.5422,818.3329,589.1151,815.3811,585.28,813.0128Z" style="fill:#524a5c"/><circle cx="586.8139" cy="822.8899" r="8.3514" style="fill:#524a5c"/><path d="M159.57,165.0214v-2.8281a8.1553,8.1553,0,0,1-4.2841-1.232l.6723-1.8759a7.4647,7.4647,0,0,0,4.0318,1.2036c1.9882,0,3.332-1.148,3.332-2.7437,0-1.54-1.0918-2.4922-3.1641-3.332-2.8559-1.12-4.62-2.4082-4.62-4.8443,0-2.3237,1.6524-4.0878,4.228-4.5078v-2.8281h1.7364v2.7163a7.4644,7.4644,0,0,1,3.64.98l-.7,1.8477a6.77,6.77,0,0,0-3.5283-.9517c-2.1558,0-2.9678,1.2881-2.9678,2.4077,0,1.4561,1.0361,2.1841,3.4722,3.1919,2.8838,1.1763,4.34,2.6323,4.34,5.124a4.87,4.87,0,0,1-4.4238,4.76v2.9121Z" style="fill:#fff"/><path d="M173.9339,165.0214v-2.8281a8.156,8.156,0,0,1-4.2842-1.232l.6724-1.8759a7.4646,7.4646,0,0,0,4.0317,1.2036c1.9878,0,3.3321-1.148,3.3321-2.7437,0-1.54-1.0918-2.4922-3.1641-3.332-2.856-1.12-4.62-2.4082-4.62-4.8443,0-2.3237,1.6523-4.0878,4.228-4.5078v-2.8281h1.7363v2.7163a7.4649,7.4649,0,0,1,3.64.98l-.7,1.8477a6.77,6.77,0,0,0-3.5283-.9517c-2.1558,0-2.9678,1.2881-2.9678,2.4077,0,1.4561,1.0361,2.1841,3.4721,3.1919,2.8838,1.1763,4.34,2.6323,4.34,5.124a4.87,4.87,0,0,1-4.4238,4.76v2.9121Z" style="fill:#fff"/><path d="M188.2972,165.0214v-2.8281a8.156,8.156,0,0,1-4.2842-1.232l.6724-1.8759a7.4643,7.4643,0,0,0,4.0317,1.2036c1.9878,0,3.332-1.148,3.332-2.7437,0-1.54-1.0918-2.4922-3.164-3.332-2.856-1.12-4.62-2.4082-4.62-4.8443,0-2.3237,1.6523-4.0878,4.228-4.5078v-2.8281h1.7363v2.7163a7.4649,7.4649,0,0,1,3.64.98l-.7,1.8477a6.77,6.77,0,0,0-3.5284-.9517c-2.1557,0-2.9677,1.2881-2.9677,2.4077,0,1.4561,1.0361,2.1841,3.4721,3.1919,2.8838,1.1763,4.34,2.6323,4.34,5.124a4.87,4.87,0,0,1-4.4239,4.76v2.9121Z" style="fill:#fff"/><rect x="580.8288" y="462.917" width="24.9782" height="13.8912" style="fill:#524a5c"/><path d="M619.0859,471.1885h-5.8816a3.7191,3.7191,0,0,1-1.0052-.1424H578.884a7.2235,7.2235,0,0,1-1.4719.1424H545.8645a2.525,2.525,0,0,0-2.7587,2.76v40.703a2.5251,2.5251,0,0,0,2.7587,2.76h73.2216a2.5256,2.5256,0,0,0,2.76-2.76V473.948a2.5252,2.5252,0,0,0-2.76-2.76Z" style="fill:#453e4f"/><path d="M577.9089,442.64h30.8178a3.6718,3.6718,0,0,1,3.6717,3.6718v17.5643a3.6722,3.6722,0,0,1-3.6722,3.6722h-30.817a3.6722,3.6722,0,0,1-3.6721-3.6722h0V446.3115a3.6718,3.6718,0,0,1,3.6717-3.6718Z" style="fill:#453e4f"/><path d="M587.4155,446.3115H599.22a8.7809,8.7809,0,0,1,8.7809,8.781h0v.0024a8.7808,8.7808,0,0,1-8.7809,8.7809H587.4156a8.7808,8.7808,0,0,1-8.7809-8.7809v-.0025A8.781,8.781,0,0,1,587.4155,446.3115Z" style="fill:#e1d5d7"/><circle cx="593.3176" cy="494.2285" r="14.1638" style="fill:#e1d5d7"/><circle cx="593.3176" cy="494.2285" r="11.1589" style="fill:#524a5c"/></svg>