<svg xmlns="http://www.w3.org/2000/svg" viewBox="0 0 2515.1375 1408.02"><path d="M2515.1375,1408.02V726.4851a486.9482,486.9482,0,0,0-46.5949-24.5066c-234.7685-108.0317-384.9954,10.3236-620.9973,0-235.9922-10.314-534.8275,8.4228-725.6317,54.42C931.11,802.4058,791.6114,858.3621,713.652,910.8316S469.5,1091.7463,367.8594,1128.8756c-162.7654,59.4458-172.9375,114.4011-218.3681,163.9779C118.5291,1326.6316,10.486,1331.4491,0,1408.02Z" style="fill:#c3e8a3;fill-rule:evenodd"/><path d="M645.1323,1180.606s1.3823,13.1318,3.6861,17.02,9.2153,8.9561,9.2153,13.103-2.7645,3.9165-10.5976,3.9165H615.6434s-4.3774-1.3823-5.76-10.5976,7.833-23.4414,7.833-23.4414Z" style="fill:#573961"/><path d="M826.9042,1182.3339s-3.11,27.3-2.0734,29.7193,7.257,2.5918,21.7711,2.5918h45.7886s5.9747-1.5551,6.6158-6.9114-12.4906-7.2572-25.6224-10.7128-18.3154-16.4148-18.3154-16.4148Z" style="fill:#573961"/><path d="M762.2905,826.0716l-13.14,5.2865s-24.6439,132.81-43.942,212.9577-49.8921,140.61-49.8921,140.61H602.2811s33.1751-134.9855,42.16-186.3081,3.6181-206.814,22.8078-276.2984,130.5352,15.4671,130.5352,15.4671Z" style="fill:#8e8fa1"/><path d="M829.6688,751.1441s61.5122,182.09,68.4237,227.7881-27.646,205.9934-27.646,205.9934H819.9927s17.2788-159.5922,16.5876-179.9806-74.29-178.8734-74.29-178.8734l14.9457-91.0976Z" style="fill:#8e8fa1"/><path d="M989.7024,417.8715a13.7177,13.7177,0,0,1,0-7.8955c1.35-3.8013,20.7026-26.3786,24.1573-33.3479s4.4925-16.76,3.8013-16.76-22.4623,3.3064-22.4623,3.3064l-23.8445,26.7586s-8.8122,20.9071-8.4667,26.4364a47.7582,47.7582,0,0,0,2.9374,12.095Z" style="fill:#efa087"/><path d="M869.0642,464.0583s11.404,2.2139,40.7778,16.3122,68.4236,33.4505,70.8426,33.4505-20.0433-88.0061-20.0433-88.0061l34.5574-9.4457s30.065,84.6655,33.5207,105.7456-.3456,45.9613-33.8663,48.0348-109.5469-35.94-109.5469-35.94S865.5416,481.1662,869.0642,464.0583Z" style="fill:#eed5d6"/><path d="M887.2645,472.1217s19.3521-46.3068,20.0432-46.3068,32.9447,10.8983,32.9447,10.8983-18.6609,103.0259-29.2009,128.5983-41.9873,42.8512-41.9873,42.8512l-1.7279,7.6026s-7.9482,53.2184-11.0584,82.9378-5.5291,54.6007-5.5291,54.6007-43.48,5.5465-100.562,0S655.316,736.025,655.316,736.025s11.2845-87.2933,29.9242-162.3513,29.6981-108.7514,45.0761-122.7471,39.04-11.8137,39.04-11.8137l41.6514,15.4422,37.5875,5.702,20.4689,3.8012,11.5767,16.3122Z" style="fill:#feefec"/><path d="M800.2951,486.6644s22.6926,43.053,32.3687,52.7291,21.1952,5.5291,29.0282-6.22,25.5725-61.0515,25.5725-61.0515L883.348,470.97s-20.9649,46.0765-26.2637,55.9829-14.0533,7.1419-19.8128-.23-15.8965-28.337-15.8965-28.337Z" style="fill:#eed5d6"/><path d="M800.2951,451.2721s17.97,30.7561,35.2485,29.0283,14.5141-21.4257,14.5141-21.4257l5.1836-37.5119L806.17,418.7881Z" style="fill:#ffc4ad"/><path d="M802.5146,438.9994s20.8383,13.0471,50.6055-2.2862l.6266-4.5347-48.5132-8.2136Z" style="fill:#efa087"/><path d="M801.9625,420.8046s-10.5372,3.1672-20.4436-5.5873-5.2989-14.2838-12.9015-22.1168S749.726,375.5914,752.26,353.014s13.8229-29.7194,13.8229-29.7194,2.995-19.813,17.5091-25.3421,27.4155-1.6127,38.2435-2.5342,14.0533-14.3414,31.3321-8.2938,22.8409,24.31,15.1376,43.2594-18.5934,24.3-18.5934,24.3Z" style="fill:#b96b69"/><path d="M789.5823,402.5462S799.95,427.8883,824.6,434.8s40.8074-5.1416,45.6157-32.2536-16.4894-76.2929-16.4894-76.2929-4.7058,10.6338-26.5921,15.4719-29.489-2.3039-32.9447,1.1519-1.3824,16.9946,1.6126,28.8862S794.881,398.3993,789.5823,402.5462Z" style="fill:#ffc4ad"/><path d="M872.6413,335.3945l7.6137-26.4112,57.247,3.7643s-4.6418,5.9462-7.7981,7.2881-34.7242,2.958-34.7242,2.958l-4.1225,14.4654Z" style="fill:#392244"/><polygon points="1006.816 343.826 1026.172 345.169 1018.451 394.422 993.816 393.683 1006.497 344.813 1006.816 343.826" style="fill:#392244"/><polygon points="902.867 341.879 918.128 341.844 912.28 388.671 897.229 387.446 902.867 341.879" style="fill:#392244"/><path d="M912.2558,340.9136s-5.5514,47.5926-2.47,49.8579,17.6372,10.0479,17.6372,10.0479,73.352,2.2429,76.6145.5721,7.2577-17.9928,8.4256-32.8668-1.1129-29.59-6.974-31.481-60.8378-8.1909-66.63-8.2442S912.76,337.6285,912.2558,340.9136Z" style="fill:#573961"/><path d="M862.8969,333.5214s36.57,1.45,41.2377,3.8641-.0556,45.19-2.2309,51.9321-41.3391,2.6392-46.776-.2044,1.6311-46.134,2.2945-51.0037S862.8969,333.5214,862.8969,333.5214Z" style="fill:#573961"/><path d="M877.024,282.16c-.0873.5172-5.0177,27.0672-.5037,30.5208s61.6711,3.5577,67.8193.8209,8.85-28.5542,7.1685-32.9094-39.2965-.8775-50.77-.7668S877.623,278.6114,877.024,282.16Z" style="fill:#573961"/><path d="M1016.2789,344.8822a141.9054,141.9054,0,0,1,.79,29.0623c-1.2741,15.2029-2.54,19.878-2.54,19.878s4.19,7.6459,8.066,9.1385,22.7461,1.5291,25.6071-.2107-1.5094-9.2018.0963-12.6779,7.5471-6.885,8.6686-15.238-4.6039-8.99-5.5974-13.7887,8.2748-13.2666,1.661-19.7783-23.281-4.7479-27.39-4.0162S1016.2789,344.8822,1016.2789,344.8822Z" style="fill:#573961"/><path d="M877.2884,329.9947s-6.41,27.7454-4.4049,31.0967,33.979,3.29,33.979,3.29l-.2043-3.3058s-29.7323-.6967-31.4456-2.7019,5.0947-28.7328,5.0947-28.7328Z" style="fill:#392244"/><polygon points="976.294 332.734 969.761 401.67 974.372 401.896 980.98 333.316 976.294 332.734" style="fill:#fdc442"/><polygon points="955.217 330.302 947.055 401.351 950.916 401.444 959.531 330.775 955.217 330.302" style="fill:#392244"/><path d="M1030.2532,336.6922s3.2127,7.4413,1.9877,31.4959-5.214,35.5454-5.214,35.5454l3.8452.2464a170.9648,170.9648,0,0,0,4.4278-35.8942c.2487-19.528-2.39-31.5565-2.39-31.5565Z" style="fill:#392244"/><path d="M1000.1387,344.6373s-.2241,7.8224-1.239,15.47-7.412,1.5893-8.2253.3586.6621-14.4321.8285-16.0729S999.52,340.9276,1000.1387,344.6373Z" style="fill:#fdc442"/><path d="M911.3118,427.05s3.6274-10.22,5.528-14.8849,5.1837-15.2053,10.7128-20.2161,12.4407-7.6026,17.106-10.54,6.0475.5183,4.838,2.9374S937.92,391.43,936.8831,394.3676s4.6312,3.8014,13.0284,1.3823,23.2569-8.8121,29.1316-11.75,8.6394-.8639,6.0476,3.4557-18.1426,19.1794-28.8554,26.6092-16.0692,10.3673-19.1794,13.65a16.9321,16.9321,0,0,0-3.9787,6.58Z" style="fill:#ffc4ad"/><path d="M692.3608,717.3789l-6.6812-6.5807s4.3773-8.0634,6.6812-9.4458,62.6812-9.2152,69.93-5.99,10.013,38.9347,9.3219,43.7727-10.1369,16.3572-10.1369,16.3572Z" style="fill:#392244"/><path d="M690.0569,741.9s-5.76-29.2586-4.3773-31.1016,66.5807-7.6027,68.6541-5.2988,10.5976,46.5373,7.1418,49.993-35.0181,4.1469-35.0181,4.1469Z" style="fill:#573961"/><path d="M741.893,751.9215l-53.9095,100.562-54.6007-38.7043,70.1515-92.2682s15.0325-9.8489,29.3738.8639S743.8617,748.2492,741.893,751.9215Z" style="fill:#feefec"/><path d="M662.5262,840.1c-14.0315-10.0524-24.4422-22.1979-22.24-30.9007a9.8318,9.8318,0,0,0-6.9029,4.5795c-5.2988,8.7545,5.76,22.3472,21.1952,33.4055s30.383,10.9368,33.4055,5.2988a16.5885,16.5885,0,0,0,.2553-3.38C681.762,849.59,672.2422,847.0611,662.5262,840.1Z" style="fill:#573961"/><path d="M673.0086,822.5337c-13.1925-10.2242-25.0845-14.78-32.7229-13.334-2.2017,8.7028,8.209,20.8483,22.24,30.9007,9.716,6.9607,19.2358,9.4891,25.7126,9.003C688.1858,843.7246,686.2229,832.7748,673.0086,822.5337Z" style="fill:#392244"/><path d="M655.316,784.9312s11.7026-2.0233,28.7509,9.0351,19.2651,29.8864,19.2651,29.8864l3.2587-6.0789s1.2307-13.9011-18.3519-27.9544-29.9847-8.7527-29.9847-8.7527Z" style="fill:#573961"/><path d="M683.301,748.1232s10.3268-4.0347,25.1866,6.4476,14.7794,32.0955,14.7794,32.0955l3.8482-7.1785s-.5426-18.2358-15.0567-29.2942-25.7179-6.0682-25.7179-6.0682Z" style="fill:#573961"/><path d="M898.2959,402.715s-15.6676,37.8443-26.5965,65.49-27.5165,47.6892-54.01,33.6358-24.8814-39.8562-35.4789-50.9145-20.5041-11.75-20.5041-11.75,15.2053-2.3038,26.9548,7.6027,9.7753,25.342,23.1375,37.5523,28.04,14.6288,43.4431-3.9615c13.3622-16.1268,22.1167-51.6838,38.0131-77.6555C897.6317,396.5563,898.2959,402.715,898.2959,402.715Z" style="fill:#cb4252"/><path d="M733.5993,502.7626s29.0282,52.8728,62.5488,83.6289,72.9161,21.7712,72.9161,21.7712l-1.7279,7.6026s-44.579,11.4039-81.901-14.86S733.5993,502.7626,733.5993,502.7626Z" style="fill:#eed5d6"/><path d="M731.065,450.9266s-13.3621,28.5674-22.3471,77.6389-16.3571,172.7869-16.3571,172.7869l-6.6812,9.4458S681.7632,652.0506,697.314,558.4,731.065,450.9266,731.065,450.9266Z" style="fill:#fdc442"/><polygon points="783.571 573.674 762.29 695.363 768.175 707.456 792.182 582.627 783.571 573.674" style="fill:#fdc442"/><path d="M770.5746,754.8776a193.9151,193.9151,0,0,1-5.01,39.3767c-5.0108,21.5984-12.3227,35.4576-12.3227,35.4576l3.2444-1.3052a191.6566,191.6566,0,0,0,11.1518-34.9312,321.2428,321.2428,0,0,0,5.53-38.4548Z" style="fill:#7d7f93"/><path d="M762.2905,826.0716l51.0211-28.4192s-42.7348,30.18-40.1435,30.4105,20.1.9868,20.1.9868l-27.1939,5.2192Z" style="fill:#7d7f93"/><path d="M2090.38,948.8427c-24.14-9.1193-75.109-27.8533-95.9373-35.8717-26.1371-10.0593-40.2087-17.9862-40.2087-17.9862l-42.8144,23.1121,114.7278,40.3192,64.2326,26.0994s-4.0692-26.3928,0-35.6728Z" style="fill:#e9d5d8;fill-rule:evenodd"/><path d="M1949.9026,739.1839l7.6526-4.6874c42.0952-26.2948,49.0253-93.849,49.0253-93.849s-8.28-22.5443-19.2923-7.3119c-8.5293,11.8005-39.1489,43.3538-61.16,65.0874-25.0868,33.4964-10.5514,44.8142,23.7745,40.7609Z" style="fill:#35293e;fill-rule:evenodd"/><path d="M1926.1281,698.423c-6.3593,6.3844-11.9961,11.4693-16.1095,14.324-18.2511,12.6617-52.9366-9.16-76.5187-33.6319-23.5821-24.4748-5.0691,24.9543-5.0691,24.9543s31.2914,32.2345,54.9429,45.7479c22.1437,12.6459,30.9476,11.2327,66.5289-10.6334-8.51-9.8385-18.1912-23.7367-23.7745-40.7609Z" style="fill:#ffb182;fill-rule:evenodd"/><path d="M2090.38,948.8427c-4.063,9.2612-11.1855,24.4148-18.7907,35.6728.4164,5.35,3.022,11.4219,10.5609,16.5952,18.3048,12.5638,24.4906-16.4565,27.7458-30.4176s1.3439-13.7594-7.1857-17.2419l-12.33-4.6085Z" style="fill:#443d4f;fill-rule:evenodd"/><path d="M2079.2352,959.7631c-4.6811-1.552-10.3338-3.5487-17.03-6.3119-14.9707-6.1732-118.1787-32.0454-118.1787-32.0454,50.0032-3.5518,114.2073-3.2553,142.9089-12.4281,28.6986-9.173,31.9539-30.4746,30.1779-58.5831s-111.6743-56.9018-112.3809-30.2127-8.3686,20.5886-60.7059,38.2373c-52.3405,17.6487-74.8944,36.7044-75.2413,50.5585-.2934,11.74,3.0755,34.9568,35.1491,44.4735,41.3729,12.2768,134.0547,28.0928,148.6879,28.4366,8.7029.205,13.2452.6151,15.0242,2.7,10.6239-.4732,13.6679-13.3715,11.5892-24.8249Z" style="fill:#f6e6e8;fill-rule:evenodd"/><path d="M2079.2352,959.7631c-2.328,7.2172-6.6273,18.923-11.5892,24.8249,1.3376,1.3658,1.3533,3.5265.5836,6.9017-1.8989,8.334-8.1856,9.2392-15.6078,14.34-7.4192,5.1006-4.1166,9.9835,5.4,9.9173,28.4021-.1987,34.7013-20.434,39.8777-40.1552,2.596-9.889-2.2617-10.2991-18.6645-15.8286Z" style="fill:#53495c;fill-rule:evenodd"/><path d="M2031.6578,606.716c-12.5324,17.0807-36.9977,25.38-45.215,27.7111a90.025,90.025,0,0,1,2.12,34.0167c-3.99,34.6792,2.8736,128.6323-2.4006,150.9054-3.6085,15.2482,3.3185,7.1667,20.4563,14.15,17.1408,6.987,54.8861,28.5282,90.7576,28.3452s35.14,1.8074,33.5594-10.8574c-3.3341-26.7617-17.6645-108.4064-49.7761-173.2225-13.74-27.727-31.9853-52.1829-49.5015-71.049Z" style="fill:#443d4f;fill-rule:evenodd"/><path d="M2011.47,586.9726c-8.7187-7.6966-16.6455-13.4787-22.907-16.9926-22.3487-12.5355-36.2154,20.3236-23.0049,31.0108a46.8239,46.8239,0,0,1,6.11,5.9144c25.6736-1.5709,35.8621-11.3843,39.8019-19.9326Z" style="fill:#ffb182;fill-rule:evenodd"/><path d="M2011.47,586.9726c-7.99,6.2236-18.7022,15.7751-39.8019,19.9326a65.8359,65.8359,0,0,1,14.775,27.5219c8.2142-2.3342,32.651-10.6114,45.215-27.7111a266.4388,266.4388,0,0,0-20.1881-19.7434Z" style="fill:#fcc19d;fill-rule:evenodd"/><path d="M2007.8072,482.7318c-17.759-9.2623-45.8128,9.362-62.6108,41.5671-16.8009,32.2046-16.0208,65.8705,1.7383,75.1329s45.8129-9.362,62.6139-41.5663c16.7979-32.2052,16.0177-65.8712-1.7414-75.1337Z" style="fill:#fcc19d;fill-rule:evenodd"/><path d="M2034.4891,484.8617c-19.5307-19.9478-29.4714-1.2454-37.5439-8.466-8.075-7.2241-30.6783-16.8868-42.4017-.3165-8.3284,11.7677-5.5045,25.4,1.1727,29.9035,8.0276,5.4124,20.8428,5.5245,24.8,1.8574,0,0-2.9872,14.0651,18.2989,11.8158,0,0-18.6,12.6947-5.4871,35.9489,0,0-18.0939,14.5065-6.3371,28.1032,11.7561,13.6,25.9448,9.8439,34.5951-2.2327,8.6528-12.073,2.7161-23.675,8.7479-26.648,6.0284-2.9735,20.4533-7.2745,20.346-23.4762-.11-16.2025-8.7137-16.3511-7.4737-26.5968.73-6.0181-2.0647-13.0992-8.7169-19.8926Z" style="fill:#e95f46;fill-rule:evenodd"/><path d="M1640.6793,229.6135a3.0981,3.0981,0,0,0-2.0819,2.1008s.8421,6.252,1.0409,11.2579c1.1955,30.5091-9.2675,61.1351-24.7429,87.6664-10.7217,18.38-33.2661,27.3359-53.0566,30.5124-48.1011,7.7155-99.2116-4.3879-145.6692-14.8761-36.4361-8.0879-76.689.0978-106.0689,21.6609-14.1348,10.3779-25.7461,25.3361-28.667,42.9786-4.8925,29.528,13.3746,60.5292,35.635,79.4333,29.2442,24.8377,67.7307,35.386,105.41,41.1616,67.7718,10.3841,138.4709-.407,198.5049,30.181,6.438,3.2805,12.68,6.9428,18.7938,10.8258.369.24.369.24.735.4795,24.2319,16.16,37.0133,47.4135,43.524,75.5378,0,0-.1357.5425,1.2082,1.82l2.0061.35,1.6656-1.1735a17.1573,17.1573,0,0,0-.4291-5.2016c-7.3591-28.4241-19.6959-57.6052-43.06-74.4086-42.95-30.8908-101.8043-36.474-153.2932-37.9438-46.4165-1.4163-93.8521-5.5487-135.9915-23.9892-31.1872-13.6488-59.523-37.9124-68.3048-73.0838a55.1543,55.1543,0,0,1,5.5012-41.3c14.649-24.9824,43.928-37.47,71.4247-42.4641,20.3645-3.6968,41.1236-1.7663,61.5228,2.9464,49.4134,11.3493,101,22.49,149.4482,9.57,18.3583-4.8956,35.49-15.6458,45.3093-33.039,16.3807-29.011,27.5252-62.3368,23.2888-95.6817-.17-1.3374-.5142-3.2458-.5142-3.2458-1.287-3.0664-1.9462-2.0822-3.1385-2.0756Z" style="fill:#bee9f4"/><path d="M1709.82,642.8588c-16.3239,1.779-63.8,1.8262-75.0427,2.312-11.2452.4827-10.3337,14.3683,6.6842,16.5826,17.0148,2.2112,57.4917-5.6274,73.6641-7.3276,16.1725-1.7034,42.9784-1.6246,39.559-9.255-3.4193-7.6335-28.5439-4.0911-44.8646-2.312Z" style="fill:#bee9f4;fill-rule:evenodd"/><path d="M1781.2224,237.8937c-.571,26.0171-13.7184,85.0263-42.1015,108.4-33.5814,27.6574-52.4258,44.8963-67.3869,72.7649-2.593,4.8327-1.4542,6.2741,0,18.5383s2.3974,7.05,5.9713-1.3561c3.577-8.4064,16.674-39.3856,36.2437-57.006,19.573-17.62,45.4546-41.2373,54.5486-62.5921s20.0461-69.3524,14.7594-87.1019c-5.29-17.7466-1.4668-17.6644-2.0346,8.3528Z" style="fill:#f2b15b;fill-rule:evenodd"/><path d="M1541.1366,79.79c-7.1637,20.3488-25.38,59.29-70.7052,67.3048-58.1764,10.29-62.0467,21.2859-79.9572,43.71-2.94,3.6811-1.3407,9.04,2.1071,22.5852,2.53,9.9427,4.2111,7.6432,5.5611,0,1.9274-10.9079,20.024-42.7577,42.9595-48.9053,46.3441-12.4283,60.4694-18.5449,74.2-32.7047,13.7309-14.1568,22.74-32.9284,29.8182-57.9775,2.7255-9.6493-1.4383-1.2458-3.9839,5.9871Z" style="fill:#f2b15b;fill-rule:evenodd"/><path d="M1783.02,233.5911c-3.9965,15.264-14.384,53.6277-44.6,69.22-20.2731,10.46-40.868,16.0114-54.312,45.0635-2.7822,6.0184-5.4162,8.0655-5.4634-3.8421-.0316-7.4917-1.1451-6.8609,3.0723-11.7533,4.2206-4.8956,16.6078-21.4339,37.5119-29.4681,40.092-15.4122,47.2556-26.1308,63.7909-78.8786,17.3838-55.4475,3.9966-5.6018,0,9.6589Z" style="fill:#e95f46;fill-rule:evenodd"/><path d="M1522.8884,96.7543c-24.61,27.8973-48.7,15.9611-71.3581,4.7156-16.2735-8.075-24.4811-18.9733-46.7763-11.1128-4.6179,1.6277-7.192,1.243-1.3722-5.0657,3.6654-3.9682,2.6875-4.2553,7.6083-4.4919,4.9241-.24,19.6045-1.9055,40.54,11.9517,23.0175,15.2326,47.5584,22.2638,74.8439-7.46,31.2345-34.0263,14.9137-9.3969-3.4858,11.4629Z" style="fill:#e95f46;fill-rule:evenodd"/><path d="M1992.1461.1894,1992.4237,0s-388.7673,68.0493-454.8358,68.693c0,0,27.3989,49.8233,46.8582,76.1054,19.4594,26.2793,55.5391,106.0946,54.2207,125.0051l.35-.29c15.0337-28.8657,55.9522-44.06,80.6258-69.5508,90.193-93.1708,201.5362-175.1532,272.5034-199.7729Z" style="fill:#f2b15b;fill-rule:evenodd"/><path d="M1992.1461.1894c-70.9672,24.62-203.6591,94.1581-293.8522,187.329a350.2354,350.2354,0,0,0-59.277,81.9947c3.3688-2.9241,32.3671-24.8027,145.2211-30.3137,0,0,34.124-96.9212,92.2749-148.8894A1156.1477,1156.1477,0,0,1,1992.1461.1894Z" style="fill:#e95f46;fill-rule:evenodd"/><path d="M1846.7135,996.9468c.0632-10.0845.42-24.8849-.0724-37.3572-.6784-17.1661-28.3674-10.0468-28.3674-10.0468s5.514,27.134,8.4158,39.0166a9.1553,9.1553,0,0,1-.3785,5.9049c2.8644,14.8382,12.3842,10.9583,20.4025,2.4825Z" style="fill:#ffb182;fill-rule:evenodd"/><path d="M1826.311,994.4643c-2.2964,5.6306-9.69,8.1668-10.8036,8.6179-4.6212,1.8705-12.523,3.6432-12.4535,6.9963.0914,4.7,5.5107,3.0629,19.1,2.9461,24.5032-.2081,24.74.5806,24.4875-7.05l.0724-9.0279c-5.4318.776-13.7089,1.0631-20.4025-2.4825Z" style="fill:#443d4f;fill-rule:evenodd"/><path d="M1833.8185,765.7626c11.4535,36.5025,1.7475,34.5594,4.0755,58.4412,2.331,23.8818,10.097,119.0177,10.2926,128.5314.1924,9.5136-.65,5.4254-16.7054,6.8544s-18.8538,1.5362-20.3364-12.7122c-1.4825-14.2513-7.6336-200.2586-7.6336-200.2586s24.51.6749,30.3073,19.1438Z" style="fill:#e59e4b;fill-rule:evenodd"/><path d="M1800.8236,996.9468c.06-10.0845.4164-24.8849-.0756-37.3572-.675-17.1661-28.3641-10.0468-28.3641-10.0468s5.5107,27.134,8.4158,39.0166a9.1566,9.1566,0,0,1-.3785,5.9049c2.8642,14.8382,12.3809,10.9583,20.4024,2.4825Z" style="fill:#fcc19d;fill-rule:evenodd"/><path d="M1780.4212,994.4643c-2.2963,5.6306-9.6934,8.1668-10.8068,8.6179-4.6181,1.8705-12.52,3.6432-12.4535,6.9963.0945,4.7,5.5106,3.0629,19.1028,2.9461,24.5032-.2081,24.7367.5806,24.4843-7.05l.0756-9.0279c-5.4318.776-13.712,1.0631-20.4024-2.4825Z" style="fill:#53495c;fill-rule:evenodd"/><path d="M1821.1126,769.3145c11.4662,40.5715-6.2267,39.6189-6.52,72.5474s.35,101.388,0,110.0089c-.35,8.6177-1.5614,7.561-25.3011,7.7124-23.743.1516-21.3237,0-22.5318-11.646-1.2112-11.6427-11.1729-193.9214,0-188.3319,11.17,5.5864,47.8961-13.1442,54.353,9.7092Z" style="fill:#f2b15b;fill-rule:evenodd"/><path d="M1752.2116,689.2438c-7.3781-11.6491-15.34-26.61-19.2638-34.07-3.9271-7.46-10.7879-23.0143-23.1278-19.8-12.3431,3.2144-3.4447,11.11,0,16.4029,3.4414,5.29,16.8853,41.7481,16.8853,41.7481l16.1253,10.28s16.756-2.9115,9.381-14.5606Z" style="fill:#ffb182;fill-rule:evenodd"/><path d="M1799.4768,610.6684c-2.1609,6.2267-6.7945,11.8856-13.1979,22.38-10.7059,17.5446-18.1377,58.236-18.1377,58.236s-5.6147,59.4284-7.3466,72.4182-2.1637,10.5986,44.1487,10.5986c36.7328,0,32.7865-5.5422,32.3544-10.5986-2.8453-33.323-1.23-68.0462,0-105.3026.7319-22.1532-2.3815-32.5469-3.8231-45.1233-7.8007-8.8164-21.2605-10.35-33.9978-2.6086Z" style="fill:#6bbabe;fill-rule:evenodd"/><path d="M1832.891,594.9722a146.2017,146.2017,0,0,1,1.5331-14.7656c3.2711-21.79-36.2911.1072-33.9822,15.6834a34.9311,34.9311,0,0,1,.2682,9.8638c10.35-.0662,24.79-1.533,32.1809-10.7816Z" style="fill:#ffb182;fill-rule:evenodd"/><path d="M1832.891,594.9722c-7.3276,9.2392-21.79,10.7185-32.1809,10.7816a20.7817,20.7817,0,0,1-1.2333,4.9146c12.04,3.5486,25.62,3.3025,33.9978,2.6086a98.6679,98.6679,0,0,1-.5836-18.3048Z" style="fill:#fcc19d;fill-rule:evenodd"/><path d="M1853.21,507.37c-14.2631-11.3229-40.87-1.6-59.3779,21.71-18.5062,23.3067-21.9514,51.4232-7.69,62.7491s40.8674,1.5982,59.3764-21.7072c18.5063-23.3068,21.9528-51.4261,7.6912-62.752Z" style="fill:#fcc19d;fill-rule:evenodd"/><path d="M1777.1943,700.7384c-36.54,27.7269-46.8457,39.1363-58.8733,13.507-13.3587-28.465-13.34-51.99-13.34-51.99s-22.579-8.0845-19.9389-19.3961c2.6434-11.3086,15.1473-2.9273,21.9072,2.312,6.7566,5.2363,14.2168,17.9959,25.9983,46.6122.9589,2.3343,8.5736,1.7034,23.2731-12.9329,14.6961-14.6363,57.5136-5.8418,20.9734,21.8883Z" style="fill:#fcc19d;fill-rule:evenodd"/><path d="M1816.9742,636.1777c-12.586-13.2987-27.7238,3.3026-60.3939,38.4581-2.2648,2.4352-7.7943,9.5106,6.0818,21.7779,13.8761,12.2705,13.8761,14.6079,21.3268,8.4727s50.4889-50.2209,32.9853-68.7087Z" style="fill:#7fc6cc;fill-rule:evenodd"/><path d="M1895.0669,517.4054c-8.7418-22.4611-32.3368-9.6422-35.8538-17.5355-3.5157-7.8961-15.7721-17.3916-27.5484-13.4735-10.8563,3.6093-6.3533,12.3008-11.2458,14.2271-9.23,3.6289-13.1008,13.7413-4.7043,18.385s3.351,11.4851,11.9879,16.5133c8.64,5.03,12.6682,2.874,12.6682,2.874s-10.5534,7.1039-9.33,19.0759c.32,3.1375-10.7221,4.4477-13.0114,12.6753s-5.5023,24.0944,19.3235,28.4022c12.5266,2.1727,14.4495-10.8483,17.976-16.0411,3.5293-5.1915,26.5249,3.2391,32.6219-10.6056,6.0958-13.8421-3.2153-21.0892,3.7454-28.4648,6.9623-7.3785,8.0453-14.0227,3.37-26.0323Z" style="fill:#e95f46;fill-rule:evenodd"/><path d="M1952.5428,728.0427c-10.4,27.5693-16.3176,39.4832-16.3176,39.4832s-19.557,8.2172-85.9693-15.6741c-14.2166-5.1133-21.5539-16.7055-35.3226-21.32-13.772-4.6117-26.3422,1.6844-14.2137,15.5732,12.1286,13.8918,33.3543,14.3083,33.3543,14.3083s38.8241,26.2064,62.8447,38.0038c24.0206,11.7942,54.3026,25.0964,74.0679,0a395.4348,395.4348,0,0,0,26.2287-37.5749c-4.8642-19.28-8.9742-50.6088-44.6724-32.7991Z" style="fill:#fcc19d;fill-rule:evenodd"/><path d="M1997.2152,760.8418a361.4973,361.4973,0,0,0,22.4055-41.9152c11.343-25.2193,29.4334-65.2642,4.87-80.5125-24.5664-15.245-48.3252,26.5631-70.2574,85.2535l-1.6909,4.3751a121.351,121.351,0,0,0,44.6724,32.7991Z" style="fill:#53495c;fill-rule:evenodd"/></svg>