<svg xmlns="http://www.w3.org/2000/svg" viewBox="0 0 1000 235.9859"><path d="M688.9887,143.164c-43.5259,0-100.3327,13.0721-154.357,26.1436C480.6048,182.38,429.3627,195.4511,396.96,195.4511c-9.8755,0-18.0042-1.2149-23.9243-4.014-13.121-6.2065-33.4977-30.8516-56.7154-35.9938a109.9868,109.9868,0,0,0-22.2224-2.1385c-31.336,0-66.5134,11.1253-106.8571,22.25s-85.856,22.25-137.8685,22.25A357.2356,357.2356,0,0,1,0,194.3937v41.5922H1000V194.39c-35.008-15.2879-66.77-19.6946-97.0269-19.6939-20.5976,0-40.5009,2.0433-60.242,4.0862-19.7435,2.0431-39.33,4.0861-59.3074,4.0861a242.429,242.429,0,0,1-32.1787-2.0266c-21.4442-2.8609-17.8237-32.7755-36.9173-35.8563a160.11,160.11,0,0,0-25.339-1.8217" style="fill:#fff"/><path d="M640.6738,173.1593a72.5606,72.5606,0,0,1,6.5733-19.3246,3.6144,3.6144,0,0,0-.384-4.1511l-7.9357-8.3952q10.5934-3.8285,21.1866-7.6559,1.6945,4.647,3.3888,9.2936.8795,6.5673,1.7588,13.134-4.4439,9.3713-8.8878,18.7422c.1606.8663-11.6822,17.5577-11.6219,18.1589a4.7756,4.7756,0,0,0,.9583,2.6329,15.4059,15.4059,0,0,0,2.04,1.2058l1.1739,2.0827-7.0146.2251q-1.8242-1.5993-3.6482-3.1981.7341-3.5037,1.4684-7.0076Q640.2018,181.0308,640.6738,173.1593Z" style="fill:#efb085;fill-rule:evenodd"/><path d="M647.5167,197.8092c1.1271-.5089-.4008-1.3978-1.6835-2.251l-.1513-.2377.4215.2149,4.1708,2.1262c.7349.375,1.7037.6571,1.9165,1.5559.1411.5954-.1068,1.229-1.0648,1.2238q-5.57-.2429-11.14-.4853a1.7838,1.7838,0,0,1-1.6525-.9971,6.9972,6.9972,0,0,1-.2166-1.8735,7.1077,7.1077,0,0,1,.2133-1.5044C640.453,198.0625,646.4566,198.5776,647.5167,197.8092Z" style="fill:#ce534e;fill-rule:evenodd"/><path d="M646.9723,176.6571a60.8291,60.8291,0,0,1,9.6923-22.1776,4.7829,4.7829,0,0,0-.76-5.71c-3.0035-3.0134-7.3485-5.7862-9.01-9.0406,5.7366-2.0324,9.5349-4.5864,15.2717-6.6188,1.1294,3.0979,4.197,6.7179,5.3267,9.8155a21.5828,21.5828,0,0,1,2.17,10.4878,8.5028,8.5028,0,0,1-.37,2.0034c-2.2238,6.9935-6.9986,15.1065-10.907,21.2759-5.1733,8.1657-9.2152,15.3779-9.6442,16.2679-.3919.8125-.397,1.5728.9582,2.6329.3243.2535,2.4011,1.2828,3.0378,1.7119.3913.6942-.2154.8824.1762,1.5766l-7.0149.2251c-2.3475-.227-3.6924-1.1573-3.6489-3.1568.0184-.6667,1.1668-3.9046,1.9354-6.3619C645.4653,185.4974,645.7115,181.6778,646.9723,176.6571Z" style="fill:#f9caa8;fill-rule:evenodd"/><path d="M651.5068,197.6065c2.0427-.0933-.4015-.98-1.6845-1.8328-.05-.0793-.101-.1586-.1513-.2378q.2106.1071.4215.2149l4.1708,2.1263c.7349.375,1.7037.657,1.9165,1.5558.1411.5954-.1065,1.229-1.0648,1.2238l-11.14-.4853c-2.3583-.1031-1.9357-3.8657-1.6808-4.5444C644.4169,198.108,647.6532,197.5437,651.5068,197.6065Z" style="fill:#ea6247;fill-rule:evenodd"/><path d="M675.1188,91.8063c13.6434,2.5632,27.0318,4.8712,38.4646,5.224,3.62.1115,7.0637-.0629,10.6657-.2528q-.0045-2.1117-.0089-4.2237c-.3482.8657-1.1233,1.092-2.1359.9611-13.9768-3.1972-29.6635-9.3012-46.0244-16.5518Q675.5994,84.3846,675.1188,91.8063Z" style="fill:#efb085;fill-rule:evenodd"/><path d="M687.4868,81.6553c6.1088-.048,13.5621-2.8992,15.9295-10.5372q.6831.3678,1.3665.7355c-1.8476,6.21-7.2942,9.3665-12.5649,11.9148-4.7747,2.3087-12.1508.3987-16.51-2.12a55.7428,55.7428,0,0,1-9.1357-6.337l.9518-4.2833C673.2714,76.74,680.0577,81.7136,687.4868,81.6553Z" style="fill:#463f4f;fill-rule:evenodd"/><path d="M701.9106,58.0666l.7582-2.6384a.3493.3493,0,0,1,.4322-.2392h0l.87.25a.3493.3493,0,0,1,.2392.4322l-.7581,2.6382a.35.35,0,0,1-.4326.2395h0l-.87-.25a.3494.3494,0,0,1-.2393-.4324Z" style="fill:#463f4f"/><path d="M733.2978,68.02l-28.4836-7.1257-3.1311,10.8867q13.9577,4.5472,27.9148,9.095a.9246.9246,0,0,0,1.1318-.6548q.0109-.0409.0181-.0828,1.5781-5.4885,3.1571-10.9772a.79.79,0,0,0-.6071-1.1412Z" style="fill:#544b5d;fill-rule:evenodd"/><path d="M726.3427,66.28l-12.5735-3.1454L710.46,74.6405l12.3236,4.0152L726.3427,66.28Zm-14.89-3.7248L708.19,73.9008l-6.5068-2.12,3.1311-10.8867Z" style="fill:#463f4f;fill-rule:evenodd"/><path d="M701.5149,56.783l4.2262,1.2155a1.7044,1.7044,0,0,1,1.1635,2.1026l-3.6883,12.8231a1.7043,1.7043,0,0,1-2.1026,1.1631l-4.2263-1.2155a1.7043,1.7043,0,0,1-1.1634-2.1026l3.6881-12.8231A1.704,1.704,0,0,1,701.5149,56.783Z" style="fill:#544b5d;fill-rule:evenodd"/><path d="M695.9464,66.3562c.2865-.9825.9327-.4884,1.0621.57q.0907,1.11.1814,2.2207c.1566,1.9132,1.5828,3.616,3.3768,1.8751,2.7479-2.6665,2.0687-2.5217,3.6688-5.59.2529-.485.5318-1.21,1.1479-.5023.1314-.2275.2684-.4308.393-.6137.545-.7355,1.2158-.5517,1.0733.5918-.4765,2.53-1.596,6.0634-3.2938,8.0205-1.3551,1.562-2.9627,2.7965-3.4653,4.5549a9.817,9.817,0,0,0-.4182,2.2621c-1.4721-.5308-2.85-1.0272-4.3217-1.558a13.1347,13.1347,0,0,0,.4027-4.4934,21.3006,21.3006,0,0,0-.3772-2.6678,6.8994,6.8994,0,0,1,.1-2.2758Q695.7114,67.5524,695.9464,66.3562Z" style="fill:#f9caa8;fill-rule:evenodd"/><path d="M704.74,46.5928l.7276.2093.0048.0011,1.7838.513c.0231.0068.0457.0141.068.0223l2.0463.5915a1.3539,1.3539,0,0,1,.3948.1929c.1991.1552.2152.3506-.0064.5986-.3647.4083-2.2135.7387-2.8288.8985-.6638.1923-.3865.8774-.1193,1.5574a1.8437,1.8437,0,0,1,.0913,1.0287l-1.1491,3.9953a1.0144,1.0144,0,0,1-1.2515.6925l-2.5159-.7235a1.0145,1.0145,0,0,1-.6926-1.2518l2.1955-7.6332A1.014,1.014,0,0,1,704.74,46.5928Z" style="fill:#544b5d;fill-rule:evenodd"/><path d="M678.2914,62.2729c-.67,6.8778,2.02,13.3041,6.6773,14.4732,4.3461.2409,9.016-5.138,9.6862-12.0161s-2.5369-11.3285-6.4633-11.7777C683.3609,52.1142,679.5947,55.71,678.2914,62.2729Z" style="fill:#f9caa8"/><path d="M705.9171,70.4043l1.9058.5744a.765.765,0,0,1,.51.95l-.2752.9125a.7645.7645,0,0,1-.95.51l-.0459-.0137q.02-.2731.0424-.5409a.3137.3137,0,0,0,.3549-.2166l.23-.7636a.3134.3134,0,0,0-.2087-.3886l-1.5268-.46a.3132.3132,0,0,0-.3885.2083l-.23.7636a.3136.3136,0,0,0,.2085.3887l.0271.0082q-.0606.2547-.1174.5163l-.2516-.0761a.7642.7642,0,0,1-.51-.95l.2751-.9125A.7646.7646,0,0,1,705.9171,70.4043Z" style="fill:#83cad1;fill-rule:evenodd"/><path d="M695.6028,88.6629c5.9746-1.274,9.358-7.91,10.0151-16.5213l1.4988.51c-.4583,6.9859-1.8093,13.5454-6.4187,17.3157-4.1756,3.4156-11.8183,2.8568-16.6375,1.0455A55.9357,55.9357,0,0,1,673.73,86.09V81.3354C680.6051,86.2709,688.3364,90.2121,695.6028,88.6629Z" style="fill:#463f4f;fill-rule:evenodd"/><path d="M724.0389,93.075a40.97,40.97,0,0,1,1.3791-4.374,4.697,4.697,0,0,1,.9808-1.4652c.8907-.9731,2.0151-1.9433,2.9267-2.7767.27-.2634.4152-.283.5225-.07.2938.5819-.3064,1.42-.52,1.8492a39.26,39.26,0,0,0-2.3444,5.8114c-.03.0958-.1112.2776-.0366.3246.1812.1138.9787-1.2259,1.49-2.0392a5.18,5.18,0,0,1,.6549-.8943c.23-.22.4064-.1849.4826.3216a2.46,2.46,0,0,1-.1432,1.2672c-.23.6866-.5913,1.2051-.8,1.9211-.5029,1.7285-.6465,2.46-1.9356,3.13a7.4883,7.4883,0,0,1-1.7977.6208l-2.3243.1629q.203-.963.4063-1.9263Q723.51,94.0066,724.0389,93.075Z" style="fill:#efb085;fill-rule:evenodd"/><path d="M632.0829,97.2214c7.5792-11.7015,17.7322-23.2643,32.0359-25.3646,8.5831,1.9888,15.54,13.8623,11,19.9495-2.8266,3.79-5.857,4.669-11.5186,4.4791-3.712-.1249-5.2586.2032-6.8923,1.91-4.1315,4.3175-3.8024,8.3161,1.2515,12.6161,4.5942,3.9087,11.5283,4.8489,17.8,7.6381,5.24,2.33,8.07,7.6213,4.0615,14.5217-3.4883,6.0069-10.3267,7.5028-17.35,6.7457-7.2008-.7768-12.1168,1.0592-16.4414,4.6477-6.2393,5.1775-13.6335,6.6119-21.5452,6.0341-8.2734-.6041-15.2567-3.0079-18.487-8.6914-4.96-8.7259,1.0607-13.514,7.96-16.4724,4.6788-2.0064,8.5067-4.3012,9.85-9.0417C625.9465,108.6438,627.8408,103.7712,632.0829,97.2214Z" style="fill:#efe5e5;fill-rule:evenodd"/><path d="M632.0829,97.2214c1.4025-2.1652,2.8934-4.3257,4.482-6.4225a40.0055,40.0055,0,0,0-3.6774,6.9359c-1.0469,2.5568-2.9452,7.3816-1.8629,9.9206.667,1.5647,2.3071,2.4082,5.0958,2.4a46.8412,46.8412,0,0,1,5.6823-.18c3.02.1048,5.0636.3111,7.6146,2.0806,2.9858,2.0713,2.8,8.4555,1.8532,11.7909-2.0195,7.0851-4.3352,8.9015-9.2039,11.8985a39.8213,39.8213,0,0,1-15.5163,3.0029c-9.7959,1.7838-4.99,11.8513,1.7219,11.8657-1.2475.0191-2.5106-.0214-3.7876-.1147-8.2734-.6042-15.2567-3.0079-18.487-8.6914-4.96-8.7259,1.0607-13.514,7.96-16.4725,4.6788-2.0063,8.5067-4.3012,9.85-9.0417C625.9465,108.6438,627.8408,103.7712,632.0829,97.2214ZM676.1306,84.132c.75,2.8173.5456,5.5863-1.0118,7.6743-2.8266,3.79-5.857,4.6691-11.5186,4.4792-3.712-.1249-5.2586.2031-6.8923,1.91-2.9745,3.1088-3.6368,6.0519-1.8877,9.0615a12.43,12.43,0,0,1-1.2143-9.4881,21.4343,21.4343,0,0,1,6.41-10.7178,18.68,18.68,0,0,1,4.4438-2.9195Z" style="fill:#e1d5d7;fill-rule:evenodd"/><path d="M664.0055,82.58c.3039-3.9474,4.391-7.2866,9.3362-5.033,2.2489,1.0247,3.4323,2.63,5.0569,4.4175,3.32,3.6533,7.0775,7.9037,10.1495,10.6051.95.8356,1.7894.0611,2.5123-2.4,1.4218-4.0135,2.9519-8.239,4.3738-12.2523,1.5143-.0246,2.99.1574,4.5039.1326-.167.7955-.2426,1.5266-.3406,2.2779a96.84,96.84,0,0,1-3.3236,15.5932c-.4371,1.4429-1.0583,3.8775-1.9485,5.0649a4.2344,4.2344,0,0,1-3.4184,1.69,12.1975,12.1975,0,0,1-4.7721-1.1638,70.9829,70.9829,0,0,1-15.8245-8.741A14.8994,14.8994,0,0,1,664.0055,82.58Z" style="fill:#f9caa8;fill-rule:evenodd"/><path d="M681.4184,47.2039a13.5464,13.5464,0,0,1,7.3336-.0478,11.0039,11.0039,0,0,1,6.1644,3.8408c5.1737,5.9925-1.1821,12.9184-7.8751,7.29.5786,11.635-.5414,17.6736-9.8247,20.3092-6.1207,1.7376-13.6007-.4964-17.3177-4.8155a31.757,31.757,0,0,0-12.1229-9.2366,36.7927,36.7927,0,0,0-13.2911-.59c-7.314.765-9.5776-4.79-8.71-7.6994q.6207-2.0823,3.7783-4.3958c4.0744-2.6686,8.0364-5.6779,16.0209-5.8635,4.7493-.11,9.4435,1.5208,14.1653,5.6976a13.6048,13.6048,0,0,0,7.562,3.0755c5.6975,1.1279,7.453-2.7474,11.0757-5.6827A8.4611,8.4611,0,0,1,681.4184,47.2039Z" style="fill:#ea6247;fill-rule:evenodd"/><path d="M863.397,105.7833c-.2365-1.2246-1.14-6.1865.8583-6.8165s4.6477-.8237,3.3224,2.4341a36.826,36.826,0,0,1-2,4.3824s-1.9442,1.2254-2.18,0Z" style="fill:#fab182;fill-rule:evenodd"/><path d="M924.5384,112.9251c1.7341-.8325,3.1366-1.8239,4.287,1.8419s4.036,10.3081,2.194,11.272-4.2674-3.6775-4.2674-3.6775-3.9478-8.6049-2.2136-9.4364Z" style="fill:#f2b15d;fill-rule:evenodd"/><path d="M921.4237,113.562c1.31-.1,3.0176-1.6969,4.0823,0a16.4977,16.4977,0,0,1,2.1444,7.2961,24.16,24.16,0,0,1-.119,6.0708c-.8363,5.3241-3.735,9.0049-8.4914,9.8717-8.5553,1.5592-.16-23.0427,2.3837-23.2388Z" style="fill:#ead5d8;fill-rule:evenodd"/><path d="M906.0707,2.1856s-9.84-1.1931-11.85,6.8212,2.8082,10.68-2.41,16.8909-3.06,14.8779,2.41,16.6261,27.3541,9.3034,31.6578,8.9545,12.6753.15,15.4772-6.37,8.2545-6.8865,17.1594-6.0723,17.6877-1.2545,15.7332-10.924-17.2105-9.4955-24.87-9.1669S933.5769,16.3464,924.4051,7.39,910.6745-1.1424,906.0707,2.1856Z" style="fill:#3d302f;fill-rule:evenodd"/><path d="M868.4566,96.3515c-.9379,1.8271-2.3712,4.8439-4.4549,4.5966s-2.842-.8592-3.3286-1.9868,1.875-3.1208,2.9649-3.272c2.8782-.3993,2.7159-1.334,2.7159-1.334S869.3952,94.5248,868.4566,96.3515Z" style="fill:#fcc39f;fill-rule:evenodd"/><path d="M902.8886,189.9129c.0763-1.5885.2205-3.91.3977-6.65.463-7.1551,1.15-17.1577,1.423-24.3617.4339-11.4453-1.4159-48.0532-1.2625-53.6876.041-1.5113,1.51-3.3981,2.4758,0s4.9147,32.4136,12.89,31.7152,4.1218-22.8269,4-25.9744-2.5474-30.9089-12.4178-34.9243l-22.1591,8.993c-.2007,5.6825,3.8776,37.5063,4.2785,46.5987s4.8186,50.8465,4.8879,54.991a12.0491,12.0491,0,0,1-.226,2.9593c.98,5.08,3.41,3.335,5.7124.34Z" style="fill:#f6e6e7;fill-rule:evenodd"/><path d="M958.6671,72.6364c1.2836.7206,4.843,2.5231,8.4245,1.3513s4.1894-2.027,3.6492-3.176-3.3562-.4952-4.9556-.7663-5.5644,1.0364-7.7038,0-.6985,1.87.5859,2.5909Z" style="fill:#fcc39f;fill-rule:evenodd"/><path d="M887.4389,59.087l.026-.0654s.81,9.3144.8828,14.4165-1.7584,11.2587-.8828,12.6029c1.675,2.5711,7.7724-2.4837,12.1792-2.987,5.6708-.648,11.1217-2.3963,13.6283-6.4825,1.5026-2.449-.604-1.582-4.2642-4.9-3.5942-3.26-2.8523-4.6879-1.4128-6.8785,4.1777-6.3574,4.4816-8.6892,5.677-12.0935.4048-1.1513.6765-.5717,6.0716,2.4515S938.2711,65.669,949.2275,69.73c10.5453,3.91,9.17,4.1651,10.5271,1.9413s1.464-2.1294-1.3214-3.3673S931.2012,53.4731,925.6564,48.91c-4.9548-4.0776-9.0025-7.88-13.5613-9.7074-1.204,1.4814-3.9673,3.0557-10.2632,2.07-6.7473-1.056-8.7624-3.8012-9.3263-5.699-2.49.3284-5.1651,1.9569-7.4512,7.5283-3.8886,9.4727-8.8363,28.5819-11.5635,35.0983s-5.9927,13.4894-7.2165,15.2953-.8567,1.8474.7033,2.8106,1.6772,1.3338,3.1019-.541,7.5811-13.8889,9.53-17.5649c1.2238-2.3065,4.0052-9.2719,5.8919-14.1354,1.2325-4.18,1.9374-4.9776,1.9374-4.9776Z" style="fill:#f2b15d;fill-rule:evenodd"/><path d="M906.263,34.44a44.4793,44.4793,0,0,1,.5465-4.6848s-4.8651-2.1034-5.4974,0l-.7914,2.7357A5.5581,5.5581,0,0,0,906.263,34.44Z" style="fill:#fab182;fill-rule:evenodd"/><path d="M900.5206,32.4911c-.9142,3.2029-1.0867,3.5285-3.2287,3.3469a19.8748,19.8748,0,0,0-4.7864-.2646c.5639,1.8978,2.579,4.643,9.3262,5.699,6.296.9852,9.0593-.5888,10.2633-2.07a15.1466,15.1466,0,0,0-1.6489-.574c-3.3854-.9662-4.4265-.7079-4.2123-3.8484l.0291-.3394a5.5255,5.5255,0,0,1-5.7424-1.9491Z" style="fill:#fcc39f;fill-rule:evenodd"/><path d="M909.7138,7.1625c-4.2524-.9332-8.97,4.0705-10.5279,11.1672s.6292,13.6165,4.8816,14.55,8.97-4.07,10.5272-11.1665S913.9654,8.0964,909.7138,7.1625Z" style="fill:#fcc39f;fill-rule:evenodd"/><path d="M916.34,23.8256s-6.5786-3.7941-3.068-7.99c0,0-7.1039.7237-6.7937-8.1167,0,0-1.8245,6.43-6.7488,6.6117s1.1379-9.2883,1.1379-9.2883l5.6109-2.275,10.7751,2.275,4.46,16.0537L916.34,23.8255Z" style="fill:#3d302f;fill-rule:evenodd"/><path d="M897.1762,189.5726c-.4008,1.9357-1.4994,2.9247-3.8469,4.3194-3.32,1.9727-7.8568,4.2735-1.512,4.4382s8.7112,0,10.0594,0,1.019-.5914.9529-6.5416c-.004-.38.0173-1.0215.059-1.8757a18.4222,18.4222,0,0,1-5.7124-.34Z" style="fill:#f2b15d;fill-rule:evenodd"/><path d="M805.108,102.8082c-.5253-.37-1.4442.489-4.5848-1.564s-2.7223-2.77-2.1253-3.5469,6.0415.4064,7.5819,3.8452-.3466,1.6357-.8718,1.2655Z" style="fill:#fab182;fill-rule:evenodd"/><path d="M840.0867,195.1677a.2671.2671,0,0,1-.1095-.22c.11-.7615,1.2065-4.6642,2.1325-10.2176s5.5534-29.2646,5.7668-35.2455-18.5642-6.2322-20.0195-1.7435-2.4112,20.08-2.4112,20.08c-2.105-1.45-5.9188-2.5034-9.0294-4.59l-.041-.0227c-2.5994,1.3687-3.935,2.9373-1,4.7864a.9534.9534,0,0,1,1.041.4622c.6379.8512,8.6758,7.8835,11.4407,8.7356s4.0057-1.5726,5.2587-5.9889c1.99-7.01,3.8839-9.8553,3.8839-9.8553.0709,3.1262-1.497,25.8067-1.9663,33.4871.6229,4.0777,2.7758,2.9538,5.0533.3331Z" style="fill:#81c7cd;fill-rule:evenodd"/><path d="M835.0333,194.8346l-.1568,2.4389c-.0487,1.893-.2433,2.2718,4.49,2.312s6.1171.5481,6.1187-.8859c.0015-1.307-4.6627-2.7153-5.399-3.5319A12.3041,12.3041,0,0,1,835.0333,194.8346Z" style="fill:#554b5e;fill-rule:evenodd"/><path d="M816.3753,163.2076c-3.0893-2.0262-5.21,2.1553-5.9753,6.3944-.7687,4.2571,1.9033,1.8545,3.2081,0,.708-1.0072,1.2867-1.51,1.7672-1.608a48.3928,48.3928,0,0,1,1-4.7865Z" style="fill:#554b5e;fill-rule:evenodd"/><path d="M837.1453,119.7682c-5.6659.6355-6.7693.6954-7.4646,0-1.1843-1.1859-10.41-9.1844-13.7132-11.7248s-8.1142-6.0227-9.51-6.9567c-1.0024-.6717-.8609-.1622-1.2859.737-.6308,1.3348-.6843,1.2373.8087,2.5586s11.3281,11.2619,13.2526,13.0478,9.6483,9.6515,9.6483,9.6515-2.5594,15.9962-3.3964,18.5028-.5489,3.3184,2.5665,4.3715,13.29,1.5593,19.5753.697c1.7553-.2409,1.6569.0228,1.5655-3.0634s-.7033-16.09-3.5634-22.6914c0,0,6.5007-.2331,9.6782-.7953,2.97-.5261,6.0188-1.0812,7.3489-4.6667a64.3555,64.3555,0,0,0,3.2759-11.3925c.5221-2.7428.5513-2.8287-.8678-3.0271s-2.0341-.6749-2.4081,1.4143-2.4925,10.0145-4.49,11-8.9537.7181-11.52.8528c-6.4377.3387-5.4494,1.0309-9.5,1.4852Z" style="fill:#554b5e;fill-rule:evenodd"/><path d="M837.6879,115.5388c.4379.9655,1.3482,2.9412,1.738,3.6287.2607.4607.3741.5418.1481,1.0372-.24.5276-1.0726.993-2.5571,1.3112-2.5024.5353-2.5215-.182-3.0569-1.7475-.7427-2.1671-1.2057-3.709-1.2057-3.709s4.4957-1.4868,4.9336-.5206Z" style="fill:#fab182;fill-rule:evenodd"/><path d="M829.8,95.787s-4.5179-2.0357-6.6173,1.0229.8993,5.5533-1.5451,7.3929-.0575,5.7163,1.5451,7.5834,5.4053,7.1536,11.5012,5.1178,8.7175-3.038,7.9324-9.4174c-.4372-3.5515-2.3845-6.0762-2.9208-9.0041s-6.0708-5.4667-9.8955-2.6955Z" style="fill:#564827;fill-rule:evenodd"/><path d="M830.1674,97.6872c-3.6279,1.0591-5.2715,6.3825-3.6667,11.8808s5.8541,9.1017,9.4829,8.0425,5.2714-6.3825,3.6665-11.8808-5.8541-9.1017-9.4828-8.0425Z" style="fill:#fcc39f;fill-rule:evenodd"/><path d="M839.65,101.8026s-5.6219,2.7166-8.5387-2.857c0,0,.5505,5.7124-3.36,6.0171,0,0,1.3623,5.6817-3.08,5.5715s-.7048-8.1591-.7048-8.1591l2.5152-5.5652h6.58l6.588,4.9927Z" style="fill:#564827;fill-rule:evenodd"/><path d="M887.4389,59.087a1.9447,1.9447,0,0,0-.0929-.6883,12.5466,12.5466,0,0,1,2.0349-11.4272c-4.0861,2.67-4.4092,8.2772-3.7839,10.976a15.6269,15.6269,0,0,1-.0954,6.1171l1.9374-4.9776Z" style="fill:#e79f4d;fill-rule:evenodd"/></svg>