<svg fill="#222D39" xmlns="http://www.w3.org/2000/svg"  viewBox="0 0 30 30" width="14px" height="14px">    <path d="M 17 2 A 1 1 0 0 0 16.123047 2.5214844 L 8.1738281 15.433594 L 8.1738281 15.435547 A 1 1 0 0 0 8 16 A 1 1 0 0 0 9 17 L 14.5 17 L 13.019531 26.800781 A 1 1 0 0 0 13 27 A 1 1 0 0 0 14 28 A 1 1 0 0 0 14.882812 27.466797 L 14.884766 27.466797 L 22.806641 14.589844 L 22.796875 14.572266 C 22.915239 14.407976 23 14.217804 23 14 C 23 13.448 22.552 13 22 13 L 16.5 13 L 17.955078 3.2949219 A 1 1 0 0 0 18 3 A 1 1 0 0 0 17 2 z"/></svg>
