<svg xmlns="http://www.w3.org/2000/svg" viewBox="0 0 102.9901 103.3164"><path d="M414.4238,221.84c-22.2519-14.7187-48.1342.5235-62.5019,19.2789-15.083,19.6884-11.0127,44.2363,3.4433,62.9438,5.7945,7.499,14.3018,13.6523,23.8706,14.915,10.1827,1.3428,19.7207-2.2558,28.02-7.9736,7.2519-4.9971,13.0224-11.0937,15.625-19.6069,2.31-7.562,1.6836-15.8745-.2813-23.4273-3.7226-14.3047-14.6016-28.6513-30.248-30.0024-19.07-1.6465-29.7105,17.0762-31.7588,33.4546-1.042,8.3291-.0747,18.2173,4.7529,25.3242,4.6055,6.78,13.27,10.165,20.8364,12.2549,15.0816,4.167,37.6714,5.4746,48.47-8.1255,10.5313-13.2632,12.8926-35.1572,8.8956-51.1865-5.1485-20.6455-27.2354-26.5127-45.8809-27.3868-16.6895-.7827-33.6646,3.42-38.58,21.2183-2.6626,9.6406-1.8779,20.6729-2.0923,30.6-.2124,9.8545.3628,20.6338,6.3516,28.8916,11.6762,16.1,40.7412,14.6895,55.0429,3.5821,15.3213-11.9,18.751-38.1519,15.169-55.9981-6.5234-32.499-50.05-37.8335-72.1587-18.375-14.394,12.6685-17.5332,35.3467-10.501,52.5684,7.3579,18.0195,25.7886,27.9394,44.8169,25.1152,9.1719-1.36,19.626-5.8125,25.29-13.4414,5.207-7.0132,7.4228-15.6191,7.5781-24.2656.1465-8.1695-2.0664-17.0718-7.1807-23.5713-5.6709-7.2075-14.4131-10.4351-23.1992-12.0625-17.352-3.2144-37.1719,2.7983-45.3862,19.395-8.8892,17.96.7964,42.9478,20.415,48.5845,19.5064,5.6054,34.1362-13.5274,36.3081-30.6656.9824-7.7587-1.8779-15.2387-9.1255-18.7338-4.833-2.3311-9.9082-.7081-13.6279,2.812-8.6626,8.1977-9.8174,24.6118-1.8926,33.5312,5.2949,5.96,14.6,6.6714,22.0239,6.6192,8.77-.0621,15.6631-4.2911,17.78-13.03.89-3.6738.2539-7.5635-.1562-11.2593-.4629-4.1748-.9-8.6435-2.4942-12.561-3.1289-7.6905-11.8828-10.6265-19.52-9.8321A28.8084,28.8084,0,0,0,382.01,263.936c-3.54,5.3638-5.5362,13.68-2.8267,19.7505,2.8818,6.4571,11.6235,6.61,17.1548,4.0342a16.4634,16.4634,0,0,0,9.4414-18.9844,1.5037,1.5037,0,0,0-1.4453-1.101c-8.9317-.1158-15.6035,13.2841-8.9595,19.8188,8.95,8.8027,16.4282-8.77,15.7925-15.6519a1.5162,1.5162,0,0,0-2.2568-1.2954c-5.5772,3.8164-11.3995,23.1079-2.1641,25.8184,5.5469,1.6284,8.4844-5.1856,8.8926-9.3272.7-7.1079-1.7461-15.8422-5.3428-21.9526a1.4963,1.4963,0,0,0-1.6943-.6894c-6.2344,2.3061-30.1768,17.04-21.9952,25.84,6.4444,6.9316,15.1416-1.6968,19.5762-6.88,5.3975-6.3081,6.9229-16.0337,5.6035-24.0156-1.3818-8.3491-6.0595-17.7544-15.05-19.6929-5.0571-1.09-10.6958.9971-15.4721,2.3926-4.66,1.3613-9.6495,1.88-14.1075,3.89-7.6557,3.4507-9.7714,11.2393-10.7651,19.003-1.1885,9.289-1.0244,20.0058,2.8633,28.6938,3.8452,8.5933,10.4892,12.5855,19.7715,12.8511,8.6382.248,19.2275-2.22,25.7011-8.2417,5.7276-5.3271,6.3282-16.1147,6.2725-23.3105-.0586-7.7779-1.6191-17.2764-7.6055-22.8106-6.0322-5.5762-18.5639-4-25.3491-1.0986-8.3975,3.59-11.9267,11.2734-13.0693,19.9677-2.3394,17.8042,8.4843,39.0523,28.4677,38.6695,16.7476-.3223,25.4195-20.4356,23.0894-34.8623-2.873-17.7827-20.4717-29.8906-38.1958-27.2266-18.2065,2.7373-29.9873,20.9644-23.9346,38.6216,5.1817,15.1157,22.5723,25.3149,38.188,21.5239,16.4707-4,20.294-20.51,18.9151-35.1953-.8877-9.44-6.7364-27.37-19.0826-18.02-5.6914,4.311-6.7485,11.104-5.8579,17.89.6636,5.0567,4.4038,11.5166,10.46,8.5581,5.1543-2.518,3.8164-9.3945,1.352-13.3647-4.0244-6.4834-11.8613-6.4878-17.9091-3.0723-15.3316,8.6582-.691,29.4517,13.4277,27.107,8.3149-1.3809,10.5366-11.6695,11.4028-18.5894.7032-5.625.9473-16.5571-4.95-19.7-5.9848-3.19-16.2007.3555-21.1889,4.06-5.6123,4.169-8.7749,10.8018-9.5757,17.6246-.7393,6.2944,1.5522,13.3457,6.7676,17.1938,5.2436,3.87,12.7011,5.4951,18.1186,1.2666,9.2583-7.2271,11.2212-31.5557-3.1167-34.1216-12.7944-2.29-17.6948,17.84-10.7143,25.7686,9.1294,10.3691,22.8794-6.4375,18.7465-16.2036-2.1547-5.0928-8.9423-3.2-11.5669.53-3.1748,4.5127-3.38,12.7305,1.0337,16.6123,4.9893,4.3882,9.7149-5.1635,9.9742-8.9819.4707-6.9307-3.7193-13.813-9.543-17.38-12.9585-7.9355-17.4,18.1314-4.7207,22.7168,17.064,6.1709,22.6909-20.5234,13.9761-30.791-5.79-6.8218-15.8047-8.4663-24.05-5.73-8.0953,2.6865-14.1631,10.2471-17.3609,17.87-3.126,7.4506-5.4067,17.7749-1.8882,25.5092,3.4317,7.544,10.6861,12.1724,18.1133,15.1978a44.5173,44.5173,0,0,0,26.16,2.4267c8.1567-1.8515,14.2671-8.29,17.6821-15.6782,6.9639-15.0664,1.1856-34.7143-12.9394-43.3774-15.9483-9.7813-40.4463.4409-42.295,19.7646-1.4506,15.168,9.1079,24.4307,21.8907,30.1675,11.4267,5.1284,26.6269,8.2114,35.8691-2.2324,9.2549-10.46,8.47-26.6719,2.7031-38.5381-7.4453-15.32-26.209-21.5029-41.5136-14.4517a1.5087,1.5087,0,0,0,.7568,2.7954c8.5049-.7709,19.4219-1.3007,26.3428,4.5577,4.7422,4.0136,4.9609,11.6757,9.2636,16.3359a1.5123,1.5123,0,0,0,2.5059-.6616c2.1191-7.33-.0273-17.7315-8.38-19.8452a1.5231,1.5231,0,0,0-1.8447,1.0473c-4.84,15.2925,2.9394,31.12,3.9453,46.399a1.5076,1.5076,0,0,0,2.9473.3989c3.8125-11.251,5.4033-33.8887-8.3809-39.1782-1.81-.6944-2.585,2.207-.7988,2.8925,11.8213,4.5362,9.457,26.1343,6.2871,35.4878q1.4721.2,2.9453.399c-.9834-14.9454-8.7676-30.7051-4.0527-45.6011l-1.8457,1.0473c6.7226,1.7012,7.9394,10.4341,6.2851,16.1548q1.254-.3311,2.5078-.6616c-4.708-5.1006-4.5976-13.2178-10.5195-17.3774-7.666-5.3843-18.2651-5.2056-27.208-4.3951q.3786,1.3975.7568,2.7955c13.8028-6.3594,29.5049-.5669,36.86,12.3325,5.3486,9.3789,6.0517,21.7363,1.2783,31.4492-5.3223,10.8325-15.56,11.7944-26.1885,9.3022-9.7007-2.2753-20.57-7.5659-26.4062-15.9379-7.3887-10.5992-1.771-24.9683,8.2065-31.3345,9.855-6.2876,22.8237-4.71,31.2808,3.0293,14.1816,12.977,13.1113,42.4521-6.7959,49.4638-9.3374,3.2891-20.59.9766-29.2925-3.09-9.5645-4.47-15.1123-11.7-14.6455-22.4.4609-10.5527,5.9219-21.6845,14.939-27.4136,9.97-6.3334,24.625-2.3706,27.5878,9.5645,2.0772,8.3662-2.8325,24.3564-14.227,19.2534-8.2026-3.6738-6.3926-22.67,3.4419-16.6474,3.5684,2.1855,5.9844,6.3081,7.0688,10.2363a10.16,10.16,0,0,1-.4936,6.8066c-.8452,1.9107-2.9541,6.0928-5.0361,3.1138-2.1661-3.0981-1.8428-8.08-.0757-11.2212,2.3174-4.12,7.0517-3.68,7.101,1.0928.07,6.769-7.3427,16.8789-14.267,10.2583-5.2007-4.9727-2.05-16.11,3.2553-19.6909,3.522-2.3775,8.1343-.7154,10.3438,2.562,2.4975,3.7051,2.4736,8.9575,1.8784,13.1987a21.79,21.79,0,0,1-4.7207,11.1572c-3.3213,3.8594-8.3892,3.0908-12.6206,1.2466-7.9522-3.4663-9.5791-12.8433-7.521-20.418,2.6177-9.6328,10.7168-14.6147,20.1919-15.4575,5.2007-.4624,7.2475,1.0313,8.2666,6.1465a38.1985,38.1985,0,0,1-.2793,15.62c-1.062,4.9746-3.14,10.0073-8.4561,11.36-5.1274,1.3047-10.4824-2.2881-13.44-6.1533-2.7871-3.6421-3.59-8.3526-1.1235-12.3413,3.0258-4.8936,10.7773-6.8116,15.3579-3.231a9.6607,9.6607,0,0,1,3.4927,9.2158c-.4473,1.9639-2.5152,2.6353-4.3116,2.251-2.24-.4785-2.9917-3.7485-3.4033-5.5742-1.5225-6.75.9053-18.1123,9.728-18.0777,6.5313.0254,8.418,12.2251,9.0039,16.773.9415,7.332.7325,15.82-2.59,22.5684-4.2949,8.7236-15.1846,12.4648-24.2642,11.1064-20.6274-3.0879-32.8486-26.9038-20.604-44.4463,13.3028-19.0581,44.3243-10.564,51.4385,9.4512,6.7539,18.9975-8.9922,44.1611-30.2593,33.6406-10.1777-5.0347-14.11-17.4385-14.3911-28.0444a30.3443,30.3443,0,0,1,3.396-15.0674c2.8994-5.4385,8.4121-7.6152,14.169-8.7246,5.0664-.9761,12.562-.9859,16.5971,2.7451,3.5352,3.2676,4.752,8.7964,5.5362,13.3325,1.4746,8.5259,1.39,22.19-5.4873,28.5879-6.5157,6.0606-18.8985,7.6367-27.3033,6.3906-10.7724-1.5976-14.4091-12.9741-15.4707-22.3632-.9546-8.4459-.6552-18.55,3.03-26.3423,3.7217-7.87,15.4434-8.1978,22.7349-10.3218,5.9946-1.7461,11.91-2.9346,16.9927,1.5557,3.542,3.1284,5.4521,7.69,6.541,12.1792,2.1084,8.6923.1806,19.3833-6.5283,25.6186-2.7032,2.5122-11.2325,11.0732-13.6807,3.6523-1.0044-3.0454,3.2427-6.8881,5.0869-8.707,4.3262-4.2666,10.2617-8.9624,16.0537-11.105q-.8481-.3442-1.6943-.6894c3.2695,5.5552,9.74,23.7695.7656,26.7773-3.7656,1.2617-3.1543-6.9135-2.9814-8.7163.3584-3.7441,1.622-9.2558,4.9345-11.5224q-1.1279-.6483-2.2568-1.2955c.4658,5.043-3.165,17.7535-10.2363,13.8438-6.53-3.61.6943-15.085,6.4033-15.0107q-.7236-.5508-1.4473-1.1011a13.47,13.47,0,0,1-8.3032,15.6968c-4.9961,2.1-11.5689,1.3828-13.3145-4.48-2.749-9.2329,4.9371-19.2251,12.4141-23.4068,8.7993-4.9209,22.9439-4.519,26.2251,6.9375,2.3887,8.3418,4.9883,22.5376-3.3125,28.3531-7.0547,4.9419-21.9839,3.1938-28.4277-2.1548-5.72-4.7476-6.3374-13.1431-4.7915-19.8965,1.3017-5.687,5.1977-13.0606,11.7548-13.5606,11.0972-.8466,12.4175,13.26,10.6734,20.88-2.4326,10.62-9.0342,19.6821-19.4854,23.3272-12.9658,4.5215-24.9-4.6983-30.4653-15.7979a32.1771,32.1771,0,0,1,3.5171-34.24c12.4463-15.4951,41.4956-16.7525,56.416-4.2212,14.5254,12.2,12.8086,41.1123-1.8721,52.4155-19.3261,14.8809-47.28,8.4463-58.706-12.4546-10.2119-18.68-4.5777-44.6308,13.2905-56.3818,13.5874-8.936,32.4473-9.229,46.4282-1.0967,18.0489,10.5,18.69,32.75,14.7344,51.041-2.51,11.606-8.584,22.5181-19.623,27.7857-11.12,5.3076-26.2847,4.6894-37.0762-1.0137-11.3237-5.9853-12.915-18.9253-12.9912-30.4678-.0694-10.4863-.4878-22.2729,2.0083-32.4809,5.26-21.5127,31.9077-20.7681,49.2778-17.5005,11.7363,2.208,22.5527,7.8882,27.78,19.0747,3.8662,8.2729,3.5762,18.4468,2.56,27.3017-1.1231,9.7833-4.2032,20.438-11,27.8238-6.2989,6.8457-17.086,7.56-25.7793,7.5019-10.2823-.0683-21.1617-2.1836-30.1182-7.3965-9.0342-5.2583-11.4707-15.0517-11.42-24.92.0532-10.4082,3.6645-21.4629,11.1787-28.8525,6.7612-6.6494,17.4184-8.1074,25.915-4.2759,15.7764,7.1143,23.2725,28.6074,20.294,44.7232-2.6856,14.5351-17.5938,25.1142-31.3506,27.9931-18.1992,3.8106-31.5659-11.0312-39.1348-25.5776-9.1948-17.6714-5.0825-37.2818,7.8145-51.7759a70.8717,70.8717,0,0,1,22.4038-16.4663c10.9331-5.1885,22.4839-4.1724,32.5093,2.4595,1.6191,1.0708,3.1191-1.5288,1.5136-2.5909Z" transform="translate(-342.3894 -215.9423)" style="fill:#feef89"/><path d="M395.667,313.3018c33.2217,1.51,59.1465-47.6612,33.7275-71.8936a45.6647,45.6647,0,0,0-48.5581-8.8638c-16.6323,7.0474-27.122,22.6348-28.0029,40.5909-.0947,1.9345,2.9058,1.9252,3,0a42.9573,42.9573,0,0,1,25.5-37.5694c15.5239-7.0361,33.4429-3.0771,45.94,7.9634,24.7481,21.8652-1.8711,68.123-31.6064,66.7725-1.9351-.0879-1.9263,2.913,0,3Z" transform="translate(-342.3894 -215.9423)" style="fill:#feef89"/><path d="M419.4473,248.7363c-4.7022-11.7412-17.376-14.1689-28.7076-12.1186-12.5742,2.2749-25.71,10.6338-30.7832,22.7173-6.0112,14.3183,1.6348,31.2475,13.9122,39.7212,13.2055,9.1137,35.64,9.3872,45.7856-4.3536,6.041-8.1821,5.9951-20.3618,2.459-29.4658-3.542-9.1191-11.2129-15.4136-20.4287-18.16-8.7061-2.5947-17.9048-4.9707-27.0049-3.21-9.11,1.7632-14.5576,9.7456-16.4473,18.3315-3.7978,17.2569,12.1831,30.9258,27.8252,33.22,7.9321,1.163,16.752-.6866,23.0029-5.8892,4.8829-4.0625,6.754-11.5459,7.8116-17.502.8584-4.8344,2.3027-16.479-4.2432-18.5136-7.84-2.4375-12.3467,7.17-13.1606,13.22-.8228,6.1142,1.2329,16.9429,9.7973,15.0107,9.75-2.2,11.4981-16.3559,8.8477-24.3413q-1.254.73-2.5069,1.4595c8.795,7.5371,6.9893,29.7222-3.6962,34.977l2.2031.8965c-1.8565-8.5483-.0889-17.3882,1.334-25.8686h-2.8926c.7949,4.914,1.1152,10.4765-2.32,14.5088-3.04,3.5693-8.5078,4.21-12.8638,4.4638-7.7114.4493-27.729.36-25.5288-11.7783A14.9658,14.9658,0,0,1,382.3,264.3843a10.1757,10.1757,0,0,1,12.3618,6.4775c1.5078,4.33.2676,9.8106-4.8857,10.2031-4.1128.3135-8.2925-2.228-11.1094-4.9785A9.9358,9.9358,0,0,1,376.57,264.32c2.0659-3.8257,7.69-1.895,10.5532-.4092a15.9352,15.9352,0,0,1,7.6763,8.4156,7.0322,7.0322,0,0,1-5.7251,9.4677c-5.0093.6534-5.1977-3.1679-2.38-6.2968,3.4541-3.8365,9.354-7.315,13.7691-3.0435,2.59,2.5059,3.0249,7.4492-.8345,8.8691-4.0972,1.5079-10.3335-.1836-13.5942-2.8872-2.7212-2.2563-6.01-12.2959-.0249-13.0151,5.3139-.6392,10.4555,10.64,7.9824,14.8-2.5947,4.3647-10.3555,3.2192-14.2539,2.0229-5.5767-1.7114-10.1026-6.2343-8.5449-12.3774,2.5195-9.9355,12.3447-12.6963,19.663-6.0874,5.6768,5.1265,8.6646,16.2178-.4184,19.6431-11.7822,4.4433-26.49-19.0948-14.0435-25.877,6.4986-3.541,16.2642-1.9468,18.0659,5.95,1.6524,7.2432-3.9667,14.9063-11.2026,15.6914-4.0478.439-9.0151-1.2236-10.478-5.3252-1.2813-3.5937.814-7.7148,2.769-10.6186,3.6709-5.4527,12.4756-10.63,16.7188-3.2173,3.1553,5.5122,4.3637,13.8916,2.4487,19.9741-.8711,2.7661-4.1543,3.6729-6.0039,1.1484-1.69-2.3061-.5713-6.0473.248-8.4472,1.9527-5.7183,8.0254-13.2232,14.6861-9.647,3.6543,1.9619,5.8672,6.2588,6.667,10.1523.8017,3.9024.6191,11.6294-4.9795,11.0957q.7221.9493,1.4453,1.899a13.5757,13.5757,0,0,1,1.5664-4.3672c.3516-.6079,3.4258-4.1616,4.41-3.5069a11.5878,11.5878,0,0,1,3.8593,3.7969c1.0821,1.9536-2.748,2.6363-3.8916,2.7715-1.8857.2232-4.5849.2-6.1318-1.0874-2.0137-1.6772,4.6309-5.519,5.499-6.0439q-.91-.1181-1.8174-.2349c5.9668,6.853-3.7089,18.25-11.2168,18.4727-3.1674.0942-6.332-1.4332-8.8833-3.1631-1.0981-.7447-2.5708-2.0869-2.7451-3.4966-.2041-1.6538,5.5225-2.9248,3.4239,1.8193-2.1358,4.8286-8.6216,4.69-12.0074,1.6411-2.2632-2.0385-2.7563-5.1494-2.5884-8.0234.23-3.9336,3.9971-12.6929,9.1661-11.6685,1.1621.2305,3.9433,3.07,1.9653,3.7061-1.5606.5019-3.4292-.03-4.9229-.502-5.2334-1.6543-8.1088-6.4731-8.083-11.7822.0254-5.0869,4.5586-12.4121,10.1231-12.8994,2.1186-.1851,2.4643,2.7646,2.6186,4.1812.1314,1.207-3.4936,1.5654-4.2827,1.6689-4.126.541-8.6494-.894-9.394-5.4136q-.5237.923-1.0474,1.8452c3.7608-1.3671,5.626.7662,5.6436,4.4732a9.5914,9.5914,0,0,1-6.4361,9.0278c-3.4961,1.1621-11.7065.12-10.186-4.9834,1.2354-4.1479,5.9976-7.665,9.3579-10.0058,4.22-2.94,9.1807-4.96,13.5337-.896,2.3525,2.1967,3.16,5.8886,3.521,8.938a9.23,9.23,0,0,1-1.5234,5.3417q-3.5683.052-1.5455-3.0029a9.0119,9.0119,0,0,1,1.8941-2.4809c2.1533-2.29,5.3369-3.5445,8.3223-4.2329,3.6879-.8511,5.956,1.6254,7.853,4.3417a31.7031,31.7031,0,0,1,5.2607,15.233c.2139,2.5151.3213,7.6723-3.3027,5.3569-2.8916-1.8472-4.7437-5.64-5.7437-8.7793-1.1416-3.5845-.7749-7.3633,2.0122-10.05,3.8506-3.7109,6.7549,1.3271,8.1172,4.606,2.1416,5.1538,5.5352,17.6215-.4961,21.2475-6.43,3.8653-17.6289,2.0283-24.07-.8984-4.0737-1.8506-3.67-5.3428,1.1773-5.6489a13.39,13.39,0,0,1,6.2876,1.5117c2.3379,1.0991,3.1035,1.8672-.0762,1.9551-1.9307.0532-1.9356,3.0537,0,3,5.15-.1426,7.7832-3.45,2.8437-6.837-4.4423-3.0464-11.8964-4.1982-15.4726.58-3.3975,4.54,2.7949,7.7935,6.2915,9.085,6.72,2.4814,15.1763,3.0342,22.0439.9155,6.3477-1.958,7.2559-7.2773,6.9883-13.22-.2842-6.3418-1.8808-14.5044-6.7314-19.0283-4.1651-3.8853-9.9991-.0791-11.6988,4.4258-2.124,5.6279.1934,12.2905,3.8828,16.7524,2.4009,2.9048,7.03,6.3745,9.9185,2.105,3.8906-5.7481-.6562-16.5-3.3945-21.7456-1.5274-2.9268-4.08-6.687-7.4248-7.7173-4.2017-1.2944-8.9751.8262-12.4566,3.0845a11.7473,11.7473,0,0,0-5.6235,8.7671c-.1895,2.1123,1.3267,6.2539,4.2451,5.0839,7.5752-3.0366,6.1694-14.8413,1.7568-19.957-5.8144-6.7412-13.4365-3.7368-19.5278.7358-4.0488,2.9732-11.5224,9.3189-9.0586,15.2066,2.4385,5.8267,12.7227,5.4072,17.1065,2.5464,7.2348-4.7207,7.3955-21.9029-4.0874-17.7285a1.5484,1.5484,0,0,0-1.0474,1.8452c1.4316,8.6885,12.6055,9.0732,18.87,5.563a1.4906,1.4906,0,0,0,.7432-1.2954c-.1914-5.8008-3.042-10.2339-9.1738-7.5455-6.399,2.8057-9.9644,10.3394-9.5547,16.9859a14.554,14.554,0,0,0,9.5742,12.3906c2.9531,1.0889,8.8057,2.2056,10.062-1.88,1.32-4.2939-4.5527-7.57-8.0151-6.8349-5.5025,1.1679-9.1035,8.6406-9.6963,13.6294-.7119,5.99,2.457,13.4809,9.31,14.1171,7.2275.6719,14.1625-5.7314,10.623-12.9526a1.4489,1.4489,0,0,0-1.2954-.7432c-3.6543.4546-8.7788,1.8609-7.2544,6.6216,1.4458,4.5171,7.7026,7.0093,11.8555,7.8369,11.23,2.2383,24.0859-13.8281,15.7929-23.3525a1.4975,1.4975,0,0,0-1.8183-.2349c-2.9366,1.7779-8.209,4.8291-7.1895,9.0494.7559,3.1269,5.2813,3.7031,7.8633,3.7461,2.84.0473,6.6064-.6841,8.1094-3.3877,2.1758-3.9126-3.33-7.6729-5.9356-9.4078a1.5048,1.5048,0,0,0-1.5136,0c-4.294,2.3013-7.0821,5.3628-8.0235,10.23a1.5317,1.5317,0,0,0,1.4473,1.8989c14.1992,1.3541,8.56-27.5859-4.4629-28.23-6.0986-.3018-10.6465,4.61-13.3594,9.5537-2.1426,3.9038-4.3867,10.9516-.8418,14.7685a6.2633,6.2633,0,0,0,10.5552-1.6318c2.6567-5.6919,1.2139-13.4961-.6313-19.1958-1.75-5.4072-4.9488-9.8022-11.1172-9.2837-6.6241.5571-12.1685,6.6421-14.689,12.3628-6.6392,15.0708,13.9111,21.6484,22.9185,11.1182,3.7021-4.3282,5.2026-11.25,2.8681-16.5606-2.84-6.46-9.7671-8.0112-16.24-6.9179-14.41,2.434-13.5,16.7871-5.9863,26.1962,3.4453,4.314,8.8286,7.8091,14.5253,7.33,5.9537-.5,10.128-5.685,10.4751-11.4.79-13.0107-16.372-24.6513-26.4614-14.3867-3.8681,3.9356-6.5967,10.67-4.1264,15.9981,2.121,4.5757,6.7334,7.1865,11.4252,8.477,8.9288,2.4561,20.8633-1.5249,16.5982-12.7-1.6235-4.2539-5.7925-10.9775-11.209-10.3262-4.2573.5118-5.8955,5.3335-5.873,9.0259.0337,5.63,4.04,9.84,8.9809,11.8731,5.3018,2.1811,14.2588,2.6225,16.5186-3.8618,1.8408-5.2872-2.8907-11-7.8633-11.9922-5.854-1.168-15.2437,5.2114-15.8076,11.2973-.5088,5.4893,5.8813,6.6953,9.9931,5.4937,5.8379-1.7056,8.0494-8.6319,5.7476-13.8931-4.7183-10.7847-24.8926-17.6387-24.7705-.6138.0654,9.1387,17.9033,20.8174,24.06,10.8033,3.2657-5.312,1.5191-12.79-3.1049-16.6978-4.9659-4.1973-12.4883-3.3657-17.51.17-4.8687,3.4268-9.5264,12.378-6.418,18.21,3.5513,6.664,12.3477,7.8935,19.1392,8.3472,7.3237.4887,15.9941.9018,22.1846-3.7754,5.8232-4.3995,5.6455-12.3042,4.5957-18.79a1.509,1.509,0,0,0-2.8926,0c-1.5176,9.04-3.3115,18.3589-1.334,27.4644a1.5177,1.5177,0,0,0,2.2031.8965c12.3848-6.09,14.5215-30.9331,4.3037-39.689-1.0576-.9067-3.0156-.0742-2.5068,1.4595a23.3363,23.3363,0,0,1-.2139,13.7739c-1.4013,4.7563-7.8076,10.31-11.3984,4.35-3.6924-6.1289-.9736-18.0127,6.3213-20.0322,6.8887-1.9077,4.1,14.959,3.5068,17.6894-1.9092,8.79-5.77,14.7183-14.6123,17.5826-18.647,6.0395-42.6733-10.1861-37.1543-30.8,3.4619-12.9307,14.9888-15.7779,26.7935-13.87,11.0195,1.7818,22.0815,5.1289,28.521,14.8741,6.042,9.1445,6.1054,22.2749.08,31.42-5.2344,7.9424-16.0459,9.7109-24.7916,9.0263-16.9736-1.3305-32.35-16.2358-31.497-33.8349.6572-13.57,13.3393-23.3828,25.1948-27.419,10.5107-3.5781,25.7461-3.5063,30.584,8.5733.709,1.7724,3.6113,1,2.8926-.7979Z" transform="translate(-342.3894 -215.9423)" style="fill:#ffcd06"/><path d="M415.8867,248.2007c1.1895,5.0615,1.4776,10.2715,2.668,15.3335.4414,1.8828,3.334,1.084,2.8926-.7979-1.19-5.0615-1.4776-10.2715-2.668-15.3335-.4414-1.8828-3.334-1.084-2.8926.7979Z" transform="translate(-342.3894 -215.9423)" style="fill:#ffcd06"/><path d="M399.8872,278.07c-.6431,3.8262-.7212,7.313,2.689,9.6944a1.5029,1.5029,0,0,0,2.2031-.8965c1.0049-6.417-4.3174-8.4473-8.0742-3.1563-.8628,1.2158.8388,2.8946,2.0527,2.0528,3.6621-2.542,4.6387-5.5865,4.0762-9.962a1.539,1.539,0,0,0-1.8994-1.4462c-4,.67-6.09,1.1049-7.7139,5.0473-.46,1.1148.8491,2.0947,1.8452,1.8452,7.1548-1.792,7.7036-8.1552,1.9341-12.2514-2.0376-1.4468-5.32-2.3091-7.6294-.9878-3.6631,2.0967-3.8135,6.7138-3.5371,10.4595a1.4977,1.4977,0,0,0,.7427,1.2954c8.7881,3.853,11.3042-5.7715,7.206-12.09-3.4712-5.3511-16.7666-7.4805-17.05,1.4053-.1,3.1279,1.79,5.2851,4.732,6.1108,4.7221,1.3247,6.6264-3.0337,6.145-7.1723-.3667-3.1558-3.0562-4.877-5.9732-5.2149-4.0117-.4643-6.8169,3.1939-7.7485,6.6a1.5186,1.5186,0,0,0,1.0474,1.8452c6.4038,1.94,10.3579-2.1147,9.1787-8.5117a1.4524,1.4524,0,0,0-1.0474-1.0473c-6.4824-1.1851-15.2436.0454-18.3608,6.6889a1.5237,1.5237,0,0,0,.8965,2.2036c6.8061,1.813,13.3222-1.3589,13.8989-8.78a1.5287,1.5287,0,0,0-1.1011-1.4462c-5.125-2.14-9.3061-.0523-11.1787,5.0473-.51,1.3892,1.1392,2.1529,2.2031,1.6944,3.187-1.3736,4.1221-3.1031,5.356-6.23a1.4777,1.4777,0,0,0-.689-1.6944c-5.7051-2.6274-10.7085-.2534-12.87,5.5635a1.4573,1.4573,0,0,0,.3857,1.4595c5.7129,4.8921,13.337,1.7558,13.8941-5.7275a1.5032,1.5032,0,0,0-1.8989-1.4463c-19.8155,7.917,9.4843,36.206,14.5117,17.1787a1.5116,1.5116,0,0,0-1.4463-1.899c-10.3677.625-11.4395,13.1387-3.4238,18.129a1.5226,1.5226,0,0,0,1.8178-.2349c3.8086-3.3613,6.1094-8.6592,1.9937-12.7769-3.23-3.2314-7.11-.685-8.2886,2.8755-3.7124,11.2227,15.7217,17.2847,21.8628,8.9312.8457-1.1509-.541-2.45-1.6943-2.2036-6.34,1.3559-8.0191,6.8134-2.2,10.4316,6.7929,4.2236,11.4853-1.8013,11.4326-8.3184a1.4746,1.4746,0,0,0-.7432-1.2954c-6.1211-2.7168-13.0288-2.3247-16.7187,3.8711a1.5054,1.5054,0,0,0,0,1.5147c3.8315,6.3833,12.1094,5.0805,13.4082-2.3584a1.549,1.549,0,0,0-.6895-1.6944c-6.7851-4.1582-13.9839,1.1534-17.3857,7.2051a1.5,1.5,0,0,0,.2348,1.8179c5.188,4.3652,17.6988.8545,15.1744-7.4595-2.46-8.1-13.7686-7.6748-20.2964-5.8813-2.521.6924-6.4815,2.37-7.2637,5.2143-.8564,3.1143,5.0776,5.981,7.1768,6.8062,5.479,2.1533,14.2876-.0239,8.6635-6.8008a1.5188,1.5188,0,0,0-2.3559.3032c-2.877,3.8628-1.5987,8.2862,3.0967,9.8306,5.3681,1.7656,11.5708.541,14.8276-4.3159A1.5114,1.5114,0,0,0,404,295.6357a13.03,13.03,0,0,0-4.3984.72,1.5186,1.5186,0,0,0-.3584,2.7417c6.9873,5.06,13.1845-3.1539,12.9238-9.962a1.5248,1.5248,0,0,0-1.5-1.5l-1.9092-.4624q.27,1.0261.5381,2.0528c1.4619-2.3628,2.0547-4.8887,3.333-7.333q-1.2949-.7574-2.5908-1.5147c-1.2559,2.4077-2.8145,7.3135,1.0713,8.3823,3.7363,1.0279,5.0263-3.5493,5.0859-6.2675.085-3.8335-2.1973-8.9453-6.1094-10.24-4.4941-1.4878-7.6015,1.5806-9.3808,5.458a1.5216,1.5216,0,0,0,.5381,2.0528c5.7685,2.7832,10.999.0649,10.5888-6.66-.4668-7.6372-7.6728-10.7959-14.23-8.082a1.55,1.55,0,0,0-1.0474,1.8452c.7979,3.9575,2.3408,6.62,6.38,7.7143a1.5332,1.5332,0,0,0,1.8447-1.0473c2.6152-6.51,2.2051-15.648-5.7134-17.8452a1.5211,1.5211,0,0,0-1.6943.6889c-4.2666,6.8408,1.3755,12.4014,7.74,14.7661,2.3965.89,6.252,1.8614,7.9395-.5117,1.7031-2.3955,1.5049-6.0146.9687-8.7222-1.16-5.86-7.208-7.3471-11.3232-3.2563-4.62,4.5918,1.4971,10.8955,6.6025,9.75,3.2129-.7207,7.24-4.9551,5.6231-8.4258-1.6612-3.5678-6.6289-4.7739-10.1172-5.4033-5.9741-1.0776-19.1182.6436-11.1983,8.9546a1.5194,1.5194,0,0,0,2.5069-.6616q.6672-1.6671,1.3335-3.333a1.516,1.516,0,0,0-.689-1.6944,15.3989,15.3989,0,0,0-15.1562-2.1508,1.5526,1.5526,0,0,0-1.1011,1.4462c-.3057,6.1924,8.7578,15.5069,14.9233,11.2955,8.0547-5.502-3.36-14.5035-9.8222-12.7417a1.5528,1.5528,0,0,0-1.1011,1.4462c-.9287,6.9908,5.6465,11.0923,11.7676,12.1128a1.546,1.546,0,0,0,1.8452-1.0473c2.646-7.4717-8.6431-24.7661-14.9737-14.0987-3.0424,5.1275,12.3511,13.8716,11.8545,1.6158-.17-4.1963-3.4516-9.0459-8.1445-7.8858-5.4863,1.3565-.5713,8.0459,1.4082,9.9273,4.05,3.85,10.5444,5.9209,15.2266,2.0136a2.8562,2.8562,0,0,0,.6152-3.8227c-1.3057-1.7534-4.0044-1.2163-5.8315-.9282a1.51,1.51,0,0,0-1.0474,1.8452,11.4979,11.4979,0,0,0,4.3857,7.3286,1.52,1.52,0,0,0,2.5069-.6616c2.2558-9.0674-4.2969-13.5327-12.7095-11.0948-2.6094.7564-6.1147,2.4966-6.6753,5.458-.71,3.752,4.1651,5.31,6.8731,6.0171a1.5059,1.5059,0,0,0,1.8452-1.0473c2.6338-15.107-25.2935-4.9907-29.4087,2.1777a1.5164,1.5164,0,0,0,1.6943,2.2031,11.44,11.44,0,0,0,6.6616-3.0522,1.5094,1.5094,0,0,0-1.06-2.5606c-4.4741.2706-8.1646,2.8355-8.603,7.5122-.4492,4.794,4.91,5.5572,8.3354,4.7671q-.9228-.9221-1.8452-1.8452c-.41,1.981-.13,4.0615-.6665,6a1.5189,1.5189,0,0,0,1.8452,1.8452c2.88-.521,3.8062-1.01,5.563-3.3559a1.5014,1.5014,0,0,0-.8965-2.2031c-4.3618-.6734-14.0737-.3345-8.7363,6.2988,2.3784,2.9556,9.9531,7.7041,13.1728,3.5283,3.8038-4.9331-3.6074-18.4883-8.88-10.4712-2.8467,4.3272-3.1748,9.1416.5791,13.022,3.8222,3.9512,9.7094,2.1689,12.0947-2.1748a1.5087,1.5087,0,0,0-.5381-2.0523c-3.9521-1.86-16.0361-.3515-13.3784,6.3077,3.4106,8.5454,12.6167-.3487,12.1211-6.3457a1.5357,1.5357,0,0,0-1.8989-1.4463c-3.01.4414-5.9551,1.9546-5.2564,5.4384.752,3.7481,5.6441,6.4605,8.6939,7.9771,9.3759,4.66,21.0058,3.6562,24.4082-7.57a1.5033,1.5033,0,0,0-1.0479-1.8452c-3.5078-.6651-7.4346-.9175-10.7812.5966-2.2715,1.0279-6.584,4.1485-5.731,7.2486,1.6538,6.0127,11.7407,6.14,16.0464,4.1606,4.5527-2.0923,7.6172-11.5991,2.1367-14.4277-5.4844-2.83-12.7715,1.4292-15.3652,6.4448a1.5027,1.5027,0,0,0,.2348,1.8174c8.2984,6.6582,24.23-.3877,19.023-11.8174a1.4981,1.4981,0,0,0-2.0527-.5386c-5.5586,3.6963-7.2676,10.5415-3.2051,16.0523a1.5418,1.5418,0,0,0,2.0527.5386c5.0674-2.66,6.6328-7.8384,6.0762-13.2955-.0625-.603-.4063-1.35-1.1016-1.4462-7.3594-1.0235-13.3413,4.0844-13.8989,11.4462a1.5111,1.5111,0,0,0,1.5,1.5c13.7871.6788,12.1074-19.1772,1.1074-22.3891-4.6167-1.3482-12.1714,1.855-12.84,7.0058-.521,4.0137,5.061,5.7017,8.02,4.8633,5.8521-1.6587,3.7173-10.2749,1.59-13.8974-3.809-6.4883-15.0981-9.7945-21.94-7.4795-3.9717,1.3437-7.8447,11.5732-1.7817,12.3447,7.0815.9014,8.6841-8.2622,6.312-12.9795-3.6133-7.1865-13.5342-9.2476-17.7622-1.7251a1.5064,1.5064,0,0,0,.5381,2.0523c5.2627,2.3886,10.0967.1289,11.5371-5.563.2583-1.02-.7285-2.27-1.8452-1.8452-5.8872,2.2368-11.0469,7.2739-5.9,13.1826,3.63,4.1665,10.6347,4.0874,11.7451-2.0044a1.5278,1.5278,0,0,0-1.0474-1.8452c-4.9-1.293-10.0268-2.087-14.49.8178a1.5232,1.5232,0,0,0-.5381,2.0528c2.4106,4.1294,7.042,7.2895,10.4238,2.25,2.9155-4.3447-.292-9.6226-4.8926-10.6363-11.2348-2.475-12.7695,18.566-6.6294,24.023a1.513,1.513,0,0,0,2.356-.3032,29.7431,29.7431,0,0,1,2-4.667q-1.3711-.5779-2.7417-1.1558c-1.5273,4.4375-.1543,9.0733,4.9463,9.732,5.7617.7446,5.4092-6.0572,3.7954-9.4239a1.5181,1.5181,0,0,0-2.5908,0c-3.36,4.6768-4.7276,11.3443.9067,14.8872,5.146,3.2359,8.604-2.2607,8.5552-6.7964a1.5249,1.5249,0,0,0-1.8989-1.4462c-3.7452.6411-4.9615,1.5571-6.3809,5.0473-.3857.9478.5679,1.8638,1.4463,1.8989,3.479.1392,4.1191.4175,6.394-2.4394a1.5212,1.5212,0,0,0-.6616-2.5068c-6.9331-1.9039-12.3555,3.7207-8.3608,10.2031.7168,1.1626,2.9946.8125,2.7954-.7569-1.0479-8.2622-6.9634-14.9477-7.3335-23.3334a1.5124,1.5124,0,0,0-2.7954-.7574c-7.3877,10.2681,3.0029,19.8135,11.4184,25.0259,10.85,6.72,24.0284,6.4072,33.1807-2.6763,8.7344-8.667,9.93-20.7666,2.5273-30.5639-7.1259-9.4322-19.6113-14.6206-31.1645-15.1949v3a62.9391,62.9391,0,0,1,26.5767,5.7955q.3779-1.3983.7568-2.7955a12.8724,12.8724,0,0,1-4.2676-.6127q-.2007,1.4728-.3994,2.9462c8.01-.3813,12.5234,7.7779,14.6367,14.3985,1.7071,5.3437,3.26,15.4311-2.7265,18.8061q1.1279.6483,2.2568,1.2954c.124-5.84,1.292-11.5507,2-17.3335h-3c.6484,4.9039,1.9209,10.2232-1.1289,14.5762-1.1123,1.5889,1.4892,3.086,2.5908,1.5147,3.3994-4.854,2.2676-10.5728,1.5381-16.0909a1.501,1.501,0,0,0-3,0c-.708,5.792-1.875,11.4839-2,17.3335a1.514,1.514,0,0,0,2.2568,1.2955c7.4512-4.2012,6.084-15.3467,4.1055-22.1944-2.293-7.9433-8.2627-17.042-17.5293-16.6011a1.507,1.507,0,0,0-.3984,2.9463,15.1339,15.1339,0,0,0,5.0654.72c1.4248.0137,2.14-2.1337.7568-2.7954a66.51,66.51,0,0,0-28.09-6.2046c-1.9443-.0244-1.92,2.9048,0,3,17.959.8926,42.5942,17.4244,29.3267,37.2642-7.4473,11.1362-19.2715,11.45-30.5694,6.6069-7.916-3.393-18.4629-13.144-12.1284-21.9472l-2.7954-.7573c.3755,8.5083,6.2837,15.0581,7.3335,23.3334q1.3974-.3786,2.7954-.7568c-2.7105-4.3979.9106-6.9121,4.9722-5.7969q-.33-1.2531-.6617-2.5068c-1.646,2.0664-1.7294,1.6626-4.2729,1.5605q.7228.9493,1.4463,1.899c.9433-2.3194,2.0019-2.5616,4.2861-2.9527q-.95-.7228-1.8989-1.4463c.0327,3.05-1.6538,6.2139-4.834,3.6578-3.4053-2.7369-.9941-7.51.9629-10.2339h-2.5908c.8677,1.8091,1.8056,4.8955-1.2046,4.9092-3.2251.0151-2.7075-4.0337-2.0537-5.9341.5771-1.6768-1.8491-2.5235-2.7417-1.1558a29.297,29.297,0,0,0-2,4.666q1.1784-.1515,2.3559-.3032c-4.2177-3.749-3.2124-11.7539-.8022-16.207,1.6528-3.0547,5.69-3.9829,7.7944-.709.7881,1.2261.4165,2.94-.1816,4.1362-1.6045,3.208-4.33-.685-5.2427-2.25q-.27,1.0269-.5381,2.0528c3.8-2.4742,8.0576-1.6031,12.1773-.5162q-.5238-.9221-1.0474-1.8452c-.6758,3.7061-3.8877,3.1084-6.2451,1.1538-4.4624-3.7007.436-7.2529,4.09-8.6416q-.9228-.9221-1.8452-1.8452c-.8516,3.3653-3.1094,5.5957-7.13,3.77q.2688,1.0262.5381,2.0523c2.8652-5.0982,7.9229-3.7075,11.3643-.0293a8.1306,8.1306,0,0,1,2.1621,5.5908,5.2931,5.2931,0,0,1-1.6284,3.356c-2.7105,3.018-3.2144-.2945-2.711-2.3081,1.7144-6.857,12.9009-2.4561,16.6621-.3423,3.3306,1.8716,8.3946,8.3891,5.2471,12.4209-1.2241,1.5683-5.0542.8344-5.124-1.3282-.1289-4.018,8.2964-4.6709,10.6938-3.4775,6.77,3.3687,7.291,16.3164-1.9609,15.8608l1.5,1.5c.3955-5.2294,4.7041-9.3037,10.1006-8.5537q-.5493-.7228-1.1006-1.4463c.4473,4.3794-.3477,8.4776-4.5908,10.7046l2.0527.5386c-3.05-4.1372-2.1865-9.0791,2.1279-11.9477q-1.0254-.27-2.0527-.5386c3.7832,8.3008-8.7861,12.6152-14.31,8.1826q.1173.909.2349,1.8174a11.7159,11.7159,0,0,1,7.77-5.7271c6.5606-1.6884,5.3125,7.2466,1.3525,9.606-3.3085,1.9717-7.997.7368-10.75-1.5718-2.2734-1.9062,2.7842-4.3984,4.2041-4.8721a15.7247,15.7247,0,0,1,7.7281-.0791q-.5244-.9221-1.0469-1.8452c-2.6211,8.6441-10.7505,9.2759-18.2026,6.5537-2.875-1.05-14.0191-7.5249-5.9527-8.7085q-.95-.7228-1.8989-1.4462a6.51,6.51,0,0,1-.7046,3.34,10.0222,10.0222,0,0,1-1.44,2.1826q-1.9708,2.6807-3.8994-1.5342c1.7056-1.9209,6.5913-2.393,8.7862-1.36q-.2688-1.0261-.5381-2.0523c-2.6743,4.8706-9.0723,2.6558-9.4141-2.5913-.1977-3.0366,3.211-8.7656,5.3135-3.0737.9014,2.44,1.7969,6.0429-1.8872,5.1479a12.9159,12.9159,0,0,1-6.2661-3.9951c-2.4732-2.7856,4.8-1.4414,5.8169-1.2847q-.4484-1.1014-.8965-2.2031c-1.2359,1.65-1.8462,1.6289-3.77,1.9771q.9228.9221,1.8452,1.8452c.5478-1.979.25-3.9868.6665-6a1.5192,1.5192,0,0,0-1.8452-1.8452c-6.8951,1.59-4.4785-6.0513,1.0654-6.3868q-.53-1.28-1.0606-2.56a8.8788,8.8788,0,0,1-5.3383,2.2808q.8474,1.1014,1.6943,2.2031c2.731-4.7573,25.5269-13.6768,23.9253-4.4893q.9221-.5236,1.8452-1.0473c-.9814-.2564-5.4565-1.2061-4.5937-2.9493.8169-1.6508,3.3545-2.4384,4.9609-2.9043,6.0005-1.7387,10.0293,1.2369,8.4541,7.5679q1.2539-.3311,2.5068-.6616a9.6007,9.6007,0,0,1-3.6142-6.0054q-.5236.923-1.0474,1.8452c4.7027-.7417.27.8623-1.2763.9927-3.9034.3291-7.6949-2.9565-9.7989-5.915q-1.4274-1.5381.63-2.3418c1.5059.2065,2.45,1.8633,2.9512,3.0742.83,2.0068,1.0273,6.0552-2.1177,5.16a6.637,6.637,0,0,1-3.2437-2.4458c-.98-1.3379,1.0108-2.37,2.1138-2.4781,1.2358-.1215,2.4673,1.0108,3.2686,1.7525,2.8637,2.65,4.9721,7.893,3.6274,11.69q.922-.5237,1.8452-1.0473c-4.82-.8038-10.331-3.459-9.5654-9.22q-.5508.723-1.1011,1.4463a7.21,7.21,0,0,1,5.9175,1.0884c4.0874,2.4194,1.917,8.43-2.6909,6.0825-2.7681-1.41-6.2881-5.3271-6.1255-8.6172q-.5508.723-1.1011,1.4463a12.83,12.83,0,0,1,12.8438,1.8492q-.3443-.8475-.689-1.6944-.6672,1.6669-1.3335,3.333,1.2532-.331,2.5068-.6616c-3.5937-3.7715.8272-4.2656,4.2-4.2871,3.6861-.0234,8.4517.67,11.4166,3.06,1.3847,1.1167,1.0107,2.2427-.0938,3.4278-1.8437,1.976-5.3564,3.1845-6.7246-.1011-1.4414-3.4614,3.87-5.7236,5.8359-2.8018.9922,1.4771,1.0567,3.4854,1.01,5.1914-.0742,2.6734-.5459,3.2964-3.0986,2.9522-5.1895-.7007-11.9048-5.1943-8.31-10.957q-.8474.3442-1.6943.6889c6.3042,1.75,5.55,9.3452,3.6186,14.1548l1.8457-1.0473c-2.9951-.8116-3.72-2.8135-4.2856-5.62q-.5237.923-1.0474,1.8452c4.3047-1.7812,8.5127-1.1152,10.1152,3.6861,1.5049,4.5078-1.2773,7.7339-5.7568,5.5722q.27,1.0261.5381,2.0528c1.542-3.3623,4.2236-5.9785,7.5664-2.8784a8.6216,8.6216,0,0,1,2.0762,4.0942,9.4525,9.4525,0,0,1,.0732,4.0557q-2.6265-.3465-.3828-2.6045c.8936-1.7129-1.6934-3.23-2.5908-1.5147-1.2568,2.4053-1.8975,5.0132-3.333,7.333a1.51,1.51,0,0,0,.5381,2.0528,6.8052,6.8052,0,0,0,3.4238.8715l-1.5-1.5c.165,4.2959-3.1455,11.1831-8.4092,7.3711q-.1794,1.3712-.3584,2.7417A7.8466,7.8466,0,0,1,404,298.6357q-.6474-1.1286-1.2949-2.2573c-3.3994,5.07-17.75,4.2363-12.7427-2.4853q-1.1784.1515-2.356.3032c3.6495,4.3979-6.3432,1.6182-7.8969.76-2.2783-1.2583-3.4839-2.0952-1.336-3.6211a15.15,15.15,0,0,1,5.4453-2.0585c4.1207-.9468,9.086-.8052,12.7608,1.4443,6.3638,3.8955-3.1519,11.5893-8.1856,7.354q.1173.909.2349,1.8179c2.5405-4.52,7.91-9.4209,13.2813-6.1289q-.3457-.8475-.6895-1.6944c-.4814,2.7564-1.9043,4.9234-5.019,4.2862q-2.7576-.5362-1.6451-2.9615c1.3658-1.6606,3.6631-2.1377,5.668-2.2807,1.709-.1221,5.0147.103,4.8906,2.2329-.0966,1.6416-.8017,3.5337-2.4218,4.207-1.8418.7651-4.1314-.291-5.542-1.4634-2.8218-2.3442.1958-3.665,2.581-4.1753q-.8473-1.1015-1.6943-2.2036c-3.6006,4.8985-11.127,2.503-14.7339-1.0639-1.7476-1.7281-2.8071-9.5215,1.3853-7.2818,3.9082,2.0879.2114,6.9785-1.75,8.7095q.909-.1172,1.8179-.2349c-5.3481-3.3291-5.5493-12.0883,1.9092-12.5381q-.7228-.9492-1.4463-1.8989c-1.8745,7.0947-7.7886,4.4468-11.5762.4214-3.9966-4.2471-5.8579-11.2676.7549-13.91q-.95-.7228-1.8989-1.4462c-.2349,3.1572-1.9136,5.0751-5.1172,5.2163q-3.6966.2336-1.6455-3.0586,2.9464-2.9166,6.8384-.8623-.3442-.8475-.689-1.6944c-.918,2.3262-1.6709,3.4434-3.977,4.437q1.1015.8475,2.2031,1.6944c1.3677-3.7241,4.1636-4.3408,7.4883-2.9527q-.55-.7228-1.1011-1.4463c-.4282,5.5147-5.3745,7.146-10.1011,5.8873q.4482,1.1015.8965,2.2036c1.6084-3.4287,4.8843-4.6778,8.3872-5.4048a18.704,18.704,0,0,1,4.627-.1963q2.589,1.7556-.3013,4.1782a5.7027,5.7027,0,0,1-4.2764-.1142q.5237.9221,1.0474,1.8452c.8564-3.13,4.9463-6.6529,7.5327-2.8042.3994.5947.6187,4.8833-.6709,4.9912-1.8384.1533-3.7207-.7139-3.9292-2.6968-.4551-4.3227,5.4-3.8721,7.8892-3.1094,3.5839,1.0987,5.3789,4.8521,5.2968,8.3643a2.6408,2.6408,0,0,1-3.2456,2.7974c-1.7837-.2925-.8174-3.6553-.53-4.7989.6049-2.4121,2.5781-2.8833,4.687-2.2309a7.46,7.46,0,0,1,4.1089,3.5786c1.353,2.4956-1.8218,3.6054-3.65,4.0635q.9228.9221,1.8452,1.8452c1.1616-2.82,3.3105-2.5659,5.6191-2.9527l-1.8989-1.4463c.3965,3.085.2563,5.396-2.59,7.3711q1.0267,1.0261,2.0527,2.0528,1.7388-3.1735,2.5908.8437,1.1016-.4482,2.2041-.8965c-2.1953-1.5322-1.6845-4.0795-1.3115-6.3056.3184-1.8921-2.5723-2.7027-2.8921-.7979Z" transform="translate(-342.3894 -215.9423)" style="fill:#ffcd06"/><path d="M392.334,269.6353a6.5655,6.5655,0,0,0-.6924.08l-.2285.0337c.3774-.0556-.0733-.0093-.1279-.0073a.5141.5141,0,0,1-.3291-.0557,1.8721,1.8721,0,0,1-.66-.6406c-.5855-.8281-2.0732-1.1123-2.5908,0a9.3145,9.3145,0,0,0-.8189,3.0425,14.2148,14.2148,0,0,0-.0522,1.4287,1.9264,1.9264,0,0,0,.9131,1.7363,2.4265,2.4265,0,0,0,2.2446.3892,2.937,2.937,0,0,0,.9453-.5625c.1582-.1343.6026-.4043.0938-.12q-.3787.1025-.7574.2046l.0264,0-1.06-.44.019.021q-.1934-.3311-.3857-.6621-.02-.1407-.0386-.2813c.1006,1.9244,3.1011,1.9341,3,0a1.5739,1.5739,0,0,0-2.3516-1.4135,3.2717,3.2717,0,0,0-.5869.5024c-.0073.0064.43-.2129.499-.1494l.44,1.0605a7.54,7.54,0,0,1,.4619-3.2431h-2.5908a4.8788,4.8788,0,0,0,2.581,2.06,3.5723,3.5723,0,0,0,1.273.1075c.2182-.0171.4346-.0552.6513-.0845.3184-.043-.3017.01.1236-.0068,1.9282-.0748,1.9355-3.0748,0-3Z" transform="translate(-342.3894 -215.9423)" style="fill:#ffcd06"/><path d="M415.3945,292.8623c12.0127-10.77,16.1778-26.438,5.5176-39.7075-9.9824-12.4268-28.01-14.86-42.0019-8.6485-1.7657.7837-.2378,3.3682,1.5136,2.5909a32.9684,32.9684,0,0,1,37.6553,7.3569c10.8477,11.6245,5.876,26.7095-4.8057,36.2871-1.4433,1.294.6856,3.4082,2.1211,2.1211Z" transform="translate(-342.3894 -215.9423)" style="fill:#ffcd06"/></svg>