<?xml version="1.0" encoding="UTF-8"?>
<svg xmlns="http://www.w3.org/2000/svg" xmlns:xlink="http://www.w3.org/1999/xlink" viewBox="0 0 100 100" width="100px" height="100px">
<g id="surface29030408">
<path style=" stroke:none;fill-rule:nonzero;fill:rgb(100%,52.156866%,0%);fill-opacity:1;" d="M 20 14 C 12.292969 14 6 20.292969 6 28 C 6 35.707031 12.292969 42 20 42 C 27.707031 42 34 35.707031 34 28 C 34 20.292969 27.707031 14 20 14 Z M 72 14 L 72 18 L 87.480469 18 L 71.929688 35.101562 L 64 27.171875 L 42 49.171875 L 34.054688 41.226562 L 6.644531 66.53125 L 9.355469 69.46875 L 33.945312 46.773438 L 42 54.828125 L 64 32.828125 L 72.070312 40.898438 L 90 21.171875 L 90 36 L 94 36 L 94 14 Z M 20 18 C 25.542969 18 30 22.457031 30 28 C 30 33.542969 25.542969 38 20 38 C 14.457031 38 10 33.542969 10 28 C 10 22.457031 14.457031 18 20 18 Z M 18.980469 22.566406 L 15.359375 26.1875 L 18.1875 26.1875 L 18.1875 33.433594 L 21.8125 33.433594 L 21.8125 22.566406 Z M 78 40 L 78 88 L 82 88 L 82 40 Z M 90 44 L 90 88 L 94 88 L 94 44 Z M 54 50 L 54 88 L 58 88 L 58 50 Z M 66 50 L 66 88 L 70 88 L 70 50 Z M 30 60 L 30 88 L 34 88 L 34 60 Z M 42 62 L 42 88 L 46 88 L 46 62 Z M 18 70 L 18 88 L 22 88 L 22 70 Z M 6 78 L 6 88 L 10 88 L 10 78 Z M 6 78 "/>
</g>
</svg>
