<svg xmlns="http://www.w3.org/2000/svg" viewBox="0 0 351.615 307.2146"><rect y="6.6215" width="156.2345" height="135.3775" style="fill:#e4f5fc"/><rect x="7.6771" y="14.0055" width="141.1735" height="120.3646" style="fill:#c9e9f4"/><rect x="11.1784" y="18.296" width="134.3469" height="113.183" style="fill:#fff"/><path d="M93.2366,69.1521s1.4357,4.3429,0,4.79-20.3869,3.689-21.9661,5.335a6.7126,6.7126,0,0,0-1.1486,3.1921,1.9887,1.9887,0,0,0,.7179,1.7956,38.8754,38.8754,0,0,0,26.8861,8.08c16.0412-1.3467,31.26-10.0252,31.26-10.0252a4.2987,4.2987,0,0,0-.8614-4.7882c-2.1536-2.0949-22.182-1.7919-23.8326-3.5893s-.8614-4.79-.8614-4.79Z" style="fill:#c9e9f4"/><path d="M93.452,65.7105c-.3206-.0177-13.2084,4.2645-14.9313-4.7881S80.0282,43.1911,84.91,39.6s22.9711-4.3294,26.0579-3.1747,2.5842,7.514,2.7278,10.4318,2.5125,3.1422,3.4457,6.883S117.7153,67.0572,93.452,65.7105Z" style="fill:#c9e9f4"/><path d="M78.3054,45.3608s2.7278-1.4963-1.8664-5.2371-12.4906-4.3393-14.5006-3.1423,2.7279,4.232,4.02,3.9116c-2.4407-.1708-11.6291-.62-13.2084,3.72s10.337-.15,10.337-.15S51.0259,48.8023,52.6058,54.6379s9.7634-3.89,9.7634-3.89S55.1907,58.229,56.1957,61.82s7.2647-7.3319,9.59-9.1274S74.86,49.85,78.3054,45.3608Z" style="fill:#c9e9f4"/><path d="M86.776,53.74s2.5125,20.4246,11.342,20.2,11.1266-16.16,10.9113-22.22-.79-8.3045-3.015-10.6986-11.7009-3.4415-15.3619,0S85.6992,52.0941,86.776,53.74Z" style="fill:#c9e9f4"/><path d="M52.75,131.47a73.4409,73.4409,0,0,1,3.661-22.2731c2.095-5.958,10.9831-19.7983,14.7159-20.2933s12.5624,3.96,25.4836,3.2172,31.0807-4.9495,33.343-7.5068c2.4059.9074-4.8452,14.1557-8.649,19.5508-7.9681,11.3015-27.5654,24.2529-38.8356,27.3052C71.1987,131.5523,52.75,131.47,52.75,131.47Z" style="fill:#c9e9f4"/><path d="M79.1093,131.47h45.8s6.7173-12.6377,8.1676-20.8873,3.74-21.1049,1.45-24.8576-4.9247-4.1037-4.9247-4.1037a11.2131,11.2131,0,0,1-1.4873,6.1433c-1.832,3.4227-6.7936,13.5153-13.2819,19.3075S89.7959,127.0818,79.1093,131.47Z" style="fill:#e4f5fc"/><path d="M133.6246,84.2849s10.9382,8.7454,12.0868,17.4338-.2872,29.7512-.2872,29.7512H124.32s6.82-13.8664,8.2552-22.0282S135.6077,91.0734,133.6246,84.2849Z" style="fill:#c9e9f4"/><path d="M70.6705,80.271a3.2937,3.2937,0,0,0-.9075,1.6937c-.0718.866-.321,8.479.3251,9.5924s6.5662,3.0878,12.74,3.7064,25.1247,1.4845,33.4518-.5567,12.7059-3.7732,13.4237-5.5051-.3374-8.9307-.3374-8.9307-6.5539,2.4978-10.7892,2.9926-23.9761,3.0993-34.4567,1.21S70.6705,80.271,70.6705,80.271Z" style="fill:#e4f5fc"/><path d="M77.7311,43.8645s-.4307-6.8831.7178-9.2771,12.7778-9.4268,15.9363-8.529,6.03,5.686,7.0349,7.1823,5.5992-1.0474,9.9063-1.0474,12.1317-1.1223,13.352,1.7955-6.82,3.2171-9.9063,5.0127-14.9313,14.14-24.1915,18.2549S77.9465,63.6157,73.8547,61.97s-11.988-5.686-10.6241-8.6038S77.7311,43.8645,77.7311,43.8645Z" style="fill:#e4f5fc"/><rect x="181.6035" width="170.0115" height="186.0406" style="fill:#e4f5fc"/><rect x="190.0991" y="9.2966" width="153.0202" height="167.4473" style="fill:#c9e9f4"/><rect x="193.157" y="12.6428" width="146.9045" height="160.755" style="fill:#fff"/><polygon points="201.736 12.643 237.842 48.749 201.943 84.647 238.073 120.778 199.245 159.606 211.916 172.277 227.96 172.277 214.049 158.366 250.41 122.004 212.297 83.891 252.784 43.404 222.022 12.643 201.736 12.643" style="fill:#c9e9f4"/><rect x="266.6093" y="12.6428" width="4.2621" height="160.755" style="fill:#e4f5fc"/><rect x="280.2782" y="12.6428" width="4.2621" height="160.755" style="fill:#e4f5fc"/><rect x="293.9471" y="12.6428" width="4.2621" height="160.755" style="fill:#e4f5fc"/><polygon points="340.061 142.73 309.681 173.11 280.278 173.11 340.393 112.995 340.061 142.73" style="fill:#c9e9f4"/><polygon points="340.061 98.153 264.6 173.614 250.079 173.614 340.278 83.416 340.061 98.153" style="fill:#c9e9f4"/><path d="M176.5443,270.7544c2.99,14.4615,8.2974,22.9335,10.4743,30.2629.2288.77,3.5756.347,5.8957-.8474-1.1745-5.356-.28-20.876.2892-30.9137C188.5958,265.6277,175.45,265.4631,176.5443,270.7544Z" style="fill:#fccaa7"/><path d="M187.434,307.2146h16.1437a3.91,3.91,0,0,0-2.5608-3.2748c-.7454-.2528-5.2819-2.7444-8.0893-4.1648-.9777-.4947-5.2291-1.239-5.9268.8543-.5073,1.5217-.534,5.42.4,6.5675A.0838.0838,0,0,0,187.434,307.2146Z" style="fill:#453e4f"/><path d="M230.136,142.5289c.5626.5576,1.1548.3959,2.335-.6368a9.7145,9.7145,0,0,0,3.4484-6.9591c-.1935-2.6706-2.1-6.8413-3.0613-6.55-1.1392.3454.6941,5.0013.1068,6.6209C228.9425,137.6028,229.2869,141.6873,230.136,142.5289Z" style="fill:#fccaa7"/><path d="M169.1046,188.34c-.4806,1.2459-3.56,3.7021-3.4351,7.2973.6763,2.4384,1.2421,3.8116,2.5541,3.6754,2.99-11.9338,4.3046-13.0241,4.3873-13.1707C170.3861,188.7492,170.9671,187.7394,169.1046,188.34Z" style="fill:#fccaa7"/><path d="M202.139,131.7325c-1.2557-2.8016,4.8226-.1514,12.0309,3.3192-.6948.0308-.5439,8.04.32,8.0093-2.7765.9611-13.948.8787-12.3342-1.1747C203.0335,140.77,204.11,136.1289,202.139,131.7325Z" style="fill:#fccaa7"/><path d="M220.3281,118.41c.9964,11.2563-2.4026,14.506-3.2037,15.3066-6.4087,6.4049-15.097-.2841-16.8016-10.1806-1.609-9.3414,5.187-17.1216,9.967-19.9341C215.3446,104.99,218.833,107.3754,220.3281,118.41Z" style="fill:#fccaa7"/><path d="M191.9939,119.9191c.6051,2.029-.9611,8.09,0,10.7952,2.029,6.354,8.6093,5.9156,13.2768,5.5477,7.63-.6013,15.4133-8.9525,12.1385-21.91-1.12-2.3849.1779-2.5985.3559-4.6987a12.1742,12.1742,0,0,0-3.9868-7.4753c-2.3515-1.8632-5.5654-1.664-10.51-.7653C193.9364,103.1091,187.3733,109.7848,191.9939,119.9191Z" style="fill:#efe6e8"/><path d="M193.3762,109.92c3.5114-.0866,6.8743-2.9226,8.2993-6.3178,2.1949-5.23-2.5291-12.9176-8.2762-12.2275-8.2763.9077-9.1693,9.1223-7.8491,13.7047C186.4524,108.2107,189.8331,110.0073,193.3762,109.92Z" style="fill:#efe6e8"/><path d="M230.1349,142.527c.8988-.24,1.21-.2837,2.3494-.6407,16.7211,1.7418,30.4673,13.2788,30.2549,23.5738.0063,1.5732-1.8765,5.4485-4.6787,6.9147C250.1819,176.4968,231.2562,149.5752,230.1349,142.527Z" style="fill:#cd534d"/><path d="M197.1191,270.7544c2.99,14.4615,8.2974,22.9335,10.4743,30.2629.2288.77,3.5757.347,5.8957-.8474-1.1744-5.356-.28-20.876.2892-30.9137C209.1706,265.6277,196.0251,265.4631,197.1191,270.7544Z" style="fill:#fccaa7"/><path d="M151.29,172.294c-.767,10.7008,11.428,18.3422,17.4779,17.62,1.667-.1989,3.3594-2.0645,3.8444-3.7732-3.19-6.9928-4.187-7.6278-5.1028-9.053a10.43,10.43,0,0,1-.8774-1.7328c1.9222-2.4562,6.8034-4.82,12.8148-8.7568,1.1733-3.187,4.8177-10.0921,7.91-15.4219,2.1566-3.7175,4.0445-6.669,4.6372-7.0566C188.1371,144.8757,162.5192,148.0178,151.29,172.294Z" style="fill:#f16047"/><path d="M162.9108,170.72c.6066,3.2878,2.1105,5.3,4.5989,6.3686a10.43,10.43,0,0,1-.8774-1.7328c1.9222-2.4562,7.2467-5.024,13.2581-8.9608a121.3123,121.3123,0,0,1,7.4663-15.2179c-.0507-.0353-.0982-.0728-.1512-.1064C174.6576,157.9581,162.11,165.7,162.9108,170.72Z" style="fill:#cd534d"/><path d="M221.7625,197.7967a36.8686,36.8686,0,0,1,.8138-7.8436c.4273-18.9449-11.85-22.4076-3.9569-37.4412,1.5352-2.924,8.072,1.7529,13.039,9.6889a50.2114,50.2114,0,0,0-4.3534-16.79c-11.81-4.8013-28.1284-4.1686-35.4008-1.2815-9.2373,10.7857-10.3052,18.8484-17.3533,35.294-10.0383,24.9888-15.3778,64.7146-9.3263,88.3863,17.3,7.0481,57.0613,4.8412,59.8378,2.385-.1736-23.0888-3.5925-54.8551-3.3181-71.53-.045-.0063-.09-.0119-.1347-.0191C221.6642,198.3582,221.7129,198.078,221.7625,197.7967Z" style="fill:#524a5c"/><path d="M221.61,198.6451c.0443.0072.09.0128.1347.0191q.0073-.4411.0182-.8675C221.7129,198.078,221.6642,198.3582,221.61,198.6451Z" style="fill:#524a5c;opacity:0.44"/><path d="M221.61,198.6451c.0443.0072.09.0128.1347.0191q.0073-.4411.0182-.8675C221.7129,198.078,221.6642,198.3582,221.61,198.6451Z" style="fill:#453e4f;opacity:0.47000000000000003"/><path d="M218.6194,152.5119c-7.8926,15.0336,4.3842,18.4963,3.9569,37.4412.01-.0385.0195-.0806.03-.1182,3.1545-2.489,8.2684-4.2575,9.13-14.47a76.64,76.64,0,0,0-.0784-13.1641C226.6914,154.2648,220.1546,149.5879,218.6194,152.5119Z" style="fill:#524a5c;opacity:0.44"/><path d="M218.6194,152.5119c-7.8926,15.0336,4.3842,18.4963,3.9569,37.4412.01-.0385.0195-.0806.03-.1182,3.1545-2.489,8.2684-4.2575,9.13-14.47a76.64,76.64,0,0,0-.0784-13.1641C226.6914,154.2648,220.1546,149.5879,218.6194,152.5119Z" style="fill:#453e4f"/><path d="M216.6616,155.0748c1.21-7.2973,7.0427-10.4234,10.6468-9.6611,6.4135,1.3565,25.0923,9.3254,28.0467,12.2241,2.663,2.6127,6.7278,5.4107,7.4041,7.8312-.6407,4.5208-3.8723,8.0121-10.8214,8.5432C228.7289,175.1513,215.5225,163.76,216.6616,155.0748Z" style="fill:#f16047"/><path d="M208.0088,307.2146h16.1437a3.91,3.91,0,0,0-2.5607-3.2748c-.7455-.2528-5.282-2.7444-8.0894-4.1648-.9776-.4947-5.2291-1.239-5.9268.8543-.5073,1.5217-.5339,5.42.4,6.5675A.0832.0832,0,0,0,208.0088,307.2146Z" style="fill:#453e4f"/><path d="M202.224,101.6306s-3.1649,4.4811-10.16,4.5879-7.0112-5.0191-7.0112-5.0191-2.2175,8.2251,7.0155,9.0783S202.2609,103.2968,202.224,101.6306Z" style="fill:#e0d5d9"/><path d="M13.9276,111.8185c.1169-.077.1291-.1334.2151-.1979,3.9081.206,9.5183,14.8144,6.1769,27.5425a133.4992,133.4992,0,0,0-2.9938,14.5046c2.839,5.265,8.2588,8.4653,11.5624,15.1756.557,1.75,1.85,5.053.671,5.9361-2.5889,1.94-17.3284-5.7715-23.1917-18.5743-.1186-.259-.2349-.5193-.346-.7824C5.0665,155.0657,6.7872,119.8451,13.9276,111.8185Z" style="fill:#f89839"/><path d="M20.1992,139.6093a124.72,124.72,0,0,0-2.82,14.1573c2.9043,5.0546,9.1772,9.4375,11.9138,13.36.31,1.9615,1.886,9.544,1.8365,10.6849a40.9309,40.9309,0,0,1-24.7643-21.616c1.5085.9209,3.1322,2.3377,4.3015,0,2.716-6.62.3759-34.0174,3.2906-44.2753.0374-.0221.0543-.0189.06-.0258C14.6417,114.4886,15.4933,124.4208,20.1992,139.6093Z" style="fill:#ec8628"/><path d="M89.29,297.72v6.4859a2.9566,2.9566,0,0,0,2.9078,3.0031h17.9458s1.8238.1777,1.2732-1.4571-9.6009-4.0515-11.5279-5.1532A2.7766,2.7766,0,0,1,98.34,297.72Z" style="fill:#453e4f"/><path d="M38.8014,297.72v6.4859a2.9565,2.9565,0,0,0,2.9078,3.0031H55.5845s1.8238.1777,1.2732-1.4571-5.53-4.0515-7.4575-5.1532a2.7766,2.7766,0,0,1-1.5485-2.8787Z" style="fill:#453e4f"/><path d="M32.1659,196.36c-2.7152-.0893-7.2437-.585-10.5128.0344-.31,10.4268-1.0324,20.8536,1.0324,24.26a82.2432,82.2432,0,0,0,12.9044.1032C39.8226,210.228,37.3449,205.3759,32.1659,196.36Z" style="fill:#524a5c"/><path d="M31.254,182.1251c-.5394,5.6073.7643,17.8,2.2712,24.3087,1.8066,14.34-.0787,30.5629,1.6874,43.2866-.9221,17.6747,1.8263,35.4013,2.8906,49.9679,4.0289.0039,7.6739.6041,11.1839,0,1.449-14.4972,1.1688-28.7367,3.2335-51.5528,4.7772-48.6386,4.9553-58.5472,2.57-64.6051C48.1338,179.2889,35.6047,175.3748,31.254,182.1251Z" style="fill:#6ec4c7"/><path d="M73.1677,176.1546c8.4654,51.8159,19.7018,77.3046,26.9283,122.0838-1.864,1.1689-7.3911,2.0362-11.7683,1.5992-3.9541-16.1859-13.8007-23.25-17.1731-45.4261-5.3682-12.5808-13.7062-36.1243-17.6017-46.2007-6.6759-3.0564-13.0894-19.55-10.1171-25.1617C47.3178,175.72,60.509,168.9376,73.1677,176.1546Z" style="fill:#81d0d4"/><ellipse cx="38.9937" cy="79.5318" rx="11.3631" ry="17.8884" transform="translate(-10.1784 5.8574) rotate(-7.6018)" style="fill:#f1b185"/><path d="M42.6616,96.2041c.6909-2.7912-6.0593-5.1477-12.2335-.7227.6591-.0906-2.1237,10.6684-2.9422,10.7882,2.7805.4087,16.6406,1.5605,14.7627-.0517C41.2275,105.3414,41.5773,100.5842,42.6616,96.2041Z" style="fill:#f1b185"/><path d="M46.1716,103.7919c-1.3291-.847-17.3654-2.1782-19.5632-.3613a26.9614,26.9614,0,0,1-.671,3.51c3.57-1.1864,15.3371,1.3668,20.8536-.0516A9.8217,9.8217,0,0,0,46.1716,103.7919Z" style="fill:#ec8628"/><path d="M52.5206,118.2965c2.7548-1.6515,6.6715-1.3626,9.6082-.6992,7.8894,27.8254,9.3811,55.3092,11.7272,64.172-1.5826.3825-2.7248.707-4.3359,1.0324-1.2883.1544-3.3451.7063-4.5424.8947C63.7219,171.4251,55.5445,140.3,52.5206,118.2965Z" style="fill:#ec8628"/><path d="M29.8775,182.1478q-.5523-6.18-1.213-12.4958-.41-3.9163-.8517-7.7728c-4.766-17.1543-13.283-32.2095-13.6959-50.2414,7.2093-7.5534,26.8131-8.0046,45.2372-2.4146.9414,2.6686,1.8222,5.4806,2.6479,8.3929-2.9367-.6635-6.3136-.8162-9.0685.8353C57.4071,140.0621,61.0375,162,65.5111,183.61,54.4305,185.2621,42.197,184.247,29.8775,182.1478Z" style="fill:#f89839"/><path d="M24.5781,196.1191c-1.4548.3389-2.1829.5384-2.9293.2839-.67-8.081-1.6555-81.629.3054-89.2043a17.3233,17.3233,0,0,1,2.28-.6194C22.4438,118.142,25.1722,193.63,24.5781,196.1191Z" style="fill:#524a5c"/><path d="M75.026,178.7239c.0688,1.3076,1.3592,5.9188-.0689,7.2437-1.1757,1.0907-8.1212-8.8783-8.7406-13.2486.0005-3.0746,1.4413-3.6383,1.87-3.7563.7423-.2043,4.6489-.4993,5.3908,3.2057C73.849,174.0238,74.9227,176.6247,75.026,178.7239Z" style="fill:#f1b185"/><path d="M101.3726,144.9494c-2.3856-.55-15.9639,5.3194-16.23,5.5739-6.6215,6.3425-4.1294,4.8177-17.0683,18.4448.7226,2.5121,3.3175,3.4068,5.3682,3.1659,3.1659-.413,19.1847-10.0913,23.1248-14.7971C99.6993,153.2805,103.666,147.9867,101.3726,144.9494Z" style="fill:#f89839"/><path d="M58.904,109.143c-10.5989,2.8906-8.5858,15.3649,7.3813,28.0285,10.4613,6.6071,20.6349,18.2206,25.74,14.8659,3.384-2.2236,11.3927-4.2968,9.4977-6.8824C91.8862,132.0068,66.3955,110.31,58.904,109.143Z" style="fill:#f89839"/><path d="M36.0717,57.1982s7.7771-3.0971,11.3559,3.3723-1.6518,9.2913-1.6518,9.2913,4.68,6.4694,1.8583,13.2141-1.4453,13.283-6.8824,15.623S27.3311,101.5882,23.064,93.02s-1.3077-11.045-2.753-13.4885-4.8865-8.7065.6883-16.6213S36.0717,57.1982,36.0717,57.1982Z" style="fill:#cd534d"/></svg>