<svg xmlns="http://www.w3.org/2000/svg" viewBox="0 0 386.8185 305.3694"><path d="M290.0033,210.315s2.469,45.6876,7.5876,76.3993c.5359,3.2148.0085,6.6361,0,8.1112-.0163,2.8468,0,1.8312,0,1.8312s.5233,2.0931,3.7938,2.0931h6.9335s-4.9711-7.0643-4.9711-10.9889,2.878-77.4459,2.878-77.4459Z" style="fill:#fcc7aa"/><path d="M310.0979,210.315s2.8433,47.01,7.5876,76.3993a34.0975,34.0975,0,0,1,0,8.1112c-.065,2.52,0,1.8312,0,1.8312s.5233,2.0931,3.7938,2.0931h6.9335s-4.9712-7.0643-4.9712-10.9889S326.32,210.315,326.32,210.315Z" style="fill:#fcc7aa"/><path d="M298.6226,297.1c1.9126.8344,5.6665.211,8.3352-.4431,2.381,2.3808,4.3693,5.3636,1.36,5.3636h-9.9423s-2.224-3.5975-.785-7.1948C297.9834,296.46,298.05,296.85,298.6226,297.1Z" style="fill:#d54749"/><path d="M318.71,297.1064c1.9.8669,5.6734.2044,8.342-.45,2.381,2.3808,4.3694,5.3636,1.3605,5.3636H318.47s-2.1284-3.6308-.7849-7.1948C317.8028,296.1334,318.1416,296.8468,318.71,297.1064Z" style="fill:#d54749"/><path d="M323.93,12.0777S323.3837-3.8382,339.5619.8713c7.8493,0,16.1135-.3058,16.1135,11.2064,4.0991,4.0992,4.1863,9.4194,2.7909,10.8147-.6978,2.9652,2.3228,6.4537.8125,9.7679s-4.4756,4.186-8.313,6.1049S333,42.6027,331.0811,40.6841,323.93,37.1713,323.93,26.9793C320.79,21.6713,317.1,16.1769,323.93,12.0777Z" style="fill:#4c334d"/><path d="M379.3506,165.61s-6.6412,13.4181-2.45,18.6716,6.7553,2.18,7.3352,0c1.2194-4.5849,0-19.3316,0-19.3316Z" style="fill:#fcc7aa"/><path d="M328.7627,292.4968s2.093,4.13-.6978,5.2565-9.6378,4.13-8.6068,6.9463h20.1192s.9971-5.26-.5233-6.8967-1.221-4.3677-1.221-5.3061S328.7627,292.4968,328.7627,292.4968Z" style="fill:#5a3f58"/><path d="M357.9618,290.62s1.8644,6.0076-.6217,7.1338-9.6053,4.13-8.687,6.9463h20.6508s.7225-4.4647-.6318-6.1013-1.388-7.04-1.388-7.9788S357.9618,290.62,357.9618,290.62Z" style="fill:#5a3f58"/><path d="M316.9528,21.4971s-9.7679-2.6162-15.8729,11.1635c-2.442,5.93-5.4072,9.9423-15.1752,13.9541s-9.07,20.2335,1.0466,23.5477,32.2494,5.7562,41.155,0,8.5569-15.0009,7.51-17.9661-4.3606-4.8841-3.14-12.0355-5.6438-16.4579-7.6752-18.49S316.9528,21.4971,316.9528,21.4971Z" style="fill:#8bcbd6"/><path d="M303.1941,65.7038h-8.22s-1.57,48.0654-1.57,54.8681c-7.0643,10.7273-37.6764,64.3638-39.77,79.8007,2.0932,5.7561,4.9712,12.0355,11.2506,12.0355s8.6342-.5233,15.1753,2.3548,21.6508,7.2605,32.7052,5.7561c10.8824-1.481,36.3681-6.0178,36.3681-6.0178s-31.3287-90.2577-31.6586-99.6854L330.848,68.0292S310.8905,76.2461,303.1941,65.7038Z" style="fill:#5a3f58"/><path d="M297.46,73.2635s2.3548,6.6558,11.7739,10.58,29.8271,36.8915,29.8271,36.8915,13.0821,66.457,13.0821,75.8761v18.0533s-10.1327,1.5808-28.7151,4.546c-3.6781.5869-10.6619,1.3082-10.6619,1.3082s-10.5965-83.8235-9.0267-89.58c-6.0177,3.663-14.14,4.4162-15.89-1.2921,2.2561-4.5291,4.8686-7.9525,5.9151-9.9585C293.7644,109.2232,297.46,73.2635,297.46,73.2635Z" style="fill:#4c334d"/><path d="M316.6678,135.4854v3.0089a163.181,163.181,0,0,0-2.201,33.5923c1.5594,36.2418,8.0814,92.5918,13.0216,123.5235h12.41s-3.5852-118.4523.143-122.18c1.9622,0,15.7976,122.1805,15.7976,122.1805h13.6575s-3.1614-149.7985-6.301-160.1247A356.9327,356.9327,0,0,0,316.6678,135.4854Z" style="fill:#f79136"/><path d="M321.0079,164.1352s15.5676,5.7561,17.53,6.41c8.9891-3.68,20.1465-8.6342,21.0622-8.6342s-15.1931,12.04-18.978,13.215h-.7759l-1.4987,31.5258-5.6965-32.4436S322.3161,165.4434,321.0079,164.1352Z" style="fill:#f17e24"/><path d="M337.8837,58.04s29.5268-22.3762,35.7141-16.189C361.7853,53.6629,353.059,64.5806,337.8837,58.04Z" style="fill:#f5ac86"/><path d="M338.6687,43.5184s2.7472,5.7561-1.8315,10.3348c5.0584,5.5423,8.1109,5.5755,8.1109,5.5755l7.0643-2.959s-2.6164-9.091-1.57-16.0578A112.395,112.395,0,0,1,338.6687,43.5184Z" style="fill:#fcc7aa"/><path d="M338.3089,42.6671s1.5184,6.8376.3278,8.6788c2.6484,1.33,9.2078,3.5764,11.8151-3.0413V38.9969Z" style="fill:#f5ac86"/><path d="M310.9347,55.4231l-1.9749.9229s-1.48,9.3578-8.0213,9.3578c3.5318,4.9712,6.6638,8.95,13.6936,7.38s4.3213-11.9246,4.3213-14.3348S310.9347,55.4231,310.9347,55.4231Z" style="fill:#fcc7aa"/><path d="M318.6531,63.1415s-8.55,3.2317-11.5585-1.5465c1.9759-4.1115,1.38-6.1719,1.38-6.1719s8.02-1.3736,9.3938,0,1.5982,7.5876,1.5982,7.5876Z" style="fill:#f5ac86"/><path d="M354.6288,26.1052c0,12.2606-4.2124,22.1994-9.4191,22.1994-7.8527,0-13.1085-9.2121-17.1034-22.1994-3.9769-12.9288,4.1923-16.0115,12.0451-16.0115s14.4774,3.7514,14.4774,16.0115Z" style="fill:#fcc7aa"/><path d="M329.5048,30.3331s-11.2442-5.1733-9.4227-11.0868c.9971-3.2368,1.9288-7.8661,11.3479-10.657s26.52-3.0848,23.4726,20.61c-2.497-2.4969-6.3787-12.5862-6.3787-12.5862s-3.6629,4.012-10.4656,1.0466c-2.4421,4.36-7.1111,6.6179-9.952,1.1551C330.209,24.4623,331.6888,28.1493,329.5048,30.3331Z" style="fill:#4c334d"/><path d="M328.1063,57.6034l-2.65-2.18s-7.8493-.8848-11.9321,14.7391c-4.7422,18.1475-13.1421,45.3514-13.1421,50.41s.1745,5.5816,2.442,5.5816,17.6172-11.3377,19.187-14.652S328.1063,57.6034,328.1063,57.6034Z" style="fill:#e7d3db"/><path d="M287.8292,86.3839,284.16,84.3675s-1.9186-16.3194,7.6749-18.6637c4.0117-1.6465,3.4892.7371,2.7332,1.4932s-3.9694,1.8974-5.0084,17.1705C289.56,86.9072,287.8292,86.3839,287.8292,86.3839Z" style="fill:#f5ac86"/><path d="M344.38,55.7484c-1.7205,0-4.6652.3452-6.4967-3.13-4.7095,1.1037-10.0732,2.8044-12.4279,2.8044-1.8315,10.3348-10.989,83.0712-10.989,83.0712h51.151c0-10.7273,18.853-66.8346,7.98-77.7075-9.9859-5.3637-22.4794-8.1681-22.4794-8.1681S349.8616,55.7484,344.38,55.7484Z" style="fill:#f3e4e9"/><path d="M342.3316,67.72s-.7847,5.1114,5.32,3.69,17.5167-7.8837,22.1364-12.5033a73.7329,73.7329,0,0,0-8.6318-3.4834Z" style="fill:#e7d3db"/><path d="M339.5619,68.5052s25.8863-35.83,34.69-27.0265c10.5044,10.5042-30.35,29.6429-30.35,29.6429S339.5619,72.6915,339.5619,68.5052Z" style="fill:#fcc7aa"/><path d="M342.3316,67.72l-2.77.7849s-3.9736,7.26-3.9736,8.568,0,4.3833,2.2954,5.8223c1.7243,1.081,1.6989,2.05,2.9641.7849s-.086-3.4013,1.4838-4.9712c2.0932-2.0931,2.0932-4.6035,2.0932-8.5033V67.72Z" style="fill:#fcc7aa"/><path d="M304.7423,117.6064S291.74,84.3317,290.0091,82.6009a33.9565,33.9565,0,0,1-6.8084,2.0607s5.9433,45.2121,19.6229,41.4919C305.9633,119.8741,304.7423,117.6064,304.7423,117.6064Z" style="fill:#f3e4e9"/><path d="M293.6663,65.7038c7.2722-3.6088,10.204,20.07,12.428,37.3381-3.7938,12.2971-.6042,11.8942-4.3171,12.3365C293.5631,105.07,281.2484,71.8662,293.6663,65.7038Z" style="fill:#fcc7aa"/><path d="M328.1063,39.8319c0,11.235-8.1886,20.3424-12.92,20.3424-7.1359,0-9.092-9.1074-9.092-20.3424s3.9746-15.7238,11.0326-14.6721c4.6833.6978,10.9794,3.4376,10.9794,14.6721Z" style="fill:#fcc7aa"/><path d="M301.2543,42.6671s13.78,2.2035,17.2684-11.5764c2.2675,2.2674,4.912,5.1373,9.4873,5.8529,0-6.2019-4.7782-12.3942-9.6617-12.83C308.9408,23.2739,303.3474,23.0209,301.2543,42.6671Z" style="fill:#8bcbd6"/><path d="M319.4664,99.3513s-3.386,11.976-2.34,13.0226,11.2506-12.2972,12.21-13.2566,4.7161-2.0955,6.8071-4.1863-.68-3.3142-4.5286-2.3548S319.4664,99.3513,319.4664,99.3513Z" style="fill:#e7d3db"/><path d="M306.0943,103.0419l18.127-10.4657,3.7887,3.663s-21.7,25.63-26.6253,18.9036C293.4047,104.2451,306.0943,103.0419,306.0943,103.0419Z" style="fill:#fcc7aa"/><path d="M324.2213,96.2392v-3.663s10.5227-4.9712,12.8775-4.9712,2.4631,6.0178.7083,7.7726-9.7971.8616-9.7971.8616Z" style="fill:#fcc7aa"/><path d="M367.7561,126.1535S357.77,90.3569,366.3544,71.66C376.9759,93.623,367.7561,126.1535,367.7561,126.1535Z" style="fill:#e7d3db"/><path d="M366.6643,67.72s4.7067-7.9584,6.9335-6.9335c10.6838,4.917,8.2418,11.3814,11.3815,46.9646a454.8678,454.8678,0,0,1,1.3082,62.794H375.9787s-6.8536-59.6262-8.6073-67.7511S366.6643,67.72,366.6643,67.72Z" style="fill:#f3e4e9"/><path d="M32.734,299.0269l-2.6528,1.04.8044,3.8909s.1631.7207.6326.8168a3.5411,3.5411,0,0,0,1.881-.2115,3.6368,3.6368,0,0,0,1.4606-1.137c.2987-.371-.0552-.959-.0956-1.0246Z" style="fill:#b2b2b2;fill-rule:evenodd"/><polygon points="16.784 304.86 43.084 304.86 43.084 296.513 35.225 296.386 32.121 295.307 22.691 297.285 16.784 304.86" style="fill:#f9c9a7;fill-rule:evenodd"/><path d="M38.8653,304.86h66.2514q-1.14-6.9177-2.28-13.8355c-6.6151-17.3711-14.75-32.4626-25.54-43.5712l-45.9531,5.8856c4.8458,4.2005,25.5691,19.03,39.3464,27.4018,5.7578,3.4989,8.4773,6.69,8.3606,7.781-.0359.3367-.1708.4147-.46.4156a25.741,25.741,0,0,1-3.14-.8051,30.9474,30.9474,0,0,0-10.5316.07c-11.7133,1.7231-9.7353,1.7665-16.936,4.5946a59.3006,59.3006,0,0,1-12.758,3.59A12.6383,12.6383,0,0,1,38.8653,304.86Z" style="fill:#524a5c;fill-rule:evenodd"/><path d="M6.1265,304.8944c-1.9008-.0577-4.1978.3076-5.5259-1.3565-.88-1.1022-.987-2.667,1.0153-3.599l23.6991-9.9525c1.5324-.6435,4.1243-.9678,5.4553,1.9109.4964,1.695,1.8436,3.5045,4.7769,4.6159-8.2122-1.6153-14.7482,6.0978-14.9389,8.3241C17.9114,304.8142,9.4207,304.9944,6.1265,304.8944Z" style="fill:#6fc3c5;fill-rule:evenodd"/><path d="M90.7417,265.3644A95.36,95.36,0,0,0,77.2966,247.453l-45.9531,5.8856c3.2124,2.7847,13.403,10.24,23.9216,17.3894C69.7617,271.8864,82.7114,269.7351,90.7417,265.3644Z" style="fill:#453e4f;fill-rule:evenodd"/><path d="M76.2142,145.8164q.65.3893,1.3046.8018l26.4819,22.2908c2.4069,1.7064,4.8515,2.2065,5.4663-.2686,1.5667-9.5791,1.5888-21.881,1.309-32.2415l8.4933-9.1c2.8347,14.8346,5.7757,43.3592,3.5189,56.1056a9.6271,9.6271,0,0,1-5.8421,6.3591c-3.4867,1.3882-6.2116.73-9.7859-.0106-11.3024-2.34-21.1293-7.927-30.946-13.536Z" style="fill:#f3963c;fill-rule:evenodd"/><path d="M76.2142,145.8164q.65.3893,1.3046.8018l26.4819,22.2908c2.4069,1.7064,4.8515,2.2065,5.4663-.2686a127.7443,127.7443,0,0,0,1.38-17.05,76.82,76.82,0,0,1,12.472,10.4028c.4455,8.426.3879,16.2251-.53,21.4116a9.6271,9.6271,0,0,1-5.8421,6.3591c-3.4867,1.3882-6.2116.73-9.7859-.0106-11.3024-2.34-21.1293-7.927-30.946-13.536Z" style="fill:#ec8426;fill-rule:evenodd"/><polygon points="115.325 120.598 150.723 102.326 156.434 127.282 118.824 135.889 115.325 120.598" style="fill:#453e4f"/><rect x="151.9154" y="98.4108" width="14.6702" height="30.5625" transform="translate(-21.3489 38.3895) rotate(-12.8897)" style="fill:#524a5c"/><rect x="164.4362" y="94.1937" width="2.6224" height="33.9322" transform="translate(-20.6206 39.7758) rotate(-12.8899)" style="fill:#453e4f"/><path d="M134.9193,142.3532c.1926-.8722-.29-14.4155,3.57-16.8163s16.5093-4.666,16.5093-4.666,1.3589.7166.5073,1.6619a82.614,82.614,0,0,1-10.9033,4.3423c.8812,1.0509,5.7867,1.3573,8.7154,1.1053a55.7925,55.7925,0,0,0,9.7617-2.3435s2.3881-2.0762,3.0688-1.649c.893,1.3543-2.7151,6.3476-7.3322,9.3784-3.9022,1.8916-6.66,2.1441-9.4087,4.1066-3.0518,1.5958-5.2126,4.663-5.2371,6.9776C143.0072,146.05,134.9193,142.3532,134.9193,142.3532Z" style="fill:#f9c9a7"/><path d="M75.0125,128.5613c3.6666,12.1672,12.5648,21.28,21.0591,20.1034,7.3373-2.546,11.31-14.8808,7.6428-27.0479s-12.046-17.5653-18.8356-15.6594C76.3272,107.8153,72.609,116.5005,75.0125,128.5613Z" style="fill:#f9c9a7"/><path d="M68.7955,102.252c8.3-7.3,18.86-5.7322,25.9.5157,10.9718,4.0457,8.9026,16.3188-.2707,15.6285-2.7332-.2057-8.93,1.3066-5.4418,7.9127,5.62,12.0373,6.5759,23.1675-9.3328,23.8611-8.9651.0243-15.9711-3.5885-17.3809-10.1117-1.1366-5.2587-2.449-10.24.2264-16.6065C63.9261,120.0478,59.2258,110.0687,68.7955,102.252Z" style="fill:#83cbd1;fill-rule:evenodd"/><path d="M106.89,97.2894c.5092-.0543,1.0235-.1643,1.4059.4377.6878,1.0828-.6214,2.5309-1.0545,3.7485a14.1341,14.1341,0,0,0-.7474,4.8256c.1777.6716.6312.7361,1.2463.431q1.7613-2.1885,3.5225-4.3769a3.5475,3.5475,0,0,1,.7328-.567,1.4306,1.4306,0,0,1,1.9632,1.8541l-1.15,2.9467a2.8047,2.8047,0,0,1,2.0019.15c2.0005,1.03,1.4358,4.9225-.1466,6.0583q-1.2372.888-1.9688-.7539a3.6127,3.6127,0,0,0-.5307-2.94l-.8836,4.69-7.2985-.312-1.7275-7.183a21.0614,21.0614,0,0,1,1.2815-5.3031C104.026,99.712,105.3176,97.457,106.89,97.2894Z" style="fill:#f9c9a7;fill-rule:evenodd"/><polygon points="121.647 137.688 108.834 140.62 101.044 106.579 105.354 105.593 106.456 110.409 114.959 108.463 121.647 137.688" style="fill:#453e4f"/><path d="M112.9262,106.5621a2.7451,2.7451,0,0,1,1.8842.1768c2.0005,1.03,1.4358,4.9225-.1466,6.0583a1.0576,1.0576,0,0,1-1.69-.2474c-.443-.64-.1829-1.0086-.2145-1.7664a2.529,2.529,0,0,0-.5946-1.68l-.0044.001v-1.8953Z" style="fill:#f9c9a7;fill-rule:evenodd"/><path d="M91.3343,293.2213l13.5044-12.6351c-1,4.3061-1.1421,8.5815,1.3675,12.7621l-.62,6.0045-14.1683-2.7991Z" style="fill:#f9c9a7;fill-rule:evenodd"/><path d="M119.2914,299.0168c1.7164.8184,3.966,1.4092,4.5114,3.4674.3611,1.3632-.1708,2.8386-2.379,2.8852l-25.7-.4361c-1.6618-.0283-4.1648-.7755-4.2235-3.9463l-.2629-6.2216c5.3895,1.5946,9.8828,2.8586,14.9691-1.4171C108.25,294.5909,116.3165,297.5985,119.2914,299.0168Z" style="fill:#6fc3c5;fill-rule:evenodd"/><path d="M106.4413,241.6381c.0632-1.3385-.7195-1.5867-2.3264-.7726C80.2505,252.9568,77.46,262.2863,42.9308,259.4387c-12.1633-3.06-18.1713-12.029-21.634-23.4417L74.346,221.3655c15.1969-4.3621,30.5966-8.1149,47.1894-8.2891,7.145,1.3625,12.7466,4.067,11.8757,12.4-3.7621,21.3954-24.523,55.7711-24.6626,65.1077-6.68,2.826-12.087,4.2389-17.47,4.2232-.7223-15.3875,4.16-30.5342,10.7985-43.2757C102.4514,250.47,106.389,242.7454,106.4413,241.6381Z" style="fill:#524a5c;fill-rule:evenodd"/><path d="M57.1665,148.8975c11.7482-9.5384,25.2173-9.98,40.61-.2535l29.21,24.5877c2.407,1.7063,3.5587.484,4.1736-1.9911,1.5666-9.5791,2.3066-19.5836,3.75-29.2262,2.14,1.2345,6.1955,2.5687,9.2458,2.1132,1.1117,14.26,1.1464,28.5567-1.1105,41.3031a9.6271,9.6271,0,0,1-5.8421,6.3591c-3.4867,1.3882-6.2116.7295-9.7859-.0106-13.2479-2.7432-24.4686-9.9464-36.0218-16.418-2.4714-.7045-3.7772.1451-4.526,1.7373C79.54,193.41,75.195,207.6282,74.6333,221.3363c-21.7931,16.8889-37.1592,17.48-52.612,17.4616C15.1838,210.5626,24.9537,180.7774,57.1665,148.8975Z" style="fill:#f3963c;fill-rule:evenodd"/><path d="M88.4489,304.6576h6.1945a3.68,3.68,0,0,1-3.3578-3.8377l-.0819-4.3981-.0586-2.3564a74.2041,74.2041,0,0,1,2.8765-22.628h-.0237C87.8845,280.3213,87.84,292.3213,88.4489,304.6576Z" style="fill:#453e4f;fill-rule:evenodd"/></svg>