<svg xmlns="http://www.w3.org/2000/svg" viewBox="0 0 2008 154.874">
  <path d="M1383.489.01c-87.4,0-201.468,28.579-309.949,57.156S862.16,114.322,797.1,114.322c-19.83,0-36.152-2.656-48.04-8.775C722.709,91.977,681.793,38.1,635.172,26.855a203.472,203.472,0,0,0-44.622-4.675C527.626,22.18,456.99,46.5,375.98,70.823s-172.4,48.643-276.84,48.643A659.862,659.862,0,0,1,0,112.01V-35.408H2008V112c-70.3-33.423-134.075-43.057-194.83-43.055-41.36,0-81.326,4.467-120.966,8.933s-78.975,8.933-119.089,8.933a447.718,447.718,0,0,1-64.615-4.431c-43.06-6.254-35.79-71.655-74.13-78.39A295.8,295.8,0,0,0,1383.49.01" transform="translate(0 35.408)" fill="#fef8f1"/>
</svg>
