<svg xmlns="http://www.w3.org/2000/svg" viewBox="0 0 623.9644 48.1254"><path d="M429.9043,11.0058c-27.1586,0-62.604,8.8806-96.3133,17.7606S267.9069,46.527,247.69,46.527c-6.1619,0-11.2338-.8253-14.9279-2.7268-8.1883-4.2167-20.9024-20.9584-35.3894-24.4526a63.2254,63.2254,0,0,0-13.8658-1.4527c-19.553,0-41.5024,7.5571-66.6754,15.1152S63.26,48.1254,30.8067,48.1254A205.0435,205.0435,0,0,1,0,45.8086V0H623.9644V45.8055C602.1194,35.42,582.3021,32.426,563.4231,32.4266c-12.8522,0-25.2712,1.388-37.5889,2.7758s-24.5406,2.7758-37.0056,2.7758A139.13,139.13,0,0,1,468.75,36.6014c-13.38-1.9434-11.1214-22.2661-23.0351-24.3589a91.9147,91.9147,0,0,0-15.81-1.2367" style="fill:#222d39"/></svg>