<svg xmlns="http://www.w3.org/2000/svg" viewBox="0 0 1400 1242.938"><path d="M331.4319,824.7043l15.8205,24.5682a50.2946,50.2946,0,0,0,42.2858,23.0649H761.764a50.2946,50.2946,0,0,0,41.3488-21.6621l17.9838-25.971Z" style="fill:#cc524c"/><path d="M583.801,824.7043H821.0966s91.7209-71.45,99.2991-137.4867-67.769-29.6114-99.2991-60.6241S796.9824,456.63,855.4412,364.6109s97.685-161.47-279.1768-161.47V824.7043Z" style="fill:#f15f46"/><path d="M568.7277,824.7043H331.4319s-91.7209-71.45-99.2989-137.4867,67.7688-29.6114,99.2989-60.6241S355.5463,456.63,297.0873,364.6109s-97.6849-161.47,279.1771-161.47V824.7043Z" style="fill:#f15f46"/><path d="M399.4355,670.979S439.5242,560.5566,412.46,462.0425s-47.6331-139.6518-36.8074-177.5418,112.56-43.2793,224.62-41.126,200.605,19.2575,201.8005,50.7606-41.61,91.38-61.7055,191.9861,8.2286,210.8393,8.2286,210.8393Z" style="fill:#cc524c"/><path d="M1226.5128,411.1617s-17.948-43.9848-10.7865-95.5187,37.1874-112.5019,37.1874-112.5019,7.6959,61.0122-2.9415,115.3077S1226.5128,411.1617,1226.5128,411.1617Z" style="fill:#6dc4c6"/><path d="M759.8988,653.2969s37.2352,1.8044,41.9263,46.5506-58.4488,63.9034-84.7964,73.27-290.578-3.9411-290.578-3.9411-68.39-16.4632-75.4268-66.8028,53.5874-54.1286,53.5874-54.1286Z" style="fill:#6dc4c6"/><path d="M737.1649,392.0361s88.0492,89.363,88.0492,155.8905-130.63,33.92-130.63,33.92V554.422s64.9543,4.33,73.6149-12.2691S703.966,439.6693,703.966,439.6693Z" style="fill:#ffcaa6"/><path d="M422.17,398.7822S334.12,488.1451,334.12,554.6726s130.63,33.9205,130.63,33.9205V561.1679s-64.9542,4.33-73.6149-12.2691,64.2327-102.4835,64.2327-102.4835Z" style="fill:#ffcaa6"/><path d="M594.8734,344.0421s59.5883,6.1347,99.71,22.0123,61.0518,39.6943,61.0518,39.6943l-48.3548,58.4589-262.7042,6.4955-45.1409-59.1807s27.6391-29.049,60.6577-44.7462,82.284-17.447,82.284-17.447Z" style="fill:#fff"/><path d="M601.0129,185.2938c10.8755,58.0639-8.5065,119.72-45.3817,126.5522s-77.28-43.7461-88.1551-101.81S479.3717,108.41,516.2469,101.5781,590.1372,127.23,601.0129,185.2938Z" style="fill:#ffcaa6"/><path d="M36.7113,614.454H1352.4561a24.1141,24.1141,0,1,1,0,48.2282H36.7113a24.1141,24.1141,0,0,1,0-48.2282Z" style="fill:#efe6e8"/><polygon points="50.593 662.682 0 1242.938 16.864 1242.938 102.483 662.682 50.593 662.682" style="fill:#efe6e8"/><polygon points="1342.317 662.682 1392.91 1242.938 1376.045 1242.938 1290.426 662.682 1342.317 662.682" style="fill:#efe6e8"/><path d="M705.7884,414.4093H448.9553c-7.9987,0-14.483,7.27-14.483,16.2386V614.454H720.2714V430.6479C720.2714,421.68,713.7872,414.4093,705.7884,414.4093Z" style="fill:#51495b"/><path d="M584.4376,291.51l10.4358,52.5321s6.4955,52.5047-31.9359,54.67-37.89-46.5506-37.89-46.5506l5.9542-49.7983Z" style="fill:#ffcaa6"/><path d="M530.3068,308.175s14.4608,7.0635,29.8608,2.52,24.27-19.1852,24.27-19.1852l3.3138,16.6808s-2.08,18.1693-23.37,33.3254-38.4946,3.63-38.4946,3.63Z" style="fill:#f2b186"/><path d="M572.14,157.2985s-2.1653,24.3578,11.9082,38.4312,20.2326,50.69,13.5933,67.68c35.6638-26.0009,39.994-45.4872,33.4985-60.6431s-16.78-37.3488-16.78-54.67-3.0355-63.8717-57.5408-72.5323S472.1146,85.8487,464.7506,103.17s-25.7676,47.0921-26.3088,69.826,10.8257,31.3946,14.0734,46.0093,1.0825,35.1837,23.2753,53.5874,29.1806,16.2844,29.1806,16.2844-20.52-30.8991-21.0614-47.1377,5.9543-22.7341,9.7433-37.89-2.7065-35.7249,15.1559-47.6333S548.3228,166.5,572.14,157.2985Z" style="fill:#fa9837"/><path d="M489.9829,83.24s-38.1894,0-33.8592-50.6175c3.4477-40.3009,58.83-44.902,72.4007-4.5852s-10.3139,50.8609-10.3139,50.8609Z" style="fill:#fa9837"/><path d="M448.4261,668.4785,699.47,789.9531l-12.4571,23.7183S473.7759,797.1723,403.691,759.2241,354.4823,640.43,448.4261,668.4785Z" style="fill:#f2b186"/><path d="M694.2724,787.8611s41.8105,13.0232,60.8556,26.2184,8.2087,25.751-5.4438,28.6267-51.74-6.9622-63.69-30.3095S694.2724,787.8611,694.2724,787.8611Z" style="fill:#f2b186"/><path d="M706.6449,668.4785,455.6,789.9531l12.4571,23.7183S681.295,797.1723,751.38,759.2241,800.5886,640.43,706.6449,668.4785Z" style="fill:#ffcaa6"/><path d="M460.7984,787.8611s-41.81,13.0232-60.8555,26.2184-8.2087,25.751,5.4439,28.6267,51.74-6.9622,63.69-30.3095S460.7984,787.8611,460.7984,787.8611Z" style="fill:#ffcaa6"/><polygon points="143.223 508.4 143.223 614.454 118.972 614.454 104.932 508.4 143.223 508.4" style="fill:#fa9837"/><polygon points="143.223 508.4 101.581 508.4 101.581 498.987 111.792 498.987 115.143 494.52 143.223 494.52 143.223 508.4" style="fill:#51495b"/><polygon points="143.223 508.4 143.223 614.454 167.474 614.454 181.514 508.4 143.223 508.4" style="fill:#fa9837"/><polygon points="143.223 508.4 184.865 508.4 184.865 498.987 174.654 498.987 171.303 494.52 143.223 494.52 143.223 508.4" style="fill:#51495b"/><polygon points="434.472 603.499 720.271 517.615 720.271 614.454 434.472 614.454 434.472 603.499" style="fill:#443d4f"/><path d="M1056.5666,567.5448s5.5056,11.0116,5.5056,21.7173a73.63,73.63,0,0,1-2.7529,19.5761l247.4557,1.5764s16.2116-8.2587,13.1528-21.435a71.4992,71.4992,0,0,0-10.7058-23.513Z" style="fill:#fff"/><rect x="1054.4253" y="561.4272" width="256.3262" height="8.079" style="fill:#f15f46"/><rect x="1054.4253" y="606.375" width="256.3262" height="8.079" style="fill:#f15f46"/><path d="M1310.7515,561.4272s13,8.4881,13,27.07-13,25.9567-13,25.9567l-3.2883-8.079s8.1441-4.1131,8.1441-17.4188-10.4381-22.0232-10.4381-22.0232Z" style="fill:#f15f46"/><path d="M1321.61,532.567s-5.5058,6.7752-5.5058,13.3622a29.7757,29.7757,0,0,0,2.7529,12.0446l-247.4556.97s-16.2114-5.0814-13.1527-13.1884,10.7058-14.4668,10.7058-14.4668Z" style="fill:#fff"/><rect x="1067.4247" y="528.803" width="256.3261" height="4.9708" transform="translate(2391.1755 1062.5767) rotate(180)" style="fill:#6dc4c6"/><rect x="1067.4247" y="556.4582" width="256.3261" height="4.9708" transform="translate(2391.1755 1117.8871) rotate(180)" style="fill:#6dc4c6"/><path d="M1067.4247,528.803s-13,5.2225-13,16.6557,13,15.97,13,15.97l3.2882-4.9708s-8.144-2.5307-8.144-10.7172,10.438-13.55,10.438-13.55Z" style="fill:#6dc4c6"/><path d="M1151.2169,492.5709s3.3639,8.5052,3.3639,16.7742a70.7819,70.7819,0,0,1-1.6819,15.12l151.1893,1.2176s9.9048-6.379,8.0359-16.5561a62.3535,62.3535,0,0,0-6.5409-18.1611Z" style="fill:#fff"/><rect x="1149.9086" y="487.8458" width="156.6091" height="6.24" style="fill:#51495b"/><rect x="1149.9086" y="522.5629" width="156.6091" height="6.2401" style="fill:#51495b"/><path d="M1306.5177,487.8458s7.9426,6.5561,7.9426,20.9086-7.9426,20.0486-7.9426,20.0486l-2.0091-6.24s4.9758-3.1769,4.9758-13.4542a26.6012,26.6012,0,0,0-6.3774-17.01Z" style="fill:#51495b"/><polygon points="1226.005 411.162 1226.005 487.846 1258.63 487.846 1269.421 411.162 1226.005 411.162" style="fill:#fa9837"/><polygon points="1226.005 411.162 1226.005 487.846 1193.379 487.846 1182.588 411.162 1226.005 411.162" style="fill:#fa9837"/><path d="M1226.0047,411.1617s-2.2407-47.4529,21.7081-93.6426,72.5991-93.6425,72.5991-93.6425-13.1058,60.0827-41.2527,107.716S1226.0047,411.1617,1226.0047,411.1617Z" style="fill:#80cfd4"/><path d="M1226.0047,411.1617s21.3043-42.4607,64.8179-70.9845S1400,294.1353,1400,294.1353s-40.8716,45.948-88.7519,73.6724S1226.0047,411.1617,1226.0047,411.1617Z" style="fill:#80cfd4"/><path d="M1225.949,411.1617s2.2406-47.4529-21.7081-93.6426-72.5992-93.6425-72.5992-93.6425,13.106,60.0827,41.2529,107.716S1225.949,411.1617,1225.949,411.1617Z" style="fill:#80cfd4"/><path d="M1225.949,411.1617s-21.3044-42.4607-64.818-70.9845-109.1774-46.0419-109.1774-46.0419,40.8716,45.948,88.7519,73.6724S1225.949,411.1617,1225.949,411.1617Z" style="fill:#80cfd4"/><rect x="560.1676" y="872.3374" width="50.4031" height="281.108" style="fill:#51495b"/><path d="M434.6528,872.3374s54.8864,16.78,152.7509,16.78,149.828-16.78,149.828-16.78Z" style="fill:#51495b"/><polygon points="587.404 1153.445 476.693 1214.43 568.35 1136.485 587.404 1153.445" style="fill:#51495b"/><circle cx="481.7446" cy="1221.6474" r="21.2905" transform="translate(-722.7354 698.4571) rotate(-45)" style="fill:#51495b"/><polygon points="587.404 1153.445 698.115 1214.43 606.457 1136.485 587.404 1153.445" style="fill:#51495b"/><circle cx="693.0628" cy="1221.6474" r="21.2905" transform="translate(-654.2945 1618.3672) rotate(-76.8397)" style="fill:#51495b"/><rect x="945.3555" y="527.8857" width="39.1721" height="21.7849" style="fill:#51495b"/><path d="M1005.3523,540.8574h-9.2237a5.838,5.838,0,0,1-1.5765-.2233H942.3057a11.3208,11.3208,0,0,1-2.3084.2233H890.5227a3.96,3.96,0,0,0-4.3263,4.3276v63.8326a3.96,3.96,0,0,0,4.3263,4.3282h114.83a3.9606,3.9606,0,0,0,4.3277-4.3282V545.185A3.96,3.96,0,0,0,1005.3523,540.8574Z" style="fill:#443d4f"/><path d="M940.7764,496.0858h48.33a5.7582,5.7582,0,0,1,5.7582,5.7582v27.5453a5.7589,5.7589,0,0,1-5.7589,5.7589H940.777a5.7589,5.7589,0,0,1-5.7589-5.7589V501.8441A5.7583,5.7583,0,0,1,940.7764,496.0858Z" style="fill:#443d4f"/><path d="M955.6852,501.8441h18.5126a13.7707,13.7707,0,0,1,13.7707,13.7707v.0038a13.7707,13.7707,0,0,1-13.7707,13.7707H955.6853a13.7707,13.7707,0,0,1-13.7707-13.7707v-.0039A13.7706,13.7706,0,0,1,955.6852,501.8441Z" style="fill:#e0d5d7"/><circle cx="964.9412" cy="576.9899" r="22.2124" style="fill:#e0d5d7"/><circle cx="964.9412" cy="576.9899" r="17.5" style="fill:#51495b"/></svg>