<svg xmlns="http://www.w3.org/2000/svg" xmlns:xlink="http://www.w3.org/1999/xlink" width="20pt" height="20pt" viewBox="0 0 20 20" version="1.1">
<g id="surface2213">
<path style=" stroke:none;fill-rule:nonzero;fill-opacity:1;" d="M 1.332031 1.332031 C 1.09375 1.328125 0.871094 1.457031 0.75 1.664062 C 0.625 1.871094 0.625 2.128906 0.75 2.335938 C 0.871094 2.542969 1.09375 2.671875 1.332031 2.667969 L 2.585938 2.667969 C 2.738281 2.667969 2.863281 2.761719 2.90625 2.90625 L 5.746094 12.566406 C 5.996094 13.414062 6.78125 14 7.664062 14 L 14.980469 14 C 15.878906 14 16.675781 13.390625 16.910156 12.527344 L 18.644531 6.175781 C 18.699219 5.976562 18.65625 5.761719 18.53125 5.59375 C 18.402344 5.429688 18.207031 5.332031 18 5.332031 L 5.007812 5.332031 L 4.183594 2.53125 C 3.976562 1.824219 3.320312 1.332031 2.585938 1.332031 Z M 12.667969 6.667969 C 12.835938 6.667969 13.007812 6.730469 13.136719 6.863281 L 15.136719 8.863281 C 15.199219 8.921875 15.25 8.996094 15.28125 9.078125 C 15.351562 9.242188 15.351562 9.425781 15.28125 9.589844 C 15.25 9.671875 15.199219 9.742188 15.136719 9.804688 L 13.136719 11.804688 C 13.007812 11.933594 12.835938 12 12.667969 12 C 12.496094 12 12.324219 11.933594 12.195312 11.804688 C 11.933594 11.542969 11.933594 11.121094 12.195312 10.863281 L 13.058594 10 L 8.667969 10 C 8.296875 10 8 9.703125 8 9.332031 C 8 8.964844 8.296875 8.667969 8.667969 8.667969 L 13.058594 8.667969 L 12.195312 7.804688 C 11.933594 7.542969 11.933594 7.121094 12.195312 6.863281 C 12.324219 6.730469 12.496094 6.667969 12.667969 6.667969 Z M 8 15.332031 C 7.261719 15.332031 6.667969 15.929688 6.667969 16.667969 C 6.667969 17.402344 7.261719 18 8 18 C 8.738281 18 9.332031 17.402344 9.332031 16.667969 C 9.332031 15.929688 8.738281 15.332031 8 15.332031 Z M 14.667969 15.332031 C 13.929688 15.332031 13.332031 15.929688 13.332031 16.667969 C 13.332031 17.402344 13.929688 18 14.667969 18 C 15.402344 18 16 17.402344 16 16.667969 C 16 15.929688 15.402344 15.332031 14.667969 15.332031 Z M 14.667969 15.332031 "/>
</g>
</svg>
