<svg xmlns="http://www.w3.org/2000/svg" xmlns:xlink="http://www.w3.org/1999/xlink" viewBox="0 0 20 20" version="1.1">
<g id="surface1972">
<path style=" stroke:none;fill-rule:nonzero;fill-opacity:1;" d="M 3.332031 2.667969 C 2.597656 2.667969 2 3.261719 2 4 L 2 6.667969 L 18 6.667969 L 18 4 C 18 3.261719 17.402344 2.667969 16.667969 2.667969 Z M 4 4 C 4.367188 4 4.667969 4.296875 4.667969 4.667969 C 4.667969 5.035156 4.367188 5.332031 4 5.332031 C 3.632812 5.332031 3.332031 5.035156 3.332031 4.667969 C 3.332031 4.296875 3.632812 4 4 4 Z M 6.667969 4 C 7.035156 4 7.332031 4.296875 7.332031 4.667969 C 7.332031 5.035156 7.035156 5.332031 6.667969 5.332031 C 6.296875 5.332031 6 5.035156 6 4.667969 C 6 4.296875 6.296875 4 6.667969 4 Z M 2 8 L 2 16.667969 C 2 17.035156 2.296875 17.332031 2.667969 17.332031 L 17.332031 17.332031 C 17.703125 17.332031 18 17.035156 18 16.667969 L 18 8 L 16.667969 8 L 16.667969 16 L 3.332031 16 L 3.332031 8 Z M 4.667969 8 L 4.667969 14.667969 L 9.332031 14.667969 L 9.332031 8 Z M 11.332031 8 C 11.09375 7.996094 10.871094 8.121094 10.75 8.332031 C 10.625 8.539062 10.625 8.796875 10.75 9.003906 C 10.871094 9.210938 11.09375 9.335938 11.332031 9.332031 L 14.667969 9.332031 C 14.90625 9.335938 15.128906 9.210938 15.25 9.003906 C 15.375 8.796875 15.375 8.539062 15.25 8.332031 C 15.128906 8.121094 14.90625 7.996094 14.667969 8 Z M 11.332031 10.667969 C 11.09375 10.664062 10.871094 10.789062 10.75 10.996094 C 10.625 11.203125 10.625 11.460938 10.75 11.667969 C 10.871094 11.878906 11.09375 12.003906 11.332031 12 L 14.667969 12 C 14.90625 12.003906 15.128906 11.878906 15.25 11.667969 C 15.375 11.460938 15.375 11.203125 15.25 10.996094 C 15.128906 10.789062 14.90625 10.664062 14.667969 10.667969 Z M 11.332031 13.332031 C 11.09375 13.328125 10.871094 13.457031 10.75 13.664062 C 10.625 13.871094 10.625 14.128906 10.75 14.335938 C 10.871094 14.542969 11.09375 14.671875 11.332031 14.667969 L 14.667969 14.667969 C 14.90625 14.671875 15.128906 14.542969 15.25 14.335938 C 15.375 14.128906 15.375 13.871094 15.25 13.664062 C 15.128906 13.457031 14.90625 13.328125 14.667969 13.332031 Z M 11.332031 13.332031 "/>
</g>
</svg>
