<svg xmlns="http://www.w3.org/2000/svg" xmlns:xlink="http://www.w3.org/1999/xlink" width="20pt" height="20pt" viewBox="0 0 20 20" version="1.1">
<g id="surface2992">
<path style=" stroke:none;fill-rule:nonzero;fill-opacity:1;" d="M 2 2.667969 C 1.261719 2.667969 0.667969 3.261719 0.667969 4 L 0.667969 13.332031 C 0.667969 14.070312 1.261719 14.667969 2 14.667969 L 2.667969 14.667969 L 2.667969 6 C 2.667969 5.261719 3.261719 4.667969 4 4.667969 L 16 4.667969 L 16 4 C 16 3.261719 15.402344 2.667969 14.667969 2.667969 Z M 5.332031 6 C 4.597656 6 4 6.597656 4 7.332031 L 4 16 C 4 16.738281 4.597656 17.332031 5.332031 17.332031 L 18 17.332031 C 18.738281 17.332031 19.332031 16.738281 19.332031 16 L 19.332031 7.332031 C 19.332031 6.597656 18.738281 6 18 6 Z M 11.667969 8 C 12.367188 8 12.582031 8.496094 12.582031 8.496094 C 13.207031 8.496094 13.5 9.183594 13.5 9.984375 C 13.5 10.386719 13.339844 10.71875 13.339844 10.71875 C 13.402344 10.757812 13.511719 10.886719 13.484375 11.117188 C 13.433594 11.539062 13.261719 11.648438 13.15625 11.65625 C 13.113281 12.050781 12.71875 12.558594 12.582031 12.632812 L 12.582031 13.296875 C 12.859375 14.1875 14.929688 13.75 15.332031 15.332031 L 8 15.332031 C 8.402344 13.75 10.476562 14.1875 10.75 13.296875 L 10.75 12.632812 C 10.613281 12.558594 10.21875 12.054688 10.179688 11.65625 C 10.070312 11.648438 9.898438 11.539062 9.851562 11.117188 C 9.824219 10.886719 9.929688 10.757812 9.996094 10.71875 C 9.996094 10.71875 9.832031 10.351562 9.832031 9.984375 C 9.832031 8.898438 10.371094 8 11.667969 8 Z M 11.667969 8 "/>
</g>
</svg>
