<svg xmlns="http://www.w3.org/2000/svg" xmlns:xlink="http://www.w3.org/1999/xlink" viewBox="0 0 20 20" version="1.1">
<path style=" stroke:none;fill-rule:nonzero;fill-opacity:1;" d="M 15.425781 -0.0390625 C 13.90625 -0.0078125 12.058594 0.941406 11.199219 1.800781 C 10.109375 2.890625 10.011719 4.390625 10.925781 5.949219 L 9.5 7.375 L 10.011719 7.875 C 10.28125 7.648438 10.628906 7.523438 11 7.523438 C 11.414062 7.523438 11.8125 7.675781 12.085938 7.949219 L 12.363281 8.238281 C 12.726562 8.601562 12.882812 9.117188 12.789062 9.613281 L 13.0625 9.898438 C 13.113281 9.898438 13.164062 9.910156 13.210938 9.914062 L 14.0625 9.0625 C 14.777344 9.445312 15.46875 9.636719 16.101562 9.636719 C 16.878906 9.636719 17.582031 9.34375 18.164062 8.761719 C 19.238281 7.6875 20.40625 5.179688 19.863281 3.550781 C 19.820312 3.417969 19.710938 3.320312 19.574219 3.289062 C 19.4375 3.253906 19.296875 3.300781 19.199219 3.398438 L 17.074219 5.511719 C 16.945312 5.640625 16.703125 5.632812 16.5625 5.511719 L 14.4375 3.398438 C 14.308594 3.269531 14.316406 3.027344 14.4375 2.886719 L 16.5625 0.761719 C 16.660156 0.664062 16.707031 0.523438 16.675781 0.386719 C 16.644531 0.253906 16.542969 0.144531 16.414062 0.101562 C 16.113281 -0.00390625 15.777344 -0.0429688 15.425781 -0.0390625 Z M 1 0 L 0 1 L 1.675781 3.925781 L 2.761719 3.761719 L 9 10 L 8.523438 10.476562 C 8.25 10.75 8.25 11.25 8.523438 11.523438 L 8.800781 11.800781 C 8.996094 11.996094 9.328125 12.0625 9.585938 11.960938 L 9.835938 11.875 L 10.710938 12.75 L 10.6875 12.9375 C 10.640625 13.363281 10.808594 13.808594 11.125 14.125 L 16.375 19.386719 C 16.78125 19.792969 17.3125 20.011719 17.875 20.011719 C 18.4375 20.011719 18.976562 19.785156 19.386719 19.375 C 20.1875 18.535156 20.195312 17.195312 19.386719 16.386719 L 14.125 11.125 C 13.828125 10.828125 13.398438 10.667969 12.9375 10.699219 L 12.75 10.710938 L 11.875 9.835938 L 11.960938 9.585938 C 12.070312 9.3125 12.007812 9.007812 11.800781 8.800781 L 11.523438 8.523438 C 11.273438 8.273438 10.726562 8.273438 10.476562 8.523438 L 10 9 L 3.761719 2.761719 L 3.925781 1.675781 Z M 7.375 9.5 L 4.949219 11.925781 C 4.671875 11.871094 4.402344 11.835938 4.125 11.835938 C 1.875 11.835938 0.0390625 13.675781 0.0390625 15.925781 C 0.0390625 18.175781 1.875 20 4.125 20 C 6.375 20 8.199219 18.175781 8.199219 15.925781 C 8.199219 15.585938 8.171875 15.292969 8.101562 15.023438 L 9.886719 13.238281 C 9.882812 13.175781 9.875 13.109375 9.875 13.050781 L 9.613281 12.789062 C 9.125 12.878906 8.589844 12.714844 8.238281 12.363281 L 7.949219 12.085938 C 7.390625 11.527344 7.371094 10.609375 7.875 10.011719 Z M 12.6875 12.113281 L 17.488281 16.914062 L 16.914062 17.488281 L 12.113281 12.6875 Z M 4.601562 14 L 6 15.398438 L 5.523438 17.273438 L 3.601562 17.800781 L 2.199219 16.398438 L 2.726562 14.523438 Z M 4.601562 14 "/>
</svg>
