<svg xmlns="http://www.w3.org/2000/svg" xmlns:xlink="http://www.w3.org/1999/xlink" viewBox="0 0 20 20" version="1.1">
<g id="surface2723">
<path style=" stroke:none;fill-rule:nonzero;fill-opacity:1;" d="M 8 3.332031 C 7.261719 3.332031 6.667969 3.929688 6.667969 4.667969 L 20 4.667969 C 20 3.929688 19.402344 3.332031 18.667969 3.332031 Z M 6.667969 4.667969 L 6.480469 4.667969 C 5.292969 4.667969 3.800781 4.78125 2.789062 5.664062 C 2.007812 6.347656 0 8.046875 0 8.046875 L 0 9.757812 C 0 9.757812 2.867188 7.363281 3.667969 6.664062 C 4.398438 6.027344 5.746094 6 6.480469 6 L 6.667969 6 Z M 6.667969 6 L 6.667969 11.101562 L 10.558594 8.917969 C 10.777344 8.761719 11.042969 8.667969 11.332031 8.667969 C 12.070312 8.667969 12.667969 9.261719 12.667969 10 C 12.667969 10.460938 12.429688 10.867188 12.074219 11.105469 L 10.050781 12.667969 L 7.667969 14.5 C 6.96875 15.039062 6.113281 15.332031 5.230469 15.332031 L 0 15.332031 L 0 16.664062 L 5.230469 16.664062 C 6.398438 16.664062 7.554688 16.273438 8.484375 15.558594 L 12.238281 12.667969 L 18.667969 12.667969 C 19.402344 12.667969 20 12.070312 20 11.332031 L 20 6 Z M 6.667969 6 "/>
</g>
</svg>
