<svg xmlns="http://www.w3.org/2000/svg" xmlns:xlink="http://www.w3.org/1999/xlink" width="20pt" height="20pt" viewBox="0 0 20 20" version="1.1">
<g id="surface2482">
<path style=" stroke:none;fill-rule:nonzero;fill-opacity:1;" d="M 2 3.332031 C 1.261719 3.332031 0.667969 3.929688 0.667969 4.667969 L 0.667969 14 C 0.425781 13.996094 0.203125 14.121094 0.0820312 14.332031 C -0.0390625 14.539062 -0.0390625 14.796875 0.0820312 15.003906 C 0.203125 15.210938 0.425781 15.335938 0.667969 15.332031 L 2.699219 15.332031 C 2.867188 16.457031 3.832031 17.332031 5 17.332031 C 6.167969 17.332031 7.132812 16.457031 7.300781 15.332031 L 13.367188 15.332031 C 13.53125 16.457031 14.5 17.332031 15.667969 17.332031 C 16.832031 17.332031 17.800781 16.457031 17.964844 15.332031 L 19.332031 15.332031 C 19.574219 15.335938 19.796875 15.210938 19.917969 15.003906 C 20.039062 14.796875 20.039062 14.539062 19.917969 14.332031 C 19.796875 14.121094 19.574219 13.996094 19.332031 14 L 19.332031 10.667969 L 15.332031 10.667969 L 15.332031 8 C 15.332031 7.632812 15.632812 7.332031 16 7.332031 L 17.90625 7.332031 L 17.679688 6.808594 C 17.46875 6.320312 16.988281 6 16.453125 6 L 12 6 L 12 4.667969 C 12 3.929688 11.402344 3.332031 10.667969 3.332031 Z M 8.667969 6 C 8.835938 6 9.007812 6.066406 9.136719 6.195312 C 9.398438 6.457031 9.398438 6.878906 9.136719 7.136719 L 5.804688 10.472656 C 5.675781 10.601562 5.503906 10.667969 5.332031 10.667969 C 5.164062 10.667969 4.992188 10.601562 4.863281 10.472656 L 3.527344 9.136719 C 3.269531 8.878906 3.269531 8.457031 3.527344 8.195312 C 3.789062 7.933594 4.210938 7.933594 4.472656 8.195312 L 5.332031 9.058594 L 8.195312 6.195312 C 8.324219 6.066406 8.496094 6 8.667969 6 Z M 5 14 C 5.558594 14 6 14.441406 6 15 C 6 15.558594 5.558594 16 5 16 C 4.441406 16 4 15.558594 4 15 C 4 14.441406 4.441406 14 5 14 Z M 15.667969 14 C 16.226562 14 16.667969 14.441406 16.667969 15 C 16.667969 15.558594 16.226562 16 15.667969 16 C 15.105469 16 14.667969 15.558594 14.667969 15 C 14.667969 14.441406 15.105469 14 15.667969 14 Z M 15.667969 14 "/>
</g>
</svg>
