<svg xmlns="http://www.w3.org/2000/svg" xmlns:xlink="http://www.w3.org/1999/xlink" width="20pt" height="20pt" viewBox="0 0 20 20" version="1.1">
<g id="surface3233">
<path style=" stroke:none;fill-rule:nonzero;fill-opacity:1;" d="M 7 1.332031 C 5.71875 1.332031 4.667969 2.386719 4.667969 3.667969 C 4.667969 4.949219 5.71875 6 7 6 C 7.398438 6 7.769531 5.886719 8.097656 5.707031 L 9.058594 6.667969 L 6.363281 9.359375 C 5.902344 9.820312 5.902344 10.570312 6.363281 11.03125 L 6.472656 11.136719 L 11.902344 5.707031 C 12.230469 5.886719 12.601562 6 13 6 C 14.28125 6 15.332031 4.949219 15.332031 3.667969 C 15.332031 2.386719 14.28125 1.332031 13 1.332031 C 11.71875 1.332031 10.667969 2.386719 10.667969 3.667969 C 10.667969 4.066406 10.777344 4.4375 10.957031 4.765625 L 10 5.722656 L 9.042969 4.765625 C 9.222656 4.4375 9.332031 4.066406 9.332031 3.667969 C 9.332031 2.386719 8.28125 1.332031 7 1.332031 Z M 7 2.667969 C 7.558594 2.667969 8 3.105469 8 3.667969 C 8 4.226562 7.558594 4.667969 7 4.667969 C 6.441406 4.667969 6 4.226562 6 3.667969 C 6 3.105469 6.441406 2.667969 7 2.667969 Z M 13 2.667969 C 13.558594 2.667969 14 3.105469 14 3.667969 C 14 4.226562 13.558594 4.667969 13 4.667969 C 12.441406 4.667969 12 4.226562 12 3.667969 C 12 3.105469 12.441406 2.667969 13 2.667969 Z M 2.667969 7.332031 C 2.578125 7.332031 2.488281 7.34375 2.398438 7.359375 C 2.3125 7.378906 2.230469 7.40625 2.148438 7.4375 C 2.070312 7.472656 1.996094 7.511719 1.925781 7.558594 C 1.925781 7.558594 1.921875 7.5625 1.921875 7.5625 C 1.851562 7.609375 1.789062 7.660156 1.734375 7.71875 C 1.730469 7.722656 1.722656 7.722656 1.71875 7.726562 C 1.664062 7.785156 1.613281 7.847656 1.566406 7.914062 C 1.5625 7.917969 1.5625 7.921875 1.558594 7.925781 C 1.515625 7.992188 1.476562 8.0625 1.445312 8.136719 C 1.441406 8.144531 1.4375 8.152344 1.4375 8.15625 C 1.40625 8.230469 1.382812 8.308594 1.367188 8.382812 C 1.363281 8.394531 1.359375 8.402344 1.359375 8.410156 C 1.34375 8.496094 1.332031 8.582031 1.332031 8.667969 L 1.332031 16.667969 C 1.332031 16.757812 1.34375 16.847656 1.359375 16.933594 C 1.378906 17.019531 1.40625 17.105469 1.4375 17.183594 C 1.4375 17.183594 1.4375 17.1875 1.4375 17.1875 C 1.472656 17.261719 1.511719 17.335938 1.558594 17.40625 C 1.558594 17.410156 1.5625 17.410156 1.5625 17.414062 C 1.609375 17.480469 1.660156 17.542969 1.71875 17.601562 C 1.722656 17.605469 1.722656 17.609375 1.726562 17.613281 C 1.785156 17.671875 1.847656 17.722656 1.914062 17.765625 C 1.917969 17.769531 1.921875 17.773438 1.925781 17.773438 C 1.992188 17.820312 2.0625 17.855469 2.136719 17.886719 C 2.144531 17.890625 2.152344 17.894531 2.15625 17.898438 C 2.230469 17.925781 2.308594 17.949219 2.382812 17.96875 C 2.394531 17.96875 2.402344 17.972656 2.410156 17.972656 C 2.496094 17.992188 2.582031 18 2.667969 18 L 17.332031 18 C 17.421875 18 17.511719 17.992188 17.601562 17.972656 C 17.6875 17.953125 17.769531 17.929688 17.851562 17.894531 C 17.929688 17.863281 18.003906 17.820312 18.074219 17.773438 C 18.074219 17.773438 18.078125 17.773438 18.078125 17.773438 C 18.078125 17.773438 18.078125 17.769531 18.078125 17.769531 C 18.148438 17.726562 18.210938 17.671875 18.265625 17.617188 C 18.269531 17.613281 18.273438 17.613281 18.277344 17.609375 C 18.277344 17.609375 18.277344 17.605469 18.28125 17.605469 C 18.335938 17.546875 18.386719 17.484375 18.433594 17.417969 C 18.433594 17.414062 18.4375 17.414062 18.4375 17.410156 C 18.441406 17.410156 18.441406 17.410156 18.441406 17.40625 C 18.484375 17.339844 18.523438 17.269531 18.554688 17.195312 C 18.558594 17.191406 18.5625 17.183594 18.5625 17.175781 C 18.59375 17.101562 18.617188 17.027344 18.632812 16.949219 C 18.636719 16.941406 18.640625 16.933594 18.640625 16.921875 C 18.65625 16.839844 18.667969 16.753906 18.667969 16.667969 L 18.667969 8.667969 C 18.667969 8.578125 18.65625 8.488281 18.640625 8.398438 C 18.621094 8.3125 18.59375 8.230469 18.5625 8.148438 C 18.527344 8.070312 18.488281 7.996094 18.441406 7.925781 C 18.441406 7.925781 18.441406 7.921875 18.4375 7.921875 C 18.390625 7.851562 18.339844 7.789062 18.28125 7.734375 C 18.28125 7.730469 18.277344 7.726562 18.277344 7.722656 C 18.273438 7.722656 18.273438 7.722656 18.273438 7.71875 C 18.214844 7.664062 18.152344 7.613281 18.085938 7.566406 C 18.082031 7.566406 18.082031 7.5625 18.078125 7.5625 C 18.078125 7.558594 18.074219 7.558594 18.074219 7.558594 C 18.007812 7.515625 17.9375 7.476562 17.863281 7.445312 C 17.855469 7.441406 17.847656 7.4375 17.84375 7.4375 C 17.769531 7.40625 17.691406 7.382812 17.617188 7.367188 C 17.605469 7.363281 17.597656 7.359375 17.589844 7.359375 C 17.503906 7.34375 17.417969 7.332031 17.332031 7.332031 L 12 7.332031 L 10.667969 8.667969 L 16 8.667969 C 16 9.402344 16.597656 10 17.332031 10 L 17.335938 15.332031 C 17.335938 15.332031 17.332031 15.332031 17.332031 15.332031 C 16.597656 15.332031 16 15.929688 16 16.667969 L 4 16.667969 C 4 15.929688 3.402344 15.332031 2.667969 15.332031 L 2.667969 10 C 3.402344 10 4 9.402344 4 8.667969 L 5.542969 8.667969 L 6.875 7.332031 Z M 10 10 C 8.527344 10 7.332031 11.34375 7.332031 13 C 7.332031 13.949219 7.730469 14.785156 8.34375 15.332031 L 11.65625 15.332031 C 12.269531 14.785156 12.667969 13.949219 12.667969 13 C 12.667969 11.34375 11.472656 10 10 10 Z M 4.667969 12 C 4.296875 12 4 12.296875 4 12.667969 C 4 13.035156 4.296875 13.332031 4.667969 13.332031 C 5.035156 13.332031 5.332031 13.035156 5.332031 12.667969 C 5.332031 12.296875 5.035156 12 4.667969 12 Z M 15.332031 12 C 14.964844 12 14.667969 12.296875 14.667969 12.667969 C 14.667969 13.035156 14.964844 13.332031 15.332031 13.332031 C 15.703125 13.332031 16 13.035156 16 12.667969 C 16 12.296875 15.703125 12 15.332031 12 Z M 15.332031 12 "/>
</g>
</svg>
